<svg xmlns="http://www.w3.org/2000/svg" xmlns:xlink="http://www.w3.org/1999/xlink" width="1910" zoomAndPan="magnify" viewBox="0 0 1432.5 749.999995" height="1000" preserveAspectRatio="xMidYMid meet" version="1.0"><path fill="#f5ebdc" d="M 721.363281 711.003906 C 587.816406 711.003906 513.949219 699.992188 465.855469 672.75 C 430.507812 652.753906 408.496094 622.617188 408.496094 594.214844 L 408.496094 217.183594 C 408.496094 174.871094 439.492188 126.472656 489.03125 91.117188 C 530.175781 61.84375 604.039062 27.070312 721.363281 27.070312 C 925.597656 27.070312 1034.234375 137.484375 1034.234375 217.183594 L 1034.234375 593.914062 C 1034.234375 622.605469 1012.21875 652.746094 976.582031 672.742188 C 928.785156 699.992188 854.914062 711.003906 721.363281 711.003906 " fill-opacity="1" fill-rule="nonzero"/><path fill="#ff8732" d="M 960.140625 642.972656 C 913.546875 669.28125 833.609375 676.804688 723.039062 676.804688 C 612.464844 676.804688 532.527344 669.28125 485.941406 642.972656 C 457.96875 627.214844 443.816406 605.730469 443.816406 590.328125 C 443.816406 581.5625 448.480469 576.539062 458.863281 576.539062 L 987.203125 576.539062 C 997.59375 576.539062 1002.253906 581.558594 1002.253906 590.328125 C 1002.261719 605.730469 988.105469 627.210938 960.144531 642.972656 L 960.140625 642.972656 M 987.203125 234.753906 L 458.863281 234.753906 C 448.472656 234.753906 443.816406 229.386719 443.816406 219.722656 C 443.816406 162.421875 530.019531 61.269531 723.039062 61.269531 C 914.273438 61.269531 1002.265625 162.421875 1002.265625 219.722656 C 1002.265625 229.386719 997.601562 234.753906 987.203125 234.753906 " fill-opacity="1" fill-rule="nonzero"/><path fill="#d62300" d="M 556.359375 471.09375 C 554.746094 468.589844 554.574219 466.976562 554.574219 466.265625 C 554.574219 464.296875 555.648438 462.867188 557.792969 460.894531 C 562.8125 456.230469 575.183594 444.597656 581.992188 434.035156 C 587.1875 425.980469 589.335938 418.640625 589.335938 412.5625 C 589.335938 396.984375 575.183594 384.800781 559.761719 384.800781 C 549.902344 384.800781 540.585938 390.355469 534.316406 400.558594 C 525.894531 414.160156 515.855469 429.917969 509.410156 436.191406 C 507.792969 437.804688 506.898438 438.164062 505.648438 438.164062 C 503.496094 438.164062 502.601562 436.726562 502.601562 434.402344 L 502.601562 416.503906 C 502.601562 398.957031 492.210938 384.808594 473.390625 384.808594 C 454.390625 384.808594 444.171875 398.953125 444.171875 416.503906 L 444.171875 526.792969 C 444.171875 544.335938 454.382812 558.492188 473.390625 558.492188 C 492.210938 558.492188 502.601562 544.347656 502.601562 526.792969 L 502.601562 501.378906 C 502.601562 499.222656 503.496094 497.617188 505.648438 497.617188 C 508.519531 497.617188 509.238281 500.484375 509.957031 501.914062 C 514.078125 511.761719 526.074219 532.703125 537.195312 545.0625 C 544.71875 553.296875 554.039062 558.496094 563.898438 558.496094 C 580.5625 558.496094 594.550781 543.988281 594.550781 528.410156 C 594.550781 518.742188 590.421875 511.582031 582.539062 502.992188 C 572.5 492.050781 560.664062 477.722656 556.359375 471.101562 L 556.359375 471.09375 M 779.859375 374.589844 C 807.992188 374.589844 825.738281 356.683594 825.738281 330.546875 C 825.738281 313.898438 815.691406 302.4375 795.625 302.4375 L 789.898438 302.4375 C 779.316406 302.4375 771.074219 307.457031 771.074219 318.734375 C 771.074219 328.761719 779.855469 333.597656 786.488281 333.597656 C 789.890625 333.597656 792.050781 334.667969 792.050781 337.179688 C 792.050781 340.394531 788.292969 342.546875 783.984375 342.546875 C 770.539062 342.546875 761.398438 333.054688 761.398438 315.328125 C 761.398438 295.636719 773.953125 288.484375 783.625 288.484375 C 795.449219 288.484375 797.425781 294.570312 805.671875 294.570312 C 815.171875 294.570312 821.625 286.691406 821.625 278.457031 C 821.625 272.371094 818.929688 267.71875 814.8125 264.492188 C 807.285156 258.9375 796.714844 254.828125 780.945312 254.828125 C 753.15625 254.828125 726.101562 273.089844 726.101562 315.34375 C 726.085938 355.789062 753.152344 374.589844 779.859375 374.589844 M 464.777344 373.515625 L 490.054688 373.515625 C 513.894531 373.515625 528.40625 357.582031 528.40625 337.707031 C 528.40625 321.769531 518.902344 314.433594 516.757812 312.640625 C 515.867188 311.921875 514.972656 311.210938 514.972656 310.492188 C 514.972656 309.605469 515.507812 309.242188 516.410156 308.167969 C 519.804688 304.226562 523.210938 297.964844 523.210938 288.824219 C 523.210938 267.351562 508.691406 255.882812 486.113281 255.882812 L 464.785156 255.882812 C 450.625 255.882812 443.816406 264.128906 443.816406 275.222656 L 443.816406 354.175781 C 443.816406 365.28125 450.625 373.515625 464.777344 373.515625 M 475.359375 286.683594 C 475.359375 284.359375 476.796875 282.5625 479.835938 282.5625 L 482.167969 282.5625 C 489.871094 282.5625 492.210938 287.929688 492.210938 292.59375 C 492.210938 296.890625 489.882812 302.976562 482.167969 302.976562 L 479.84375 302.976562 C 476.792969 302.976562 475.359375 301.191406 475.359375 298.859375 L 475.359375 286.683594 M 475.359375 328.582031 C 475.359375 326.257812 476.796875 324.457031 479.835938 324.457031 L 483.0625 324.457031 C 491.671875 324.457031 494.171875 330.183594 494.171875 335.382812 C 494.171875 340.046875 491.664062 346.664062 483.0625 346.664062 L 479.84375 346.664062 C 476.796875 346.664062 475.359375 344.875 475.359375 342.542969 L 475.359375 328.582031 M 932.730469 374.40625 C 944.199219 374.40625 950.46875 365.808594 950.46875 355.070312 L 950.46875 336.09375 C 950.46875 333.765625 951.546875 332.691406 953.339844 332.691406 C 955.488281 332.691406 956.199219 333.945312 956.550781 336.09375 C 958.171875 345.222656 962.472656 357.574219 967.304688 363.847656 C 973.402344 371.910156 979.132812 374.421875 984.875 374.421875 C 994.183594 374.421875 1002.257812 367.074219 1002.257812 357.9375 C 1002.257812 351.851562 999.75 347.371094 996.523438 343.261719 C 990.425781 335.566406 986.667969 330.554688 984.34375 324.289062 C 983.800781 322.851562 984.15625 321.59375 985.777344 320.347656 C 991.335938 316.050781 997.789062 306.558594 997.789062 291.527344 C 997.789062 268.785156 978.964844 255.894531 956.199219 255.894531 L 935.957031 255.894531 C 921.796875 255.894531 914.992188 264.121094 914.992188 275.226562 L 914.992188 355.082031 C 914.992188 365.820312 921.257812 374.40625 932.738281 374.40625 L 932.730469 374.40625 M 948.5 289.734375 C 948.5 287.410156 949.933594 285.605469 952.976562 285.605469 L 955.484375 285.605469 C 963.019531 285.605469 965.34375 290.980469 965.34375 295.636719 C 965.34375 300.117188 963.019531 306.019531 955.484375 306.019531 L 952.976562 306.019531 C 949.929688 306.019531 948.5 304.242188 948.5 301.902344 L 948.5 289.730469 L 948.5 289.734375 M 638.085938 384.796875 C 618.015625 384.796875 607.078125 399.828125 607.078125 418.628906 L 607.078125 524.632812 C 607.078125 543.4375 618.015625 558.472656 638.085938 558.472656 C 658.15625 558.472656 669.089844 543.433594 669.089844 524.632812 L 669.089844 418.628906 C 669.089844 399.839844 658.164062 384.796875 638.085938 384.796875 M 956.738281 453.726562 L 947.957031 453.726562 C 932.1875 453.726562 920 461.066406 920 477.171875 C 920 491.855469 933.261719 498.839844 943.117188 498.839844 C 947.957031 498.839844 951.363281 500.277344 951.363281 504.03125 C 951.363281 508.683594 945.628906 511.726562 939.535156 511.726562 C 919.28125 511.726562 905.480469 497.9375 905.480469 472.332031 C 905.480469 443.867188 924.300781 433.484375 938.8125 433.484375 C 956.558594 433.484375 959.421875 442.445312 971.785156 442.445312 C 986.121094 442.445312 995.800781 430.800781 995.800781 418.984375 C 995.800781 410.214844 991.855469 403.410156 985.585938 398.753906 C 974.648438 390.691406 958.171875 384.777344 934.863281 384.777344 C 893.113281 384.777344 852.425781 411.097656 852.425781 472.332031 C 852.425781 530.875 893.097656 558.273438 933.25 558.273438 C 975.359375 558.273438 1002.066406 532.3125 1002.066406 494.355469 C 1002.078125 470.375 987.035156 453.726562 956.738281 453.726562 M 888.992188 373.515625 C 899.042969 373.515625 906.921875 367.609375 906.921875 356.863281 C 906.921875 346.296875 899.035156 340.386719 889 340.386719 L 872.867188 340.386719 C 869.824219 340.386719 868.390625 338.601562 868.390625 336.269531 L 868.390625 332.867188 C 868.390625 330.539062 869.824219 328.746094 872.875 328.746094 L 885.242188 328.746094 C 893.847656 328.746094 900.65625 323.558594 900.65625 314.417969 C 900.65625 305.296875 893.847656 300.097656 885.242188 300.097656 L 872.871094 300.097656 C 869.828125 300.097656 868.390625 298.304688 868.390625 295.972656 L 868.390625 293.109375 C 868.390625 290.78125 869.828125 288.992188 872.878906 288.992188 L 889.003906 288.992188 C 899.039062 288.992188 906.925781 283.082031 906.925781 272.34375 C 906.925781 261.769531 899.035156 255.863281 889.003906 255.863281 L 855.132812 255.863281 C 840.980469 255.863281 834.164062 264.097656 834.164062 275.203125 L 834.164062 354.15625 C 834.164062 365.257812 840.976562 373.496094 855.132812 373.496094 L 889.003906 373.496094 L 889.003906 373.519531 L 888.992188 373.519531 M 581.097656 374.40625 C 610.128906 374.40625 625.542969 357.035156 625.542969 335.203125 L 625.542969 274.859375 C 625.542969 264.121094 619.273438 255.519531 607.800781 255.519531 C 596.328125 255.519531 590.058594 264.121094 590.058594 274.859375 L 590.058594 333.226562 C 590.058594 337.515625 587.550781 342.527344 581.097656 342.527344 C 574.644531 342.527344 572.484375 337.515625 572.484375 333.226562 L 572.484375 274.859375 C 572.484375 264.121094 566.039062 255.519531 554.5625 255.519531 C 543.09375 255.519531 536.824219 264.121094 536.824219 274.859375 L 536.824219 335.195312 C 536.832031 357.042969 552.066406 374.398438 581.097656 374.398438 L 581.097656 374.40625 M 706.910156 374.40625 C 716.230469 374.40625 724.304688 367.066406 724.304688 357.929688 C 724.304688 351.84375 721.792969 347.363281 718.566406 343.253906 C 713.371094 336.449219 708.710938 330.539062 706.386719 324.28125 C 705.847656 322.84375 706.203125 321.585938 707.824219 320.335938 C 713.378906 316.046875 719.832031 306.554688 719.832031 291.511719 C 719.832031 268.773438 701.007812 255.882812 678.242188 255.882812 L 657.984375 255.882812 C 643.832031 255.882812 637.015625 264.117188 637.015625 275.222656 L 637.015625 355.078125 C 637.015625 365.816406 643.292969 374.421875 654.761719 374.421875 C 666.234375 374.421875 672.507812 365.816406 672.507812 355.078125 L 672.507812 336.105469 C 672.507812 333.78125 673.582031 332.699219 675.371094 332.699219 C 677.527344 332.699219 678.238281 333.953125 678.59375 336.105469 C 680.207031 345.230469 684.503906 357.582031 689.34375 363.859375 C 695.441406 371.902344 701.167969 374.40625 706.910156 374.40625 M 677.515625 306.011719 L 675 306.011719 C 671.953125 306.011719 670.523438 304.226562 670.523438 301.894531 L 670.523438 289.730469 C 670.523438 287.402344 671.960938 285.605469 675 285.605469 L 677.511719 285.605469 C 685.042969 285.605469 687.367188 290.980469 687.367188 295.636719 C 687.367188 300.105469 685.042969 306.011719 677.511719 306.011719 L 677.515625 306.011719 M 809.957031 384.796875 C 791.5 384.796875 781.464844 398.574219 781.464844 415.949219 L 781.464844 454.617188 C 781.464844 457.832031 780.382812 459.273438 778.414062 459.273438 C 776.980469 459.273438 775.90625 458.386719 774.65625 455.875 L 749.746094 407.542969 C 740.242188 389.097656 730.386719 384.804688 719.101562 384.804688 C 700.28125 384.804688 689.882812 398.941406 689.882812 416.675781 L 689.882812 527.328125 C 689.882812 544.699219 699.917969 558.480469 718.375 558.480469 C 736.839844 558.480469 746.867188 544.691406 746.867188 527.328125 L 746.867188 488.65625 C 746.867188 485.441406 747.949219 483.992188 749.917969 483.992188 C 751.351562 483.992188 752.433594 484.886719 753.675781 487.398438 L 778.585938 535.738281 C 788.089844 554.183594 798.300781 558.480469 809.238281 558.480469 C 828.058594 558.480469 838.457031 544.335938 838.457031 526.609375 L 838.457031 415.953125 C 838.457031 398.582031 828.417969 384.800781 809.957031 384.800781 L 809.957031 384.796875 " fill-opacity="1" fill-rule="nonzero"/></svg>