<?xml version="1.0" encoding="UTF-8" standalone="no"?>
<!-- Created with Inkscape (http://www.inkscape.org/) -->

<svg
   xmlns:dc="http://purl.org/dc/elements/1.1/"
   xmlns:cc="http://creativecommons.org/ns#"
   xmlns:rdf="http://www.w3.org/1999/02/22-rdf-syntax-ns#"
   xmlns:svg="http://www.w3.org/2000/svg"
   xmlns="http://www.w3.org/2000/svg"
   xmlns:sodipodi="http://sodipodi.sourceforge.net/DTD/sodipodi-0.dtd"
   xmlns:inkscape="http://www.inkscape.org/namespaces/inkscape"
   width="3000"
   height="3000.2488"
   viewBox="0 0 3000 3000.249"
   id="svg40450"
   version="1.1"
   inkscape:version="0.91 r13725"
   sodipodi:docname="lider.svg">
  <title
     id="title5030">Lapiz Lopez</title>
  <defs
     id="defs40452" />
  <sodipodi:namedview
     id="base"
     pagecolor="#ffffff"
     bordercolor="#666666"
     borderopacity="1.0"
     inkscape:pageopacity="0.0"
     inkscape:pageshadow="2"
     inkscape:zoom="0.18512229"
     inkscape:cx="743.74316"
     inkscape:cy="1500.1029"
     inkscape:document-units="px"
     inkscape:current-layer="layer1"
     showgrid="false"
     inkscape:showpageshadow="false"
     fit-margin-top="20"
     fit-margin-bottom="20"
     fit-margin-left="20"
     fit-margin-right="20"
     units="px"
     inkscape:window-width="1366"
     inkscape:window-height="715"
     inkscape:window-x="-8"
     inkscape:window-y="-8"
     inkscape:window-maximized="1" />
  <metadata
     id="metadata40455">
    <rdf:RDF>
      <cc:Work
         rdf:about="">
        <dc:format>image/svg+xml</dc:format>
        <dc:type
           rdf:resource="http://purl.org/dc/dcmitype/StillImage" />
        <dc:title>Lapiz Lopez</dc:title>
      </cc:Work>
    </rdf:RDF>
  </metadata>
  <g
     inkscape:label="Capa 1"
     inkscape:groupmode="layer"
     id="layer1"
     transform="translate(-1457.2598,3020.1775)">
    <g
       id="g5018">
      <g
         transform="matrix(108.1172,0,0,-108.1172,1477.2597,-1520.053)"
         id="g47209">
        <path
           inkscape:connector-curvature="0"
           id="path47211"
           style="fill:#000000;fill-opacity:1;fill-rule:evenodd;stroke:none"
           d="m 0,0 c 0,7.561 6.129,13.69 13.689,13.69 7.56,0 13.689,-6.129 13.689,-13.69 0,-7.561 -6.129,-13.69 -13.689,-13.69 C 6.129,-13.69 0,-7.561 0,0" />
      </g>
      <g
         transform="matrix(108.1172,0,0,-108.1172,4093.3283,-1848.9347)"
         id="g47213">
        <path
           inkscape:connector-curvature="0"
           id="path47215"
           style="fill:#ed1d24;fill-opacity:1;fill-rule:nonzero;stroke:none"
           d="M 0,0 1.317,-0.179 0.3,-1.061 0,0 Z" />
      </g>
      <g
         transform="matrix(108.1172,0,0,-108.1172,2350.6737,-900.76848)"
         id="g47217">
        <path
           inkscape:connector-curvature="0"
           id="path47219"
           style="fill:#ffffff;fill-opacity:1;fill-rule:evenodd;stroke:none"
           d="M 0,0 C -0.399,1.478 0.292,2.911 1.544,3.201 2.795,3.491 4.134,2.528 4.533,1.05 4.933,-0.428 4.242,-1.861 2.99,-2.151 1.738,-2.441 0.399,-1.478 0,0 M -4.619,3.496 15.462,8.542 15.765,7.486 -4.316,2.44 -4.619,3.496 Z M -0.543,10.958 -1.02,5.795 C -1.029,5.698 -0.775,5.54 -0.268,5.683 0.026,5.765 0.219,5.781 0.464,5.956 l 0.088,0.661 1.57,0.392 0.36,-0.518 C 2.81,6.434 2.9,6.522 3.329,6.601 3.573,6.646 3.909,6.862 3.821,6.984 l -3.084,4.303 c -0.162,0.227 -0.442,0.227 -0.722,0.158 -0.287,-0.07 -0.532,-0.208 -0.558,-0.487 M 3.188,11.782 4.544,6.943 5.992,7.388 5.558,8.832 c 0.637,0.053 2.308,0.769 1.796,2.461 -0.315,1.039 -1.545,1.511 -2.639,1.2 C 4.228,12.354 3.66,12.224 3.188,11.782 M 7.523,13.095 8.929,8.082 10.428,8.436 8.999,13.528 7.523,13.095 Z M 0.585,9.43 0.424,7.891 1.475,8.154 0.585,9.43 Z m 4.228,1.694 0.328,-0.977 C 5.42,10.078 6.15,10.363 5.95,10.943 5.771,11.461 5.081,11.277 4.813,11.124 M 1.367,0.317 C 1.151,1.113 1.38,1.851 1.878,1.966 2.375,2.082 2.952,1.53 3.167,0.734 3.382,-0.062 3.154,-0.8 2.656,-0.916 2.159,-1.031 1.582,-0.479 1.367,0.317 M -3.621,4.881 C -4.226,4.79 -4.818,5.145 -4.98,5.717 l -1.133,4.028 1.553,0.402 1.083,-3.809 1.592,0.4 0.365,-1.313 C -2.341,5.116 -3.216,4.953 -3.58,4.893 L -3.621,4.881 Z M 4.145,3.509 5.501,-1.33 6.95,-0.885 6.515,0.559 C 7.152,0.612 8.823,1.328 8.31,3.02 7.996,4.059 6.766,4.531 5.673,4.22 5.186,4.081 4.617,3.952 4.145,3.509 M 5.77,2.851 6.098,1.874 C 6.377,1.805 7.107,2.09 6.907,2.671 6.728,3.188 6.038,3.004 5.77,2.851 m -7.142,-5.923 c -0.605,-0.091 -1.197,0.264 -1.359,0.837 l -1.133,4.027 1.553,0.402 1.083,-3.809 1.592,0.4 0.365,-1.313 C -0.092,-2.837 -0.967,-3 -1.331,-3.06 l -0.041,-0.012 z m 12.09,5.215 1.527,0.393 -0.318,1.12 -1.526,-0.392 C 10.198,3.213 9.994,3.315 9.94,3.508 9.885,3.7 10.006,3.898 10.209,3.949 L 11.83,4.366 11.479,5.579 8.881,4.926 C 8.422,4.81 8.166,4.36 8.289,3.926 8.297,3.899 8.303,3.875 8.314,3.846 L 9.256,0.556 C 9.379,0.122 9.85,-0.136 10.308,-0.019 L 10.254,-0.033 12.817,0.618 12.46,1.857 10.911,1.461 C 10.708,1.409 10.5,1.523 10.445,1.715 c -0.054,0.193 0.066,0.39 0.269,0.442 l 0.004,-0.014 z m 1.173,6.71 c -0.44,-0.111 -0.892,0.136 -1.01,0.552 -0.047,0.166 -0.034,0.334 0.027,0.482 l 1.312,2.964 -1.981,-0.506 -0.367,1.299 3.34,0.848 c 0.318,0.074 0.579,-0.021 0.796,-0.252 0.133,-0.14 0.233,-0.464 0.125,-0.735 l -1.368,-3.083 1.911,0.492 0.531,-1.224 -3.322,-0.842 0.006,0.005 z M 14.018,0.92 c -0.44,-0.112 -0.892,0.136 -1.01,0.552 -0.047,0.166 -0.033,0.333 0.027,0.482 l 1.313,2.964 -1.981,-0.507 -0.368,1.3 3.341,0.848 c 0.317,0.074 0.578,-0.021 0.796,-0.252 0.132,-0.14 0.232,-0.464 0.124,-0.736 L 14.892,2.488 16.803,2.98 17.334,1.757 14.012,0.914 14.018,0.92 Z" />
      </g>
      <g
         transform="matrix(108.1172,0,0,-108.1172,4159.4636,-895.14639)"
         id="g47221">
        <path
           inkscape:connector-curvature="0"
           id="path47223"
           style="fill:#ffffff;fill-opacity:1;fill-rule:evenodd;stroke:none"
           d="m 0,0 0,0.541 -0.104,0 -0.153,-0.458 -0.002,0 -0.154,0.458 -0.105,0 0,-0.541 0.071,0 0,0.319 c 0,0.016 -0.001,0.084 -0.001,0.134 l 0.001,0 0.152,-0.453 0.072,0 0.152,0.454 0.002,0 c 0,-0.051 -0.002,-0.119 -0.002,-0.135 L -0.071,0 0,0 Z" />
      </g>
      <g
         transform="matrix(108.1172,0,0,-108.1172,4179.941,-946.96696)"
         id="g47225">
        <path
           inkscape:connector-curvature="0"
           id="path47227"
           style="fill:#ffffff;fill-opacity:1;fill-rule:evenodd;stroke:none"
           d="m 0,0 0.182,0 c 0.036,0 0.097,-0.007 0.097,-0.09 0,-0.08 -0.056,-0.094 -0.11,-0.094 L 0,-0.184 0,0 Z m 0,-0.246 0.177,0 c 0.087,0 0.096,-0.052 0.096,-0.097 0,-0.02 0.002,-0.102 0.013,-0.135 l 0.09,0 0,0.012 c -0.023,0.013 -0.027,0.024 -0.027,0.054 l -0.005,0.098 c -0.003,0.075 -0.034,0.089 -0.065,0.102 0.035,0.02 0.075,0.049 0.075,0.129 0,0.114 -0.088,0.145 -0.177,0.145 l -0.25,0 0,-0.54 0.073,0 0,0.232 z" />
      </g>
    </g>
  </g>
</svg>
