<svg xmlns="http://www.w3.org/2000/svg" xmlns:xlink="http://www.w3.org/1999/xlink" width="1910" zoomAndPan="magnify" viewBox="0 0 1432.5 749.999995" height="1000" preserveAspectRatio="xMidYMid meet" version="1.0"><path fill="#1a1a1a" d="M 828.480469 614.941406 L 828.480469 561.503906 L 842.058594 561.503906 L 869.328125 596.371094 L 869.328125 561.503906 L 882.132812 561.503906 L 882.132812 614.941406 L 867.996094 614.941406 L 841.617188 580.738281 L 841.617188 614.941406 Z M 766.519531 588.332031 C 766.519531 594.375 768.292969 599.085938 771.894531 602.191406 C 775.441406 605.296875 779.929688 606.847656 785.527344 606.847656 C 790.847656 606.847656 795.558594 605.296875 798.941406 602.191406 C 802.710938 599.085938 804.261719 594.375 804.261719 588.113281 C 804.261719 581.792969 802.710938 577.359375 799.382812 574.308594 C 795.558594 571.148438 791.070312 569.820312 785.527344 569.820312 C 779.707031 569.820312 775.21875 571.371094 771.894531 574.308594 C 768.292969 577.359375 766.519531 582.015625 766.519531 588.332031 M 753.328125 588.5 C 753.328125 583.179688 754.433594 578.464844 756.429688 574.917969 L 762.527344 567.378906 L 770.953125 562.667969 C 775.21875 561.058594 779.929688 560.394531 785.304688 560.394531 C 795.117188 560.394531 802.929688 562.890625 808.804688 567.769531 C 814.347656 572.703125 817.507812 579.628906 817.507812 588.332031 C 817.507812 597.035156 814.570312 604.019531 808.804688 608.953125 C 802.929688 613.777344 795.117188 616.105469 785.527344 616.105469 C 775.664062 616.105469 767.792969 613.777344 762.027344 608.953125 C 756.429688 604.019531 753.328125 597.3125 753.328125 588.5 M 700.894531 570.925781 L 700.894531 605.738281 L 711.261719 605.738281 L 719.960938 605.296875 L 725.558594 603.078125 L 729.382812 597.921875 L 730.660156 588.332031 L 729.382812 578.964844 L 725.339844 573.808594 L 718.796875 571.371094 C 716.804688 571.148438 713.035156 570.925781 707.214844 570.925781 Z M 687.761719 561.503906 L 712.3125 561.503906 C 717.96875 561.503906 722.179688 561.949219 725.339844 562.667969 L 735.371094 567.601562 L 741.6875 576.304688 L 743.90625 588.722656 L 741.855469 600.140625 L 734.539062 609.5625 L 725.117188 613.777344 L 713.253906 614.941406 L 687.761719 614.941406 Z M 619.976562 614.941406 L 619.976562 561.503906 L 633.890625 561.503906 L 660.992188 596.371094 L 660.992188 561.503906 L 673.90625 561.503906 L 673.90625 614.941406 L 659.828125 614.941406 L 633.222656 580.738281 L 633.222656 614.941406 Z M 558.292969 588.332031 C 558.292969 594.375 559.789062 599.085938 563.390625 602.191406 C 567.214844 605.296875 571.648438 606.847656 577.300781 606.847656 C 582.457031 606.847656 587.277344 605.296875 590.714844 602.191406 C 594.261719 599.085938 596.089844 594.375 596.089844 588.113281 C 596.089844 581.792969 594.261719 577.359375 590.9375 574.308594 C 587.277344 571.148438 582.84375 569.820312 577.300781 569.820312 C 571.207031 569.820312 566.714844 571.371094 563.390625 574.308594 C 559.789062 577.359375 558.292969 582.015625 558.292969 588.332031 M 545.101562 588.5 C 545.101562 583.179688 546.152344 578.464844 547.929688 574.917969 L 554.246094 567.378906 L 562.726562 562.667969 C 566.714844 561.058594 571.648438 560.394531 576.804688 560.394531 C 586.667969 560.394531 594.484375 562.890625 600.523438 567.769531 C 606.121094 572.703125 609.058594 579.628906 609.058594 588.332031 C 609.058594 597.035156 606.34375 604.019531 600.523438 608.953125 C 594.484375 613.777344 586.667969 616.105469 577.300781 616.105469 C 567.4375 616.105469 559.566406 613.777344 553.527344 608.953125 C 547.929688 604.019531 545.101562 597.3125 545.101562 588.5 M 490.066406 614.941406 L 490.066406 561.503906 L 503.257812 561.503906 L 503.257812 605.738281 L 537.507812 605.738281 L 537.507812 614.941406 Z M 153.425781 255.957031 C 159.078125 254.851562 163.289062 253.519531 168.886719 252.132812 C 193.050781 240.9375 214.335938 223.308594 221.484375 196.425781 L 220.597656 185.226562 C 213.226562 166.046875 195.546875 153.296875 175.871094 149.304688 C 165.507812 148.363281 156.804688 145.925781 147.660156 147.921875 L 136.464844 155.792969 L 134.027344 160.449219 C 130.644531 190.882812 142.007812 219.925781 144.277344 250.359375 L 148.101562 254.851562 Z M 857.078125 315.660156 L 866.890625 314.71875 C 875.425781 312.058594 881.632812 303.851562 884.792969 295.757812 L 885.457031 291.046875 L 881.632812 284.617188 C 876.035156 280.792969 868.886719 280.347656 862.621094 284.339844 C 852.757812 289.996094 847.214844 300.472656 849.210938 309.839844 L 852.367188 314.496094 Z M 757.316406 325.25 L 758.648438 325.25 L 765.574219 316.492188 C 766.738281 289.273438 767.570312 261.558594 760.253906 234.949219 L 756.875 228.242188 L 756.429688 225.527344 C 750.832031 208.953125 739.859375 194.648438 721.515625 189.050781 L 712.09375 189.21875 L 700.285156 197.808594 C 695.132812 204.738281 697.847656 213.441406 695.132812 221.480469 L 697.847656 250.359375 L 705.386719 268.042969 L 706.769531 271.203125 C 714.144531 289.273438 727.832031 303.410156 742.074219 316.492188 L 751.71875 323.699219 Z M 244.042969 334.394531 L 246.035156 333.785156 C 257.839844 329.074219 265.710938 316.492188 268.425781 303.851562 C 268.207031 297.144531 265.988281 291.988281 263.496094 287.722656 L 250.914062 284.339844 C 245.207031 286.835938 239.164062 291.046875 237.558594 298.253906 C 236.058594 308.953125 232.902344 316.992188 234.230469 325.691406 L 238.5 333.34375 L 242.988281 334.671875 Z M 533.519531 341.160156 L 538.171875 341.160156 C 549.089844 336.003906 556.019531 325.25 557.792969 313.441406 C 557.570312 306.015625 557.570312 299.804688 554.46875 294.207031 L 551.308594 292.433594 C 545.542969 290.605469 538.171875 291.988281 532.574219 294.929688 L 525.648438 306.679688 C 525.648438 315.4375 522.542969 324.863281 525.203125 333.785156 L 528.308594 339.328125 Z M 1294.757812 342.488281 L 1297.863281 341.160156 L 1300.964844 338.71875 L 1302.960938 336.003906 C 1304.125 322.589844 1305.453125 306.679688 1295.421875 296.703125 L 1288.9375 295.539062 L 1285.78125 296.703125 L 1278.851562 303.410156 C 1274.140625 313.441406 1270.425781 324.417969 1268.820312 335.558594 L 1271.035156 339.328125 C 1278.1875 342.488281 1286.667969 341.160156 1294.757812 342.488281 M 92.902344 361.78125 L 99.386719 361.058594 L 108.476562 356.347656 L 112.742188 352.964844 L 118.949219 347.199219 C 139.179688 299.804688 117.898438 247.867188 105.816406 201.136719 L 101.546875 198.03125 L 96.890625 198.03125 C 79.878906 204.738281 75.664062 225.527344 70.953125 240.9375 C 62.195312 274.75 54.160156 313.832031 71.617188 344.984375 C 77.4375 350.75 81.707031 356.847656 88.191406 360.835938 Z M 404.824219 363.332031 L 414.191406 362.390625 C 422.28125 359.507812 432.148438 353.464844 434.144531 343.652344 C 435.472656 329.296875 425.441406 320.980469 416.464844 313.441406 C 409.3125 309.839844 402.386719 307.566406 395.847656 308.289062 L 386.757812 316.046875 C 381.824219 328.1875 384.097656 343.652344 391.191406 354.351562 L 399.226562 362.390625 Z M 99.386719 383.398438 C 119.894531 380.738281 137.128906 369.539062 147.160156 350.359375 C 150.820312 336.003906 157.746094 323.699219 155.53125 310.0625 C 151.207031 302.078125 152.8125 291.046875 157.027344 282.789062 L 167.777344 275.859375 C 196.210938 272.535156 226.417969 262.222656 243.597656 236.722656 C 252.964844 222.144531 252.964844 203.574219 249.640625 188.164062 C 240.496094 162.222656 219.265625 147.699219 197.097656 136.5 C 167.777344 129.351562 136.464844 132.730469 107.808594 126.023438 L 104.042969 128.742188 L 102.433594 133.398438 L 100.714844 144.59375 C 60.035156 190.382812 31.105469 254.851562 39.195312 319.207031 C 41.910156 330.40625 43.464844 340.273438 47.066406 349.863281 C 53.996094 366.4375 70.730469 378.519531 88.191406 381.902344 Z M 360.375 461.058594 C 373.789062 453.1875 369.296875 436.667969 372.457031 423.976562 C 369.296875 409.617188 372.457031 394.429688 367.523438 380.738281 L 363.699219 377.632812 L 356.105469 377.410156 C 341.585938 391.105469 345.355469 417.65625 342.859375 435.617188 C 344.46875 442.101562 343.136719 445.816406 344.46875 450.75 C 346.519531 455.019531 349.621094 459.0625 355 461.945312 Z M 690.863281 483.175781 C 706.550781 483.175781 715.695312 469.097656 725.558594 459.0625 C 736.3125 438.71875 749.945312 420.816406 755.988281 399.75 L 757.316406 390.160156 C 762.027344 383.175781 761.140625 374.253906 761.140625 365.769531 L 758.871094 362.390625 C 743.90625 356.125 728.664062 366.65625 713.976562 372.035156 C 686.488281 391.105469 658.054688 412.113281 646.195312 442.269531 C 647.96875 456.570312 652.679688 468.375 664.039062 476.25 C 673.238281 480.019531 682.164062 483.453125 690.863281 483.175781 M 350.507812 491.9375 C 356.105469 492.101562 361.484375 490.828125 366.859375 489.054688 C 381.378906 482.125 391.191406 468.375 393.851562 450.972656 C 394.570312 431.734375 393.851562 413.222656 394.570312 395.09375 C 396.066406 388.609375 403.714844 386.558594 409.480469 386.335938 C 430.542969 389.773438 450.273438 386.335938 469.890625 388.832031 C 494.113281 387.667969 515.394531 376.246094 538.171875 380.128906 C 559.179688 387.667969 584.671875 392.820312 605.234375 380.128906 L 611.5 375.859375 C 615.265625 372.035156 620.921875 365.050781 618.425781 358.34375 L 617.097656 354.574219 L 611.941406 351.191406 L 604.347656 352.132812 L 597.863281 355.460938 C 588.441406 358.34375 577.082031 365.050781 567.4375 359.0625 L 565.886719 354.574219 L 579.960938 336.890625 L 584.453125 315.4375 C 585.558594 307.789062 583.066406 301.136719 581.292969 294.207031 C 575.527344 282.125 563.835938 270.261719 548.371094 271.203125 C 533.519531 270.925781 516.226562 267.820312 507.523438 280.347656 L 503.535156 282.789062 C 489.84375 298.253906 487.628906 321.257812 492.339844 341.601562 L 496.328125 354.351562 L 492.949219 359.0625 L 479.757812 362.390625 L 471.054688 356.347656 C 468.617188 334.894531 462.132812 310.949219 442.402344 297.976562 C 422.726562 283.507812 399.726562 274.75 376.503906 282.789062 C 340.867188 297.753906 320.527344 340.273438 284.554688 354.574219 L 273.527344 353.464844 L 269.980469 350.359375 L 269.980469 347.199219 C 280.453125 330.847656 299.964844 318.765625 298.800781 297.753906 C 297.746094 290.214844 295.253906 285.0625 292.535156 279.90625 C 283.835938 268.042969 266.597656 263.109375 252.964844 264.9375 C 235.117188 268.042969 218.546875 271.644531 209.625 287.054688 C 201.976562 302.246094 206.074219 316.492188 205.578125 330.40625 L 202.917969 335.558594 L 198.429688 337.832031 C 192.828125 339.109375 186.789062 336.890625 181.191406 337.113281 L 178.085938 339.109375 L 176.703125 343.433594 L 178.917969 347.199219 C 190.167969 353.464844 204.191406 350.582031 215.441406 357.679688 L 219.265625 361.058594 C 231.957031 371.148438 248.253906 383.398438 266.597656 381.902344 C 286.550781 379.40625 301.957031 365.769531 320.527344 364.21875 L 323.242188 365.769531 L 324.351562 368.707031 L 322.078125 396.203125 C 315.371094 418.320312 323.464844 440.714844 325.679688 463.277344 L 327.453125 468.375 C 329.003906 474.695312 333.714844 480.019531 337.539062 485.671875 L 345.355469 490.828125 Z M 681.332031 506.015625 C 708.988281 507.402344 737.585938 497.976562 753.714844 475.363281 C 757.316406 465.050781 764.246094 457.679688 768.957031 450.027344 C 775.21875 434.230469 781.703125 418.320312 786.859375 401.359375 C 792.011719 390.160156 793.34375 375.859375 797.332031 363.109375 L 798.496094 359.507812 L 800.492188 356.847656 C 807.421875 352.964844 815.511719 354.574219 822.660156 357.511719 L 838.292969 372.257812 C 859.074219 382.957031 885.679688 395.09375 908.125 379.851562 C 921.535156 371.8125 935.394531 372.921875 946.3125 379.851562 C 953.738281 385.0625 963.769531 387.667969 971.863281 383.398438 C 981.894531 378.964844 987.433594 371.148438 995.527344 366.65625 L 1008.21875 367.988281 C 1013.59375 374.472656 1021.410156 379.40625 1027.726562 385.449219 L 1033.546875 387.667969 L 1041.972656 381.902344 C 1050.785156 363.996094 1053.832031 344.761719 1059.484375 324.863281 L 1068.851562 312.5 L 1079.828125 312.058594 C 1102.882812 322.144531 1104.878906 350.359375 1114.519531 370.261719 L 1116.960938 372.257812 L 1124.832031 372.921875 C 1139.960938 362 1132.3125 341.601562 1145.558594 329.296875 L 1150.046875 326.855469 L 1153.375 326.855469 C 1169.722656 338.71875 1173.933594 362 1191.671875 375.859375 C 1196.160156 378.519531 1201.257812 381.402344 1207.523438 383.398438 L 1221.65625 381.902344 C 1232.128906 377.410156 1235.953125 363.332031 1247.148438 359.0625 L 1250.253906 358.621094 C 1262.835938 363.996094 1262.835938 382.957031 1277.078125 387.277344 C 1286.667969 389.496094 1297.863281 391.105469 1307.671875 388.609375 L 1316.816406 383.398438 C 1327.625 365.550781 1349.792969 361.058594 1369.46875 360.171875 L 1373.015625 356.347656 L 1372.792969 351.914062 L 1369.691406 348.753906 C 1361.433594 344.984375 1352.230469 346.535156 1343.308594 344.761719 L 1335.050781 337.832031 C 1331.890625 314.496094 1333.886719 283.675781 1309.722656 271.644531 C 1296.03125 264.496094 1282.398438 270.925781 1271.535156 277.191406 C 1246.261719 297.976562 1245.542969 337.113281 1218.71875 356.847656 C 1214.226562 359.0625 1208.410156 359.0625 1203.089844 357.679688 L 1197.433594 353.464844 C 1194.109375 339.109375 1186.738281 324.863281 1184.023438 310.0625 L 1179.089844 297.753906 C 1176.429688 292.65625 1172.382812 289.050781 1169.058594 284.617188 L 1164.789062 282.125 C 1152.488281 278.132812 1138.1875 282.125 1129.875 291.988281 L 1123.445312 299.140625 L 1109.144531 299.804688 L 1105.097656 297.144531 C 1095.066406 286.390625 1077.386719 282.125 1063.03125 284.617188 C 1037.371094 292.433594 1040.199219 325.691406 1018.304688 337.832031 C 1008.882812 340.273438 1000.183594 331.511719 990.097656 333.34375 C 977.183594 336.890625 977.402344 352.355469 966.207031 357.679688 L 961.496094 357.679688 L 955.011719 355.238281 C 948.304688 347.644531 949.691406 336.890625 953.015625 327.6875 C 956.621094 321.703125 961.496094 317.65625 965.820312 314.496094 L 997.078125 308.289062 L 1011.378906 303.851562 L 1013.59375 302.078125 L 1014.480469 294.207031 L 1005.78125 287.054688 C 997.964844 283.675781 990.097656 287.054688 981.894531 285.0625 L 969.144531 285.503906 C 954.179688 290.605469 938.496094 300.472656 930.902344 316.046875 L 929.296875 322.589844 C 923.089844 342.488281 907.847656 360.171875 886.34375 363.996094 C 878.085938 363.332031 870.933594 361.058594 866.613281 354.574219 L 866.003906 350.359375 C 882.132812 334.894531 909.621094 328.851562 911.894531 300.472656 C 915.050781 291.046875 911.617188 282.125 905.410156 276.746094 C 891.332031 265.546875 872.488281 263.109375 857.910156 267.820312 C 841.617188 272.535156 830.863281 284.617188 822.660156 296.257812 L 816.398438 314.496094 L 811.6875 319.207031 L 806.976562 319.707031 L 802.042969 316.492188 L 799.828125 312.058594 C 797.554688 303.851562 799.828125 296.257812 799.828125 287.722656 C 794.449219 275.636719 796.058594 263.554688 790.847656 251.023438 C 789.960938 245.648438 790.40625 242.265625 789.960938 237.832031 C 778.601562 209.230469 765.574219 176.523438 732.710938 168.207031 C 714.144531 164.496094 694.246094 170.039062 681.332031 181.679688 C 677.285156 187.941406 674.625 193.707031 671.6875 199.140625 C 662.765625 228.851562 673.90625 260.003906 687.761719 287.054688 C 697.40625 303.632812 709.875 315.660156 723.121094 327.6875 L 724.175781 330.40625 L 723.953125 340.273438 L 712.09375 348.144531 L 707.382812 348.976562 L 662.765625 368.707031 L 655.78125 375.859375 L 646.195312 383.175781 C 631.171875 396.867188 626.460938 420.371094 626.296875 441.160156 C 628.734375 449.417969 628.292969 458.84375 629.84375 468.375 C 637.269531 488.832031 655.117188 501.082031 676.175781 505.574219 L 681.332031 506.015625 " fill-opacity="1" fill-rule="evenodd"/></svg>