<svg xmlns="http://www.w3.org/2000/svg" xmlns:xlink="http://www.w3.org/1999/xlink" width="1910" zoomAndPan="magnify" viewBox="0 0 1432.5 749.999995" height="1000" preserveAspectRatio="xMidYMid meet" version="1.0"><defs><clipPath id="a9987c69fa"><path d="M 346 328 L 458 328 L 458 484.785156 L 346 484.785156 Z M 346 328 " clip-rule="nonzero"/></clipPath><clipPath id="32547f68e7"><path d="M 12.730469 259.113281 L 307 259.113281 L 307 481 L 12.730469 481 Z M 12.730469 259.113281 " clip-rule="nonzero"/></clipPath><clipPath id="814e88c665"><path d="M 1396 444 L 1431.984375 444 L 1431.984375 481 L 1396 481 Z M 1396 444 " clip-rule="nonzero"/></clipPath></defs><g clip-path="url(#a9987c69fa)"><path fill="#e9202f" d="M 457.5625 438.179688 C 457.5625 447.785156 455.09375 455.910156 450.226562 462.832031 C 447.667969 466.378906 444.675781 469.511719 441.25 472.222656 C 437.824219 474.933594 434.089844 477.128906 430.054688 478.796875 C 421.449219 482.472656 411.433594 484.449219 400.363281 484.449219 C 397.1875 484.449219 393.449219 484.238281 388.792969 483.957031 C 382.648438 483.226562 376.582031 482.070312 370.597656 480.492188 C 362.464844 478.601562 354.613281 475.894531 347.039062 472.371094 L 347.039062 435 C 354.308594 439.46875 361.855469 443.398438 369.679688 446.796875 C 373.429688 448.414062 377.308594 449.617188 381.316406 450.402344 C 385.324219 451.191406 389.367188 451.542969 393.449219 451.460938 C 401.277344 451.460938 406.214844 450.257812 408.683594 447.574219 C 411.152344 444.890625 412.140625 442.628906 412.140625 440.15625 C 412.140625 435.988281 410.164062 432.527344 406.214844 429.84375 C 402.265625 427.15625 396.695312 424.191406 389.078125 421.222656 C 381.46875 418.074219 374.179688 414.308594 367.210938 409.921875 C 361.074219 405.808594 355.996094 400.652344 351.976562 394.449219 C 348.027344 388.304688 346.054688 380.886719 346.054688 372.550781 C 346.011719 368.648438 346.511719 364.816406 347.554688 361.058594 C 348.597656 357.300781 350.144531 353.757812 352.191406 350.4375 C 356.140625 343.796875 362.273438 338.640625 370.667969 334.683594 C 379.0625 330.730469 388.792969 328.820312 400.855469 328.820312 C 408.730469 328.707031 416.511719 329.507812 424.199219 331.222656 C 430.21875 332.578125 436.09375 334.394531 441.832031 336.664062 C 445.195312 337.964844 448.390625 339.589844 451.425781 341.539062 L 451.425781 377 C 444.9375 372.34375 438.046875 368.390625 430.757812 365.132812 C 426.9375 363.398438 422.976562 362.09375 418.875 361.226562 C 414.769531 360.355469 410.621094 359.9375 406.425781 359.976562 C 400.785156 359.976562 396.625 360.964844 394.226562 363.226562 C 391.828125 365.484375 390.277344 368.097656 390.277344 371.277344 C 390.269531 372.039062 390.347656 372.789062 390.519531 373.53125 C 390.6875 374.273438 390.941406 374.984375 391.277344 375.664062 C 391.613281 376.34375 392.027344 376.976562 392.511719 377.5625 C 393 378.144531 393.546875 378.664062 394.15625 379.121094 C 396.550781 381.378906 401.277344 384.066406 407.695312 386.960938 C 417.300781 391.367188 426.632812 396.289062 435.695312 401.726562 C 442.539062 406.175781 448.179688 411.121094 452.128906 416.984375 C 456.078125 422.847656 457.492188 429.773438 457.492188 438.179688 " fill-opacity="1" fill-rule="nonzero"/></g><path fill="#e9202f" d="M 639.597656 407.941406 C 639.667969 414.554688 638.90625 421.070312 637.304688 427.484375 C 635.703125 433.898438 633.316406 440.007812 630.148438 445.808594 C 623.871094 457.25 614.417969 466.4375 602.078125 473.21875 C 589.734375 480 574.429688 483.390625 556.515625 483.390625 C 538.597656 483.390625 523.082031 479.789062 510.457031 472.722656 C 497.832031 465.660156 488.664062 456.476562 482.597656 444.820312 C 479.542969 439.15625 477.226562 433.203125 475.652344 426.960938 C 474.074219 420.71875 473.289062 414.378906 473.289062 407.941406 C 473.316406 401.464844 474.121094 395.082031 475.695312 388.796875 C 477.269531 382.511719 479.570312 376.507812 482.597656 370.785156 C 488.59375 359.410156 497.832031 350.15625 510.457031 343.089844 C 523.082031 336.027344 538.316406 332.425781 556.445312 332.425781 C 570.054688 332.425781 582.1875 334.402344 592.835938 338.5 C 603.488281 342.597656 612.234375 347.964844 619.003906 354.746094 C 622.425781 358.140625 625.445312 361.863281 628.0625 365.914062 C 630.679688 369.964844 632.832031 374.25 634.519531 378.765625 C 637.972656 388.160156 639.691406 397.863281 639.667969 407.871094 M 594.601562 407.871094 C 594.703125 402.726562 593.878906 397.734375 592.132812 392.894531 C 590.554688 388.398438 588.132812 384.421875 584.867188 380.957031 C 581.457031 377.371094 577.414062 374.78125 572.734375 373.1875 C 567.441406 371.183594 561.960938 370.21875 556.300781 370.289062 C 544.382812 370.289062 535.214844 373.679688 528.441406 380.746094 C 521.671875 387.808594 518.285156 396.710938 518.285156 407.871094 C 518.285156 419.035156 521.671875 428.289062 528.441406 435.070312 C 535.214844 441.851562 544.453125 445.523438 556.300781 445.523438 C 564.554688 445.523438 571.324219 443.828125 577.179688 440.652344 C 579.941406 439.089844 582.433594 437.175781 584.652344 434.90625 C 586.871094 432.636719 588.730469 430.101562 590.226562 427.300781 C 593.402344 421.71875 594.601562 415.148438 594.601562 407.871094 " fill-opacity="1" fill-rule="nonzero"/><path fill="#e9202f" d="M 809.1875 410.554688 C 809.1875 425.53125 806.578125 437.542969 801.003906 446.445312 C 798.59375 450.714844 795.773438 454.695312 792.542969 458.382812 C 789.308594 462.074219 785.738281 465.394531 781.820312 468.34375 C 771.523438 476.46875 756.855469 480.5625 738.164062 480.5625 L 659.523438 480.5625 L 659.523438 335.039062 L 720.039062 335.039062 C 727.828125 334.945312 735.585938 335.417969 743.3125 336.449219 C 749.304688 337.21875 755.160156 338.582031 760.875 340.546875 C 765.5 341.957031 769.894531 343.886719 774.0625 346.339844 C 777.605469 348.34375 780.894531 350.699219 783.9375 353.40625 C 789.03125 357.515625 793.355469 362.320312 796.914062 367.816406 C 800.796875 373.792969 803.761719 380.199219 805.800781 387.03125 C 808.136719 394.699219 809.265625 402.539062 809.1875 410.554688 M 765.316406 408.929688 C 765.316406 396.992188 763.128906 387.457031 758.546875 380.886719 C 753.960938 374.316406 748.53125 369.652344 741.972656 367.394531 C 735.578125 365.167969 728.992188 364.035156 722.222656 364 L 703.25 364 L 703.25 451.601562 L 722.222656 451.601562 C 733.929688 451.601562 743.945312 448.914062 752.480469 443.335938 C 761.015625 437.753906 765.386719 426.238281 765.386719 408.929688 " fill-opacity="1" fill-rule="nonzero"/><path fill="#e9202f" d="M 829.464844 335.039062 L 873.191406 335.039062 L 873.191406 480.566406 L 829.464844 480.566406 Z M 829.464844 335.039062 " fill-opacity="1" fill-rule="nonzero"/><path fill="#e9202f" d="M 1065.03125 482.683594 L 1020.597656 482.683594 L 1020.597656 395.578125 L 980.117188 445.949219 L 976.449219 445.949219 L 935.964844 395.578125 L 935.964844 482.683594 L 895.054688 482.683594 L 895.054688 334.332031 L 935.117188 334.332031 L 980.042969 389.929688 L 1025.183594 334.332031 L 1065.03125 334.332031 Z M 1065.03125 482.683594 " fill-opacity="1" fill-rule="nonzero"/><path fill="#e9202f" d="M 1252.925781 482.683594 L 1209.546875 482.683594 L 1196.851562 450.894531 L 1129.003906 450.894531 L 1116.167969 482.683594 L 1072.792969 482.683594 L 1138.382812 334.332031 L 1187.824219 334.332031 Z M 1184.652344 426.875 L 1163.070312 373.257812 L 1141.207031 426.875 Z M 1184.652344 426.875 " fill-opacity="1" fill-rule="nonzero"/><path fill="#e9202f" d="M 1387 470.675781 C 1380.996094 473.578125 1374.789062 475.957031 1368.382812 477.808594 C 1362.085938 479.664062 1355.691406 481.050781 1349.195312 481.976562 C 1342.519531 482.769531 1335.820312 483.171875 1329.097656 483.179688 C 1316.261719 483.179688 1304.832031 481.484375 1294.675781 477.808594 C 1289.789062 476.140625 1285.121094 473.996094 1280.667969 471.378906 C 1276.214844 468.761719 1272.066406 465.726562 1268.230469 462.269531 C 1264.554688 458.925781 1261.304688 455.207031 1258.480469 451.113281 C 1255.660156 447.023438 1253.335938 442.664062 1251.511719 438.035156 C 1247.734375 428.265625 1245.875 418.140625 1245.941406 407.660156 C 1245.941406 395.015625 1248.128906 383.851562 1252.5 374.386719 C 1254.574219 369.746094 1257.164062 365.421875 1260.277344 361.40625 C 1263.390625 357.394531 1266.933594 353.808594 1270.910156 350.648438 C 1274.859375 347.433594 1279.097656 344.660156 1283.625 342.328125 C 1288.152344 339.996094 1292.871094 338.152344 1297.78125 336.804688 C 1308.140625 333.757812 1318.722656 332.226562 1329.519531 332.210938 C 1346.304688 332.210938 1365.207031 335.816406 1384.53125 343.375 L 1384.53125 382.441406 C 1378.960938 377.847656 1371.695312 374.175781 1364.644531 370.996094 C 1356.613281 367.859375 1348.292969 366.328125 1339.675781 366.402344 C 1331.320312 366.386719 1323.328125 368.082031 1315.695312 371.488281 C 1312.121094 373.097656 1308.8125 375.140625 1305.777344 377.621094 C 1302.738281 380.097656 1300.074219 382.929688 1297.78125 386.113281 C 1293.195312 392.402344 1291.011719 399.675781 1291.011719 408.15625 C 1290.972656 411.765625 1291.445312 415.308594 1292.425781 418.78125 C 1293.410156 422.253906 1294.867188 425.519531 1296.792969 428.570312 C 1298.84375 431.726562 1301.269531 434.5625 1304.070312 437.078125 C 1306.867188 439.59375 1309.945312 441.703125 1313.296875 443.40625 C 1320.351562 447.007812 1328.320312 448.703125 1337.066406 448.703125 C 1343.882812 448.71875 1350.582031 447.847656 1357.167969 446.089844 C 1362.699219 444.664062 1368.035156 442.710938 1373.175781 440.226562 C 1377.550781 438.035156 1381.921875 435.636719 1386.648438 432.738281 L 1386.648438 470.675781 Z M 1387 470.675781 " fill-opacity="1" fill-rule="nonzero"/><g clip-path="url(#32547f68e7)"><path fill="#000000" d="M 235.320312 281.347656 L 179.886719 281.347656 L 179.886719 259.449219 L 138.976562 259.449219 L 138.976562 281.347656 L 83.753906 281.347656 L 12.730469 362.800781 L 12.730469 480.566406 L 306.132812 480.566406 L 306.132812 362.800781 Z M 235.320312 281.347656 " fill-opacity="1" fill-rule="nonzero"/></g><path fill="#e9202f" d="M 34.59375 385.195312 L 148.148438 385.195312 L 148.148438 460.785156 L 34.59375 460.785156 Z M 34.59375 385.195312 " fill-opacity="1" fill-rule="nonzero"/><path fill="#ffffff" d="M 167.894531 385.195312 L 284.269531 385.195312 L 284.269531 460.785156 L 167.894531 460.785156 Z M 167.894531 385.195312 " fill-opacity="1" fill-rule="nonzero"/><path fill="#0a71b9" d="M 279.613281 364.003906 L 226.789062 303.25 L 116.199219 303.25 L 169.304688 364.003906 Z M 279.613281 364.003906 " fill-opacity="1" fill-rule="nonzero"/><path fill="#fddf00" d="M 143.070312 364.003906 L 91.652344 303.320312 L 38.613281 364.003906 Z M 143.070312 364.003906 " fill-opacity="1" fill-rule="nonzero"/><g clip-path="url(#814e88c665)"><path fill="#e9202f" d="M 1426.828125 449.679688 C 1426.035156 448.832031 1425.167969 448.074219 1424.21875 447.40625 C 1423.265625 446.742188 1422.257812 446.179688 1421.195312 445.722656 C 1420.128906 445.265625 1419.027344 444.921875 1417.890625 444.695312 C 1416.75 444.46875 1415.605469 444.363281 1414.445312 444.375 C 1413.285156 444.363281 1412.136719 444.46875 1411 444.695312 C 1409.863281 444.921875 1408.761719 445.265625 1407.695312 445.722656 C 1406.628906 446.179688 1405.621094 446.742188 1404.671875 447.40625 C 1403.722656 448.074219 1402.851562 448.832031 1402.058594 449.679688 C 1400.378906 451.363281 1399.089844 453.308594 1398.195312 455.515625 C 1397.296875 457.71875 1396.867188 460.011719 1396.894531 462.394531 C 1396.867188 464.777344 1397.296875 467.070312 1398.195312 469.277344 C 1399.089844 471.480469 1400.378906 473.425781 1402.058594 475.109375 C 1402.851562 475.957031 1403.722656 476.710938 1404.675781 477.378906 C 1405.625 478.042969 1406.632812 478.601562 1407.699219 479.058594 C 1408.761719 479.511719 1409.863281 479.855469 1411 480.082031 C 1412.136719 480.308594 1413.285156 480.414062 1414.445312 480.402344 C 1415.601562 480.414062 1416.75 480.304688 1417.886719 480.078125 C 1419.023438 479.851562 1420.125 479.511719 1421.191406 479.058594 C 1422.257812 478.601562 1423.265625 478.042969 1424.214844 477.375 C 1425.164062 476.710938 1426.035156 475.957031 1426.828125 475.109375 C 1428.507812 473.425781 1429.796875 471.480469 1430.691406 469.273438 C 1431.585938 467.070312 1432.015625 464.777344 1431.984375 462.394531 C 1432.015625 460.015625 1431.585938 457.722656 1430.691406 455.515625 C 1429.796875 453.308594 1428.507812 451.363281 1426.828125 449.679688 Z M 1429.542969 462.394531 C 1429.574219 464.441406 1429.203125 466.414062 1428.433594 468.3125 C 1427.664062 470.210938 1426.554688 471.882812 1425.109375 473.332031 C 1423.726562 474.804688 1422.109375 475.941406 1420.253906 476.734375 C 1418.398438 477.53125 1416.460938 477.917969 1414.445312 477.902344 C 1412.421875 477.925781 1410.480469 477.542969 1408.621094 476.753906 C 1406.757812 475.960938 1405.136719 474.828125 1403.75 473.351562 C 1402.308594 471.898438 1401.207031 470.222656 1400.441406 468.324219 C 1399.675781 466.425781 1399.308594 464.449219 1399.335938 462.402344 C 1399.308594 460.351562 1399.679688 458.378906 1400.453125 456.484375 C 1401.222656 454.585938 1402.332031 452.914062 1403.78125 451.464844 C 1405.160156 449.992188 1406.777344 448.855469 1408.632812 448.058594 C 1410.488281 447.265625 1412.425781 446.875 1414.445312 446.894531 C 1416.464844 446.875 1418.402344 447.257812 1420.261719 448.050781 C 1422.117188 448.84375 1423.738281 449.976562 1425.121094 451.453125 C 1426.566406 452.902344 1427.671875 454.578125 1428.4375 456.480469 C 1429.207031 458.378906 1429.574219 460.351562 1429.542969 462.402344 Z M 1429.542969 462.394531 " fill-opacity="1" fill-rule="nonzero"/></g><path fill="#e9202f" d="M 1421.265625 461.476562 C 1421.882812 460.457031 1422.195312 459.355469 1422.203125 458.164062 C 1422.199219 457.375 1422.050781 456.613281 1421.753906 455.882812 C 1421.460938 455.148438 1421.042969 454.496094 1420.503906 453.925781 C 1419.367188 452.660156 1417.679688 452.015625 1415.429688 452.015625 L 1407.125 452.015625 L 1407.125 473.074219 L 1410.648438 473.074219 L 1410.648438 464.457031 L 1415.191406 464.457031 L 1418.804688 473.074219 L 1422.695312 473.074219 L 1418.738281 463.597656 C 1419.824219 463.179688 1420.667969 462.476562 1421.265625 461.476562 Z M 1418.519531 458.113281 C 1418.546875 458.96875 1418.277344 459.71875 1417.703125 460.351562 C 1416.980469 461.039062 1416.125 461.339844 1415.136719 461.257812 L 1410.640625 461.257812 L 1410.640625 455.371094 L 1415.429688 455.371094 C 1416.269531 455.335938 1417.019531 455.570312 1417.6875 456.078125 C 1417.980469 456.332031 1418.199219 456.636719 1418.347656 456.996094 C 1418.492188 457.355469 1418.550781 457.726562 1418.519531 458.113281 Z M 1418.519531 458.113281 " fill-opacity="1" fill-rule="nonzero"/></svg>