<svg xmlns="http://www.w3.org/2000/svg" xmlns:xlink="http://www.w3.org/1999/xlink" width="1910" zoomAndPan="magnify" viewBox="0 0 1432.5 749.999995" height="1000" preserveAspectRatio="xMidYMid meet" version="1.0"><defs><clipPath id="11415dd0c8"><path d="M 82 126.066406 L 1348 126.066406 L 1348 586 L 82 586 Z M 82 126.066406 " clip-rule="nonzero"/></clipPath><clipPath id="e10e33b911"><path d="M 77 222 L 1351 222 L 1351 623.890625 L 77 623.890625 Z M 77 222 " clip-rule="nonzero"/></clipPath></defs><g clip-path="url(#11415dd0c8)"><path fill="#000000" d="M 104.382812 126.96875 C 103.574219 127.292969 98.582031 127.9375 93.429688 128.582031 C 87.308594 129.226562 83.765625 130.511719 83.121094 132.125 C 82.15625 134.539062 84.410156 146.460938 88.273438 159.988281 C 89.402344 164.015625 90.691406 169.011719 91.175781 171.265625 C 92.945312 179.960938 97.292969 197.84375 107.601562 238.109375 C 113.5625 261.144531 118.875 282.566406 119.519531 285.625 C 120.328125 288.6875 121.777344 294.484375 122.742188 298.511719 C 123.871094 302.539062 125.964844 310.109375 127.25 315.425781 C 131.921875 333.625 134.015625 341.195312 135.949219 348.445312 C 137.078125 352.472656 138.527344 358.269531 139.171875 361.332031 C 139.816406 364.390625 141.425781 370.996094 142.714844 375.828125 C 144.003906 380.660156 147.867188 394.835938 151.089844 407.238281 C 154.308594 419.640625 157.691406 432.363281 158.335938 435.425781 C 158.980469 438.484375 161.234375 446.859375 163.167969 453.949219 C 165.101562 461.035156 167.355469 469.410156 168 472.472656 C 168.644531 475.53125 170.09375 481.332031 171.0625 485.359375 C 172.1875 489.382812 174.121094 496.632812 175.25 501.464844 C 178.148438 513.222656 181.691406 527.398438 184.75 539.316406 C 186.039062 544.632812 187.648438 551.074219 188.132812 553.652344 C 189.421875 559.773438 198.28125 578.78125 201.5 582.324219 C 203.757812 585.0625 208.910156 585.222656 267.539062 585.222656 C 329.0625 585.222656 331.316406 585.0625 336.472656 581.839844 C 339.855469 579.90625 341.949219 577.167969 341.949219 575.234375 C 341.949219 573.464844 343.074219 568.632812 344.363281 564.445312 C 345.652344 560.417969 347.746094 552.363281 349.195312 546.566406 C 350.644531 540.765625 352.578125 533.519531 353.542969 530.457031 C 354.511719 527.398438 355.960938 522.242188 356.445312 519.183594 C 357.089844 516.121094 359.34375 507.746094 361.277344 500.660156 C 363.207031 493.570312 365.464844 485.195312 366.109375 482.136719 C 366.75 479.074219 369.007812 470.699219 370.941406 463.613281 C 372.871094 456.523438 375.128906 448.148438 375.769531 445.089844 C 376.414062 442.027344 378.671875 433.652344 380.601562 426.566406 C 382.535156 419.480469 384.789062 411.101562 385.433594 408.042969 C 386.078125 404.980469 388.335938 396.605469 390.265625 389.519531 C 392.199219 382.433594 394.453125 374.054688 395.097656 370.996094 C 395.742188 367.933594 398 359.558594 399.929688 352.472656 C 401.863281 345.386719 404.117188 337.007812 404.761719 333.949219 C 405.40625 330.886719 407.660156 322.511719 409.59375 315.425781 C 411.527344 308.339844 413.78125 299.960938 414.425781 296.902344 C 415.070312 293.839844 417.324219 285.464844 419.257812 278.378906 C 421.191406 271.292969 423.445312 262.914062 424.089844 259.855469 C 429.40625 234.886719 437.296875 215.882812 444.0625 211.371094 C 446.960938 209.4375 512.351562 209.117188 857.992188 208.792969 C 1176.574219 208.472656 1268.863281 207.988281 1270.796875 206.539062 C 1276.113281 202.03125 1277.238281 196.070312 1278.367188 167.078125 L 1279.332031 137.921875 L 1275.46875 133.734375 C 1273.210938 131.320312 1269.667969 128.742188 1267.414062 127.773438 C 1264.996094 126.96875 1088.957031 126.324219 815.957031 126.164062 C 381.410156 126.164062 368.363281 126.164062 362.886719 129.0625 C 355.476562 133.089844 355.15625 134.378906 339.695312 196.554688 C 338.40625 201.707031 336.148438 210.566406 334.699219 216.363281 C 333.25 222.164062 330.996094 231.023438 329.707031 236.015625 C 324.070312 258.886719 319.078125 278.699219 315.371094 292.875 C 311.183594 308.980469 308.125 321.222656 305.871094 330.242188 C 300.878906 350.699219 298.621094 359.238281 296.691406 366.164062 C 295.722656 370.191406 294.273438 375.988281 293.628906 379.050781 C 291.535156 388.550781 280.582031 431.398438 277.199219 442.996094 C 275.269531 449.4375 269.953125 456.363281 266.894531 456.363281 C 263.992188 456.363281 262.0625 451.53125 258.035156 434.621094 C 256.261719 427.53125 253.847656 417.707031 252.558594 412.875 C 251.269531 408.042969 249.175781 398.539062 247.726562 391.933594 C 246.277344 385.332031 244.023438 375.828125 242.894531 370.996094 C 241.765625 366.164062 239.511719 356.335938 238.0625 349.25 C 236.453125 342.164062 234.359375 332.015625 233.070312 326.699219 C 231.941406 321.386719 229.847656 311.558594 228.398438 304.957031 C 215.03125 242.460938 205.851562 204.445312 194.738281 165.628906 C 185.234375 132.125 185.234375 132.285156 179.273438 129.546875 C 174.925781 127.613281 166.230469 126.96875 139.816406 126.648438 C 121.132812 126.488281 105.347656 126.488281 104.382812 126.96875 Z M 1309.289062 212.175781 C 1306.714844 213.304688 1302.363281 216.527344 1299.464844 219.425781 C 1290.605469 228.125 1290.125 246.484375 1298.5 255.507812 C 1303.976562 261.464844 1313.316406 266.296875 1319.597656 266.296875 C 1327.007812 266.296875 1336.671875 260.660156 1342.148438 253.089844 C 1350.199219 241.976562 1348.589844 226.351562 1338.28125 217.492188 C 1329.90625 210.40625 1318.308594 208.3125 1309.289062 212.175781 Z M 1332.644531 220.390625 C 1337.636719 224.097656 1342.148438 232.957031 1342.148438 238.59375 C 1342.148438 242.941406 1336.832031 253.414062 1334.578125 253.414062 C 1333.773438 253.414062 1331.195312 255.183594 1328.617188 257.4375 C 1322.660156 262.59375 1319.4375 262.433594 1310.578125 257.277344 C 1300.753906 251.480469 1298.660156 247.9375 1298.660156 237.304688 C 1298.660156 229.25 1299.144531 227.800781 1303.976562 223.292969 C 1306.714844 220.554688 1310.578125 217.976562 1312.351562 217.492188 C 1318.148438 215.882812 1328.777344 217.492188 1332.644531 220.390625 Z M 1332.644531 220.390625 " fill-opacity="1" fill-rule="nonzero"/></g><g clip-path="url(#e10e33b911)"><path fill="#000000" d="M 1307.679688 227.800781 C 1306.070312 236.015625 1306.550781 249.386719 1308.644531 251.480469 C 1311.222656 254.054688 1316.375 250.996094 1316.375 246.96875 C 1316.375 242.136719 1322.175781 242.78125 1323.464844 247.773438 C 1324.269531 250.835938 1325.558594 251.800781 1328.617188 251.800781 C 1332.484375 251.800781 1332.804688 251.316406 1331.839844 246.484375 C 1330.550781 239.882812 1330.550781 239.078125 1331.839844 233.601562 C 1333.609375 226.351562 1329.101562 222.808594 1317.988281 222.808594 C 1308.96875 222.808594 1308.644531 222.96875 1307.679688 227.800781 Z M 1322.820312 232.632812 C 1322.820312 234.566406 1321.691406 235.695312 1319.597656 235.695312 C 1316.054688 235.695312 1314.925781 230.054688 1318.472656 228.769531 C 1321.371094 227.800781 1322.820312 229.089844 1322.820312 232.632812 Z M 1132.765625 250.996094 C 1096.527344 255.828125 1064.957031 269.839844 1049.335938 288.203125 C 1025.175781 316.554688 1021.148438 359.882812 1039.511719 394.996094 C 1049.335938 413.679688 1074.945312 435.425781 1093.304688 440.417969 C 1096.042969 441.0625 1103.292969 443.15625 1109.410156 445.089844 C 1115.855469 447.023438 1129.382812 449.117188 1140.820312 449.921875 C 1161.757812 451.371094 1180.117188 454.914062 1187.527344 458.78125 C 1195.097656 462.808594 1201.539062 471.667969 1203.792969 481.167969 C 1205.566406 489.0625 1205.40625 490.835938 1202.828125 496.632812 C 1199.769531 503.398438 1192.679688 510 1182.695312 515.316406 C 1178.023438 517.734375 1173.515625 518.378906 1157.730469 518.214844 C 1135.183594 518.214844 1128.417969 516.285156 1094.273438 500.335938 C 1081.707031 494.539062 1071.402344 490.511719 1065.601562 489.0625 C 1061.09375 487.933594 1052.554688 496.953125 1039.511719 516.121094 C 1026.304688 535.773438 1020.828125 547.53125 1023.082031 552.363281 C 1025.496094 557.839844 1063.027344 580.390625 1069.789062 580.390625 C 1070.59375 580.390625 1073.332031 581.355469 1075.910156 582.644531 C 1086.058594 587.800781 1105.386719 594.726562 1117.464844 597.464844 C 1136.792969 601.8125 1181.890625 601.492188 1199.605469 596.820312 C 1230.371094 588.765625 1250.339844 577.8125 1269.667969 558 C 1284.808594 542.539062 1291.894531 527.558594 1295.277344 502.429688 C 1298.015625 483.101562 1293.507812 454.269531 1285.292969 439.773438 C 1282.714844 435.101562 1274.5 423.988281 1271.28125 420.765625 C 1267.414062 416.902344 1253.402344 407.558594 1247.121094 404.660156 C 1235.039062 399.023438 1230.207031 397.410156 1199.605469 389.519531 C 1176.253906 383.398438 1169.808594 381.625 1161.273438 378.886719 C 1148.871094 374.699219 1134.699219 367.453125 1129.222656 362.457031 C 1125.519531 358.914062 1124.710938 356.820312 1124.710938 350.539062 C 1124.710938 339.265625 1132.925781 328.148438 1145.652344 322.191406 C 1151.289062 319.613281 1156.121094 318.808594 1167.394531 318.808594 C 1184.628906 318.808594 1193.324219 321.546875 1222.636719 335.71875 C 1235.203125 341.839844 1243.578125 345.0625 1245.507812 344.417969 C 1250.179688 342.96875 1267.734375 324.445312 1273.695312 314.457031 C 1279.332031 305.277344 1282.070312 294.96875 1280.300781 288.363281 C 1279.332031 284.015625 1268.378906 276.445312 1251.46875 268.714844 C 1230.046875 258.886719 1213.941406 254.21875 1189.136719 250.835938 C 1169.164062 248.257812 1153.703125 248.257812 1132.765625 250.996094 Z M 498.339844 266.460938 C 483.523438 267.910156 479.65625 270.003906 478.046875 278.21875 C 477.402344 280.957031 474.824219 289.652344 472.246094 297.707031 C 469.671875 305.601562 466.449219 316.230469 465 321.0625 C 463.550781 325.894531 461.457031 332.820312 460.328125 336.363281 C 459.203125 339.910156 457.109375 347.15625 455.496094 352.472656 C 453.886719 357.789062 451.792969 365.035156 450.664062 368.578125 C 449.539062 372.125 447.285156 379.371094 445.832031 384.6875 C 444.222656 390.003906 442.128906 397.25 441 400.792969 C 439.875 404.335938 437.78125 411.90625 436.167969 417.707031 C 434.558594 423.503906 432.464844 431.074219 431.339844 434.621094 C 430.210938 438.164062 427.957031 445.734375 426.507812 451.53125 C 425.054688 457.332031 422.800781 464.902344 421.675781 468.445312 C 420.546875 471.988281 418.453125 479.558594 416.84375 485.359375 C 415.230469 491.15625 413.136719 499.046875 412.011719 503.074219 C 410.882812 507.101562 408.789062 514.832031 407.339844 520.308594 C 405.890625 525.949219 403.636719 534.96875 402.1875 540.445312 C 400.734375 546.082031 398.480469 553.976562 397.191406 558.164062 C 395.902344 562.191406 394.777344 568.792969 394.617188 572.5 L 394.292969 579.425781 L 406.375 581.679688 C 422.15625 584.578125 461.457031 584.738281 469.832031 581.839844 C 475.792969 579.746094 476.273438 578.941406 479.335938 568.308594 C 489.804688 531.585938 489 533.195312 496.570312 528.203125 C 507.199219 520.953125 520.082031 519.023438 549.71875 520.148438 C 563.410156 520.632812 577.421875 521.761719 580.644531 522.566406 C 589.664062 524.820312 595.460938 531.746094 599.488281 545.277344 C 601.421875 551.71875 604.480469 561.867188 606.253906 567.828125 C 608.988281 576.847656 610.277344 578.941406 613.5 579.746094 C 619.296875 581.195312 683.402344 581.355469 688.394531 580.070312 C 690.808594 579.425781 693.066406 577.8125 693.546875 576.363281 C 694.191406 575.074219 691.617188 562.671875 687.910156 548.660156 C 684.367188 534.644531 680.824219 520.308594 680.179688 516.765625 C 678.890625 510.484375 675.671875 497.277344 663.429688 448.632812 C 661.980469 443.15625 659.886719 434.457031 658.597656 429.304688 C 657.308594 424.3125 655.054688 415.613281 653.765625 409.976562 C 652.316406 404.5 650.222656 395.800781 648.933594 390.648438 C 639.269531 352.148438 637.820312 346.511719 626.867188 312.203125 C 615.109375 275.480469 612.855469 270.003906 609.472656 268.714844 C 601.097656 265.332031 525.078125 263.882812 498.339844 266.460938 Z M 541.988281 372.125 C 544.082031 374.699219 545.53125 378.242188 551.652344 393.546875 C 555.679688 403.855469 558.417969 412.875 560.347656 422.539062 C 562.121094 432.042969 562.121094 433.332031 559.542969 435.90625 C 556.324219 439.289062 540.859375 441.867188 531.679688 440.578125 C 528.457031 440.257812 524.433594 438.484375 522.984375 436.875 C 520.566406 434.136719 520.566406 433.167969 522.984375 423.503906 C 524.433594 417.707031 525.558594 410.941406 525.558594 408.527344 C 525.722656 399.183594 535.222656 369.386719 538.285156 369.386719 C 538.929688 369.386719 540.699219 370.671875 541.988281 372.125 Z M 928.214844 266.296875 C 922.417969 266.941406 915.8125 268.390625 913.398438 269.519531 C 909.210938 271.453125 908.886719 272.417969 908.886719 281.4375 C 908.886719 286.914062 908.082031 306.40625 907.117188 325.089844 C 906.3125 343.613281 905.34375 367.128906 904.863281 377.117188 C 904.539062 387.101562 903.734375 395.960938 903.25 396.765625 C 901.15625 400.148438 894.714844 398.378906 892.300781 393.867188 C 891.171875 391.453125 886.339844 382.59375 881.507812 374.21875 C 876.835938 365.839844 870.878906 355.050781 868.300781 350.21875 C 865.5625 345.546875 861.375 337.976562 858.796875 333.625 C 856.222656 329.277344 854.128906 325.574219 854.128906 325.25 C 854.128906 324.929688 848.652344 315.101562 842.046875 303.34375 C 835.445312 291.585938 829.96875 281.4375 829.96875 280.792969 C 829.96875 280.3125 827.230469 276.769531 823.847656 273.0625 L 817.566406 266.296875 L 783.902344 266.296875 C 751.691406 266.296875 728.660156 268.554688 725.277344 272.257812 C 721.574219 275.960938 719.960938 318.808594 719.316406 438.644531 C 718.511719 563.800781 718.671875 565.25 721.894531 572.820312 L 725.277344 580.550781 L 760.710938 580.070312 C 794.371094 579.585938 796.304688 579.425781 799.527344 576.203125 C 802.910156 572.820312 802.910156 571.046875 804.199219 509.679688 C 805.484375 444.929688 805.808594 441.867188 812.089844 441.867188 C 814.988281 441.867188 835.28125 474.886719 850.261719 503.882812 C 882.957031 567.34375 888.433594 576.847656 894.070312 578.296875 C 896.488281 578.941406 918.714844 579.585938 943.679688 579.585938 C 977.5 579.585938 989.582031 579.101562 991.351562 577.652344 C 993.125 576.042969 993.929688 570.082031 994.894531 551.71875 C 996.183594 521.4375 995.863281 300.445312 994.574219 283.210938 L 993.445312 270.324219 L 985.394531 268.554688 C 974.601562 266.136719 941.101562 264.847656 928.214844 266.296875 Z M 714.003906 755.15625 C 711.746094 755.476562 698.378906 756.605469 684.207031 757.570312 C 647.644531 760.308594 608.347656 765.945312 573.878906 773.839844 C 565.503906 775.613281 555.679688 777.867188 552.136719 778.671875 C 548.589844 779.476562 540.699219 781.570312 534.417969 783.34375 C 528.296875 785.113281 519.601562 787.691406 515.089844 788.980469 C 495.925781 794.296875 468.542969 803.960938 439.390625 815.878906 C 420.867188 823.449219 384.953125 841.007812 337.921875 865.492188 C 280.101562 895.449219 232.746094 918.160156 216.320312 923.476562 C 214.066406 924.28125 208.265625 926.375 203.433594 928.308594 C 176.214844 938.941406 121.453125 952.46875 105.992188 952.46875 C 99.710938 952.46875 97.777344 953.273438 92.460938 958.429688 C 87.628906 963.261719 85.375 967.773438 81.671875 979.046875 C 79.09375 986.941406 77 997.25 77 1001.597656 C 77 1009.972656 77.804688 1011.582031 130.472656 1099.851562 C 131.601562 1101.625 133.050781 1104.199219 133.695312 1105.488281 C 134.339844 1106.777344 136.59375 1110.484375 138.6875 1113.542969 C 140.78125 1116.601562 143.195312 1120.628906 144.003906 1122.402344 C 144.808594 1124.171875 147.0625 1128.199219 148.835938 1131.261719 C 177.34375 1178.9375 183.945312 1189.246094 188.457031 1193.433594 L 193.933594 1198.429688 L 247.40625 1199.394531 C 301.84375 1200.359375 313.277344 1201.488281 324.554688 1207.125 C 334.863281 1212.441406 336.3125 1216.953125 336.3125 1246.429688 C 336.3125 1276.226562 336.148438 1275.742188 352.417969 1287.824219 C 382.054688 1309.890625 421.351562 1317.300781 469.1875 1310.214844 C 490.769531 1306.992188 508.648438 1299.742188 521.210938 1288.789062 C 528.78125 1282.347656 535.222656 1272.359375 535.222656 1267.207031 C 535.222656 1260.441406 540.699219 1242.882812 543.921875 1239.339844 C 549.398438 1233.21875 553.261719 1232.574219 571.140625 1235.152344 C 607.539062 1240.148438 634.597656 1242.5625 675.347656 1243.851562 C 728.015625 1245.785156 716.578125 1245.785156 769.570312 1243.851562 C 825.457031 1241.917969 865.5625 1238.050781 914.527344 1230.160156 C 939.8125 1225.972656 948.832031 1224.199219 1003.59375 1211.796875 C 1012.613281 1209.703125 1019.214844 1210.671875 1023.566406 1214.535156 C 1025.015625 1215.824219 1028.71875 1222.105469 1031.941406 1228.386719 C 1044.019531 1253.03125 1056.746094 1260.121094 1088.152344 1260.121094 C 1132.605469 1260.121094 1178.667969 1241.433594 1212.492188 1209.863281 C 1225.859375 1197.460938 1230.851562 1190.054688 1236.972656 1173.625 C 1240.515625 1163.957031 1241.160156 1159.769531 1241.484375 1138.832031 C 1241.964844 1114.992188 1241.964844 1114.992188 1246.476562 1110.160156 C 1249.054688 1107.421875 1256.140625 1101.945312 1262.097656 1097.917969 C 1279.011719 1086.644531 1322.015625 1043.152344 1332.644531 1026.5625 C 1341.984375 1012.066406 1344.242188 1006.914062 1347.785156 992.738281 C 1356.804688 956.980469 1339.730469 934.269531 1292.21875 919.289062 C 1242.289062 903.34375 1210.558594 892.066406 1169.003906 875.15625 C 1146.777344 866.132812 1094.753906 844.066406 1083.640625 838.914062 C 1077.519531 836.015625 1065.121094 830.539062 1056.261719 826.832031 C 1047.402344 823.128906 1039.511719 819.585938 1038.542969 818.941406 C 1037.738281 818.296875 1030.492188 814.914062 1022.4375 811.691406 C 1014.546875 808.308594 1007.296875 804.925781 1006.332031 804.28125 C 1005.527344 803.636719 1003.269531 802.671875 1001.5 802.1875 C 999.726562 801.707031 994.25 799.773438 989.421875 797.839844 C 969.125 790.109375 952.699219 785.113281 917.746094 776.253906 C 890.367188 769.492188 844.300781 761.921875 807.417969 758.214844 C 785.191406 755.960938 722.539062 754.027344 714.003906 755.15625 Z M 875.226562 786.5625 C 877.804688 788.015625 878.285156 790.109375 878.285156 800.417969 C 878.285156 814.589844 877.964844 814.914062 857.832031 816.363281 C 850.90625 816.847656 835.121094 818.296875 822.71875 819.585938 C 799.367188 822 768.601562 825.0625 724.472656 829.25 C 654.25 836.015625 624.289062 839.074219 593.527344 842.457031 C 588.855469 842.941406 583.703125 844.550781 582.09375 846 C 579.03125 848.738281 577.742188 855.34375 566.628906 926.699219 C 565.179688 936.039062 562.925781 949.410156 561.636719 956.496094 C 560.347656 963.582031 559.382812 971.316406 559.382812 973.730469 C 559.382812 980.335938 554.390625 982.589844 535.546875 984.523438 C 509.613281 987.261719 508.324219 987.101562 505.265625 981.140625 C 503.816406 978.402344 502.042969 974.214844 501.398438 971.960938 C 500.59375 969.703125 498.5 963.746094 496.570312 958.914062 C 494.636719 954.082031 492.21875 947.15625 490.929688 943.609375 C 488.355469 935.71875 481.75 917.679688 477.242188 905.757812 C 475.308594 900.925781 473.214844 895.128906 472.410156 892.871094 C 471.605469 890.617188 468.382812 881.597656 465.160156 872.738281 C 453.402344 839.878906 450.988281 832.148438 451.953125 829.730469 C 452.921875 826.992188 478.367188 822.484375 482.71875 824.09375 C 488.355469 826.347656 493.667969 839.71875 516.058594 908.980469 C 522.5 929.273438 525.722656 936.363281 527.976562 936.363281 C 529.265625 936.363281 530.875 930.082031 532.644531 918.964844 C 534.097656 909.464844 536.351562 895.128906 537.640625 887.234375 C 538.765625 879.179688 541.023438 864.363281 542.472656 854.214844 C 543.921875 844.066406 545.855469 831.664062 546.980469 826.832031 L 548.914062 817.972656 L 567.4375 815.234375 C 577.582031 813.785156 589.664062 812.496094 594.011719 812.496094 C 598.519531 812.496094 611.082031 811.371094 622.195312 810.082031 C 633.3125 808.632812 653.925781 806.539062 668.101562 805.085938 C 693.871094 802.671875 719.15625 800.09375 764.738281 795.585938 C 778.105469 794.136719 800.171875 791.878906 813.863281 790.589844 C 827.550781 789.140625 844.625 787.53125 851.710938 786.726562 C 870.234375 784.792969 871.683594 784.792969 875.226562 786.566406 Z M 867.171875 834.242188 C 880.058594 837.945312 883.117188 840.363281 883.117188 846.96875 C 883.117188 850.832031 881.667969 853.894531 877.804688 858.082031 L 872.488281 863.558594 L 859.925781 859.53125 C 852.839844 857.277344 845.914062 855.988281 843.660156 856.46875 C 837.539062 858.082031 829.808594 865.492188 830.289062 869.355469 C 830.933594 873.707031 843.015625 879.824219 851.066406 879.988281 C 859.765625 879.988281 878.929688 885.464844 884.730469 889.652344 C 890.207031 893.515625 895.359375 903.824219 896.96875 913.8125 C 899.226562 928.148438 888.113281 944.898438 870.394531 953.4375 C 862.503906 957.300781 859.441406 957.785156 845.269531 957.945312 C 832.546875 957.945312 827.070312 957.300781 818.695312 954.242188 C 805.808594 949.730469 800.976562 946.832031 800.976562 943.128906 C 800.976562 939.261719 810.320312 923.476562 812.734375 923.316406 C 817.886719 922.832031 824.8125 923.960938 828.679688 926.054688 C 831.257812 927.34375 837.859375 928.308594 844.304688 928.308594 C 854.289062 928.308594 856.058594 927.824219 859.765625 924.121094 C 865.402344 918.484375 864.597656 912.683594 857.511719 907.851562 C 852.839844 904.632812 849.941406 904.148438 837.699219 904.148438 C 821.914062 904.148438 814.34375 901.894531 806.9375 894.804688 C 795.5 884.015625 792.441406 864.847656 800.171875 852.605469 C 810.800781 835.851562 842.691406 827.15625 867.171875 834.242188 Z M 783.582031 868.710938 C 787.929688 903.179688 791.636719 944.738281 791.152344 950.859375 C 790.507812 956.011719 790.023438 956.496094 784.066406 957.625 C 780.523438 958.269531 772.46875 958.75 766.1875 958.75 C 756.363281 958.914062 754.429688 958.429688 751.53125 955.207031 C 747.988281 951.179688 738.164062 936.683594 738.164062 935.394531 C 738.164062 933.785156 723.503906 915.421875 722.054688 915.421875 C 719.640625 915.421875 718.996094 920.09375 720.445312 929.4375 C 721.089844 934.589844 722.21875 943.609375 722.863281 949.570312 C 723.828125 959.558594 723.667969 960.523438 720.125 962.617188 C 718.03125 963.90625 711.910156 965.515625 706.433594 966 C 694.191406 967.289062 693.710938 966.804688 691.453125 945.867188 C 690.648438 937.488281 688.714844 920.898438 687.425781 908.820312 C 686.140625 896.738281 685.011719 879.988281 685.011719 871.449219 L 685.011719 855.988281 L 693.386719 853.410156 C 697.898438 852.121094 705.464844 850.992188 710.136719 850.992188 C 719.800781 850.992188 719.15625 850.347656 738.804688 878.859375 C 745.089844 888.039062 750.402344 894.160156 751.371094 893.515625 C 752.65625 892.710938 752.820312 885.625 752.175781 871.128906 C 751.53125 855.824219 751.691406 849.382812 753.140625 847.933594 C 754.429688 846.644531 759.582031 846.160156 767.957031 846.484375 L 780.84375 846.964844 Z M 644.101562 860.335938 C 645.875 861.625 656.824219 886.269531 660.207031 896.898438 C 661.335938 900.441406 663.429688 906.242188 664.71875 909.785156 C 672.449219 930.886719 683.402344 962.777344 683.402344 964.550781 C 683.402344 969.867188 658.4375 972.441406 653.765625 967.609375 C 652.316406 966.320312 651.1875 963.90625 651.1875 962.296875 C 651.1875 960.683594 649.253906 957.300781 647 954.886719 C 642.972656 950.535156 642.652344 950.535156 629.765625 951.503906 C 617.847656 952.46875 616.078125 953.113281 612.210938 957.464844 C 609.152344 960.683594 607.703125 963.90625 607.703125 967.609375 C 607.703125 974.859375 605.125 976.46875 592.5625 977.757812 C 579.675781 978.886719 576.9375 977.273438 578.066406 968.898438 C 579.835938 955.207031 583.863281 932.011719 590.949219 895.609375 C 597.714844 860.980469 596.910156 862.109375 611.890625 860.65625 C 627.511719 859.046875 642.007812 858.886719 644.101562 860.335938 Z M 1255.816406 920.417969 C 1261.292969 922.992188 1261.9375 925.730469 1259.039062 933.625 C 1257.75 937.328125 1255.976562 942.484375 1255.171875 945.222656 C 1250.339844 961.488281 1248.410156 965.355469 1244.382812 965.355469 C 1237.9375 965.355469 1229.402344 961.007812 1229.402344 957.625 C 1229.402344 953.4375 1236.652344 929.757812 1239.710938 923.636719 C 1242.609375 918.160156 1248.246094 917.035156 1255.816406 920.417969 Z M 1286.582031 932.011719 L 1290.769531 935.558594 L 1287.386719 946.832031 C 1282.875 961.328125 1278.203125 971.316406 1274.984375 973.085938 C 1272.730469 974.535156 1264.996094 972.605469 1260.328125 969.542969 C 1256.785156 967.289062 1259.199219 956.65625 1268.703125 934.269531 C 1270.957031 929.113281 1271.921875 928.308594 1276.917969 928.308594 C 1280.296875 928.308594 1284.003906 929.757812 1286.582031 932.011719 Z M 1215.550781 933.464844 C 1218.289062 937.972656 1221.351562 956.820312 1221.351562 969.703125 C 1221.351562 983.71875 1226.019531 1007.234375 1229.082031 1008.363281 C 1230.371094 1009.007812 1235.363281 1007.394531 1239.871094 1004.820312 C 1244.542969 1002.402344 1249.535156 1000.792969 1250.824219 1001.273438 C 1253.882812 1002.402344 1256.785156 1012.066406 1256.785156 1021.25 L 1256.785156 1028.175781 L 1233.914062 1043.152344 C 1202.988281 1063.289062 1199.445312 1065.058594 1196.386719 1062 C 1194.128906 1059.582031 1193.648438 1056.199219 1189.136719 1005.625 C 1188.171875 994.511719 1186.398438 975.019531 1185.273438 962.132812 C 1183.984375 948.28125 1183.660156 937.652344 1184.464844 936.039062 C 1185.273438 934.429688 1189.296875 932.820312 1194.292969 931.851562 C 1208.949219 929.273438 1212.972656 929.597656 1215.550781 933.464844 Z M 1154.832031 953.273438 C 1155.796875 961.167969 1157.085938 975.664062 1157.570312 985.488281 C 1158.535156 1001.917969 1162.5625 1036.871094 1164.332031 1045.730469 C 1165.140625 1049.597656 1167.394531 1049.757812 1179.796875 1046.699219 C 1183.660156 1045.730469 1184.144531 1046.054688 1185.753906 1051.691406 C 1186.722656 1055.234375 1187.527344 1061.03125 1187.527344 1064.738281 C 1187.527344 1071.503906 1187.527344 1071.503906 1174.320312 1079.394531 C 1157.570312 1089.222656 1140.820312 1097.4375 1137.273438 1097.4375 C 1133.410156 1097.4375 1131.636719 1093.410156 1130.671875 1082.132812 C 1125.839844 1031.878906 1124.390625 1016.738281 1122.296875 989.515625 C 1121.007812 972.28125 1119.878906 954.726562 1119.878906 950.699219 C 1119.878906 939.746094 1122.941406 938.132812 1141.625 938.457031 L 1152.898438 938.777344 Z M 1081.386719 944.417969 C 1085.414062 946.671875 1088.632812 953.273438 1089.921875 962.132812 C 1090.566406 966.160156 1092.015625 971.960938 1093.144531 975.019531 C 1094.433594 978.082031 1096.527344 986.132812 1098.136719 992.738281 C 1099.585938 999.34375 1102.003906 1008.84375 1103.292969 1013.675781 C 1104.578125 1018.511719 1106.511719 1026.082031 1107.640625 1030.589844 C 1108.929688 1034.9375 1111.023438 1043.316406 1112.472656 1049.113281 C 1121.167969 1081.972656 1125.195312 1100.496094 1124.066406 1103.074219 C 1122.941406 1105.972656 1103.933594 1115.152344 1099.101562 1115.152344 C 1095.238281 1115.152344 1093.144531 1112.578125 1091.050781 1104.523438 C 1090.085938 1100.980469 1087.828125 1096.628906 1086.058594 1095.019531 C 1083.160156 1092.441406 1082.03125 1092.28125 1076.234375 1094.054688 C 1072.527344 1095.179688 1067.855469 1097.757812 1065.761719 1099.851562 C 1062.382812 1103.234375 1061.898438 1105.328125 1061.898438 1115.476562 C 1061.898438 1121.917969 1061.253906 1128.039062 1060.609375 1128.84375 C 1058.355469 1132.066406 1037.417969 1140.925781 1032.261719 1140.925781 C 1026.464844 1140.925781 1024.371094 1137.222656 1025.496094 1128.523438 C 1026.140625 1124.335938 1027.269531 1097.273438 1028.074219 1068.441406 C 1028.878906 1039.609375 1030.492188 1001.917969 1031.457031 984.683594 C 1033.550781 947.316406 1032.746094 948.605469 1052.554688 946.832031 C 1063.347656 946.027344 1073.011719 944.417969 1077.683594 942.964844 C 1078.003906 942.804688 1079.613281 943.609375 1081.386719 944.417969 Z M 1013.257812 993.542969 C 1013.902344 1034.777344 1010.839844 1138.027344 1008.910156 1145.273438 C 1008.101562 1148.011719 1005.847656 1149.945312 1001.5 1151.554688 C 986.359375 1157.03125 975.40625 1160.253906 971.382812 1160.253906 C 967.515625 1160.253906 966.871094 1159.289062 964.132812 1149.300781 C 959.785156 1134.644531 957.046875 1123.691406 955.597656 1115.960938 C 953.503906 1105.488281 949.636719 1095.019531 948.1875 1095.34375 C 947.382812 1095.664062 946.578125 1099.53125 946.417969 1104.199219 C 945.449219 1125.625 942.390625 1162.671875 941.101562 1165.890625 C 940.136719 1168.46875 937.074219 1169.917969 928.054688 1172.011719 C 921.453125 1173.625 912.433594 1174.75 907.761719 1174.75 L 899.546875 1174.75 L 896.164062 1163.636719 C 894.230469 1157.515625 892.78125 1151.554688 892.78125 1150.429688 C 892.78125 1149.300781 891.816406 1144.792969 890.527344 1140.28125 C 889.238281 1135.769531 886.984375 1127.554688 885.695312 1121.917969 C 884.246094 1116.441406 881.992188 1107.746094 880.703125 1102.589844 C 878.285156 1092.925781 863.308594 1032.363281 860.410156 1020.121094 C 856.703125 1004.496094 853.804688 993.222656 851.550781 985.652344 C 848.492188 975.34375 848.652344 970.671875 852.195312 968.898438 C 853.644531 968.09375 862.34375 966.964844 871.363281 966.320312 C 887.144531 965.355469 887.949219 965.515625 890.207031 968.898438 C 891.65625 970.832031 892.78125 974.859375 892.78125 977.757812 C 892.78125 980.65625 893.910156 988.550781 895.359375 995.476562 C 896.648438 1002.402344 898.902344 1013.839844 900.191406 1020.925781 C 901.640625 1028.011719 903.734375 1038.804688 905.023438 1045.085938 C 906.472656 1051.207031 907.761719 1058.132812 908.246094 1060.226562 C 908.726562 1062.804688 909.535156 1063.609375 910.660156 1062.484375 C 912.59375 1060.550781 914.6875 1034.132812 916.296875 993.867188 C 917.585938 958.429688 916.457031 960.363281 937.234375 959.234375 C 949.800781 958.589844 950.605469 958.75 952.859375 962.296875 C 954.148438 964.390625 956.402344 971.636719 958.011719 978.242188 C 959.460938 984.84375 961.394531 993.542969 962.363281 997.570312 C 964.292969 1005.625 965.421875 1011.101562 969.125 1027.207031 C 970.414062 1033.328125 972.832031 1039.773438 974.601562 1041.382812 C 977.5 1044.441406 977.664062 1043.960938 978.628906 1017.542969 C 979.273438 1002.726562 979.757812 983.234375 979.757812 974.214844 C 979.757812 953.273438 980.402344 952.632812 1001.5 952.953125 L 1012.773438 953.273438 Z M 821.269531 977.597656 C 822.71875 980.980469 823.527344 986.777344 823.203125 991.609375 L 822.71875 999.664062 L 812.25 1001.917969 C 806.453125 1003.207031 798.882812 1004.65625 795.5 1005.300781 C 785.996094 1007.074219 785.355469 1009.167969 788.574219 1029.300781 C 790.023438 1038.804688 791.3125 1049.113281 791.3125 1052.011719 C 791.3125 1062.320312 793.085938 1063.609375 807.417969 1063.609375 C 822.882812 1063.609375 823.6875 1064.578125 824.8125 1083.261719 C 825.457031 1095.664062 825.457031 1095.824219 821.269531 1097.4375 C 818.855469 1098.242188 814.828125 1099.046875 812.414062 1099.046875 C 809.996094 1099.046875 805.488281 1099.851562 802.585938 1100.816406 L 797.273438 1102.75 L 798.5625 1115.796875 C 799.203125 1123.046875 800.171875 1134.484375 800.816406 1141.246094 C 802.105469 1157.839844 803.554688 1158.964844 822.074219 1158 C 829.644531 1157.515625 836.570312 1157.839844 837.699219 1158.480469 C 840.597656 1160.253906 844.464844 1170.886719 844.464844 1177.167969 C 844.464844 1181.675781 843.660156 1183.125 840.597656 1184.414062 C 832.546875 1187.476562 817.082031 1189.085938 794.050781 1189.570312 C 767.316406 1190.050781 767.152344 1189.890625 767.152344 1178.777344 C 767.152344 1175.234375 766.027344 1163.957031 764.738281 1153.8125 C 763.449219 1143.664062 761.355469 1124.816406 759.90625 1111.933594 C 755.71875 1072.46875 752.980469 1047.664062 750.402344 1025.757812 C 746.859375 997.085938 746.699219 983.558594 749.597656 980.65625 C 751.046875 979.207031 758.457031 977.597656 768.765625 976.46875 C 778.105469 975.503906 790.347656 974.214844 796.144531 973.410156 C 817.40625 970.992188 818.53125 971.152344 821.269531 977.597656 Z M 723.667969 983.878906 C 725.921875 986.617188 726.40625 990.320312 735.746094 1086.964844 C 737.035156 1101.140625 739.289062 1123.207031 740.578125 1136.09375 C 745.570312 1185.21875 745.570312 1186.027344 743.636719 1187.796875 C 740.417969 1190.375 714.164062 1190.214844 711.746094 1187.476562 C 709.816406 1185.382812 705.789062 1157.03125 703.535156 1130.777344 C 703.050781 1124.816406 701.921875 1118.054688 700.957031 1115.796875 C 699.507812 1111.609375 699.023438 1111.449219 688.878906 1112.414062 C 675.667969 1113.382812 671.480469 1116.601562 672.933594 1124.496094 C 673.414062 1127.394531 674.542969 1137.542969 675.347656 1147.046875 C 676.152344 1156.550781 677.28125 1169.113281 677.925781 1174.910156 C 679.214844 1188.121094 678.890625 1188.28125 658.113281 1185.703125 C 644.425781 1184.09375 642.652344 1183.449219 641.363281 1180.066406 C 639.753906 1175.878906 639.429688 1172.011719 629.445312 1055.558594 C 627.996094 1039.128906 626.222656 1019.316406 625.417969 1011.261719 C 624.773438 1003.207031 624.773438 995.636719 625.578125 994.1875 C 626.546875 992.253906 630.410156 991.289062 641.042969 990.320312 C 660.207031 988.710938 658.113281 984.84375 663.269531 1033.8125 C 667.132812 1070.699219 667.457031 1071.984375 672.449219 1074.722656 C 676.3125 1076.980469 677.765625 1076.980469 686.140625 1074.886719 L 695.480469 1072.46875 L 694.996094 1053.945312 C 694.675781 1043.796875 693.546875 1025.4375 692.257812 1013.355469 C 690.972656 1001.273438 689.84375 990.484375 689.84375 989.675781 C 689.84375 983.558594 719.316406 978.5625 723.667969 983.878906 Z M 1334.09375 989.355469 C 1336.832031 994.671875 1336.027344 997.570312 1328.617188 1008.683594 C 1322.015625 1018.347656 1300.433594 1041.222656 1288.191406 1051.207031 C 1277.722656 1059.746094 1245.992188 1081.8125 1231.980469 1090.347656 C 1213.941406 1101.300781 1212.652344 1102.105469 1204.4375 1107.101562 C 1191.230469 1115.316406 1195.257812 1112.898438 1169.003906 1127.554688 C 1145.007812 1140.765625 1094.109375 1165.085938 1090.085938 1165.085938 C 1088.957031 1165.085938 1087.507812 1165.730469 1086.863281 1166.695312 C 1086.378906 1167.503906 1083.640625 1168.953125 1080.742188 1169.757812 C 1077.84375 1170.5625 1072.6875 1172.496094 1069.144531 1173.785156 C 1065.601562 1175.074219 1058.675781 1177.648438 1053.84375 1179.582031 C 1010.035156 1196.171875 950.28125 1211.796875 897.613281 1220.496094 C 834.15625 1230.964844 800.011719 1233.21875 720.445312 1232.253906 C 636.371094 1231.289062 608.988281 1228.710938 498.179688 1210.992188 C 424.734375 1199.234375 388.335938 1195.207031 325.035156 1191.664062 C 259.324219 1188.121094 211.648438 1184.738281 209.878906 1183.609375 C 207.621094 1182.160156 207.945312 1177.167969 210.519531 1170.722656 L 212.9375 1165.085938 L 248.046875 1165.085938 C 267.859375 1165.085938 293.628906 1166.054688 307.320312 1167.503906 C 335.828125 1170.402344 370.132812 1173.945312 399.125 1177.167969 C 410.722656 1178.457031 431.015625 1180.550781 444.222656 1182 C 457.589844 1183.289062 477.886719 1185.542969 489.320312 1186.832031 C 500.917969 1188.121094 521.210938 1190.375 534.417969 1191.664062 C 547.785156 1193.113281 568.082031 1195.207031 579.515625 1196.496094 C 681.628906 1207.769531 771.339844 1207.769531 861.375 1196.335938 C 902.769531 1191.019531 949.316406 1182 983.78125 1172.171875 C 1001.339844 1167.339844 1025.820312 1159.933594 1029.363281 1158.484375 C 1031.457031 1157.675781 1037.738281 1155.582031 1043.054688 1153.648438 C 1048.53125 1151.878906 1058.515625 1148.175781 1065.121094 1145.597656 C 1071.722656 1142.859375 1079.777344 1139.636719 1082.835938 1138.507812 C 1115.53125 1126.429688 1157.890625 1105.488281 1192.035156 1084.710938 C 1200.25 1079.71875 1208.144531 1074.886719 1209.753906 1074.082031 C 1213.78125 1071.664062 1244.542969 1050.886719 1257.589844 1041.703125 C 1277.882812 1027.53125 1322.660156 992.898438 1326.039062 988.871094 C 1328.777344 985.328125 1332 985.652344 1334.09375 989.355469 Z M 612.210938 996.441406 C 614.789062 999.503906 615.109375 1021.730469 612.695312 1023.34375 C 611.566406 1023.988281 605.929688 1024.953125 599.96875 1025.4375 C 584.667969 1026.886719 584.347656 1027.53125 586.441406 1048.628906 C 587.570312 1058.132812 589.5 1078.269531 590.789062 1093.410156 C 592.238281 1108.390625 594.496094 1129.972656 595.78125 1141.085938 C 598.519531 1165.410156 598.683594 1180.710938 596.265625 1181.515625 C 592.238281 1182.804688 568.886719 1178.617188 567.4375 1176.363281 C 566.628906 1175.074219 565.503906 1169.273438 565.019531 1163.476562 C 564.535156 1157.675781 563.085938 1145.433594 561.796875 1136.09375 C 560.511719 1126.75 558.417969 1107.90625 556.96875 1094.214844 C 553.101562 1057.488281 549.878906 1035.90625 547.785156 1033.328125 C 546.335938 1031.71875 542.632812 1031.234375 533.773438 1031.71875 L 521.53125 1032.199219 L 519.4375 1025.757812 C 513.640625 1008.363281 517.667969 1000.792969 532.644531 1000.792969 C 537.15625 1000.792969 545.53125 999.988281 551.328125 999.019531 C 560.992188 997.410156 587.890625 995.152344 603.835938 994.511719 C 607.703125 994.511719 611.246094 995.316406 612.210938 996.441406 Z M 481.75 1009.328125 C 482.71875 1010.457031 484.003906 1016.253906 484.648438 1022.054688 C 485.617188 1032.199219 485.453125 1032.84375 481.589844 1035.421875 C 479.171875 1036.871094 472.085938 1038.644531 465.160156 1039.289062 C 450.988281 1040.578125 449.378906 1042.027344 450.503906 1052.011719 C 452.113281 1064.578125 453.566406 1065.703125 465.644531 1064.738281 C 480.625 1063.609375 481.589844 1064.414062 482.878906 1079.234375 C 484.003906 1090.832031 483.84375 1091.796875 480.460938 1094.535156 C 478.046875 1096.46875 474.179688 1097.4375 469.1875 1097.4375 C 456.300781 1097.4375 455.660156 1098.886719 457.269531 1124.65625 C 457.914062 1136.738281 458.558594 1149.460938 458.71875 1153.007812 L 458.71875 1159.449219 L 443.902344 1159.289062 C 435.363281 1159.289062 428.117188 1158.484375 426.828125 1157.355469 C 423.605469 1154.617188 417.164062 1106.132812 412.816406 1052.335938 C 411.847656 1040.414062 410.722656 1028.011719 410.238281 1024.953125 C 409.917969 1021.890625 410.078125 1018.347656 410.882812 1017.382812 C 412.492188 1014.964844 431.660156 1011.101562 452.277344 1009.167969 C 474.179688 1006.914062 479.816406 1007.074219 481.75 1009.328125 Z M 209.714844 1011.90625 C 214.546875 1016.738281 226.304688 1042.1875 225.339844 1045.410156 C 224.210938 1048.953125 215.675781 1053.945312 211.003906 1053.945312 C 209.070312 1053.945312 206.496094 1052.496094 205.527344 1050.722656 C 199.890625 1042.027344 190.550781 1022.535156 190.550781 1019.960938 C 190.550781 1016.414062 199.890625 1009.488281 205.527344 1009.007812 C 206.171875 1008.84375 208.105469 1010.296875 209.714844 1011.90625 Z M 396.546875 1016.738281 C 399.929688 1018.832031 402.1875 1041.058594 399.449219 1043.960938 C 398.320312 1045.085938 390.910156 1046.859375 383.019531 1047.984375 C 369.488281 1049.917969 368.363281 1050.402344 366.914062 1054.429688 C 365.945312 1057.652344 366.109375 1060.871094 367.71875 1065.703125 L 370.132812 1072.46875 L 383.339844 1072.953125 C 391.234375 1073.273438 397.03125 1074.242188 398.160156 1075.367188 C 398.964844 1076.496094 399.929688 1082.617188 400.09375 1089.058594 C 400.574219 1103.878906 398.804688 1105.8125 385.433594 1106.777344 C 372.066406 1107.746094 370.457031 1110.320312 372.550781 1126.589844 C 373.355469 1133.195312 374.160156 1141.246094 374.160156 1144.46875 L 374.160156 1150.589844 L 359.019531 1150.589844 C 337.277344 1150.589844 337.921875 1151.394531 334.699219 1117.570312 C 333.410156 1102.429688 331.15625 1079.234375 329.867188 1066.027344 C 326.808594 1035.582031 326.808594 1025.917969 329.707031 1023.503906 C 330.835938 1022.535156 344.847656 1020.28125 360.632812 1018.671875 C 396.386719 1014.964844 393.808594 1015.128906 396.546875 1016.738281 Z M 279.9375 1023.988281 C 308.285156 1031.394531 322.621094 1054.269531 322.621094 1091.796875 C 322.621094 1110.964844 318.59375 1127.394531 311.667969 1135.769531 C 309.253906 1138.832031 303.292969 1143.664062 298.460938 1146.402344 C 290.570312 1150.75 288.476562 1151.234375 275.914062 1151.234375 C 259.96875 1151.074219 252.398438 1148.011719 243.054688 1137.542969 C 227.753906 1120.628906 221.3125 1082.292969 229.367188 1056.199219 C 232.105469 1047.179688 234.359375 1043.796875 241.765625 1036.226562 C 247.566406 1030.429688 253.6875 1026.082031 258.195312 1024.46875 C 267.375 1021.410156 269.953125 1021.246094 279.9375 1023.984375 Z M 190.066406 1037.839844 C 193.933594 1044.441406 197.476562 1052.335938 197.957031 1055.394531 C 198.925781 1060.226562 198.441406 1061.515625 194.414062 1064.738281 C 188.9375 1069.085938 183.785156 1069.570312 180.886719 1066.027344 C 178.46875 1063.128906 171.0625 1049.757812 166.230469 1039.449219 L 162.847656 1032.363281 L 167.355469 1028.65625 C 170.738281 1025.917969 173.636719 1024.953125 177.664062 1025.273438 C 182.820312 1025.757812 183.785156 1026.726562 190.066406 1037.839844 Z M 1207.175781 1150.589844 C 1214.425781 1152.683594 1216.839844 1156.550781 1216.839844 1166.054688 C 1217.164062 1178.617188 1214.425781 1179.582031 1191.554688 1174.75 C 1167.394531 1169.757812 1139.371094 1177.8125 1114.886719 1196.65625 C 1104.097656 1204.871094 1090.890625 1217.757812 1090.890625 1220.011719 C 1090.890625 1221.460938 1086.378906 1228.386719 1081.226562 1234.671875 C 1077.199219 1239.503906 1068.824219 1238.375 1062.542969 1232.09375 C 1059.480469 1229.03125 1057.066406 1225.488281 1057.066406 1224.039062 C 1057.066406 1218.722656 1061.898438 1212.121094 1075.265625 1199.554688 C 1098.621094 1177.328125 1121.652344 1163.796875 1152.738281 1153.8125 C 1166.910156 1149.300781 1196.222656 1147.53125 1207.175781 1150.589844 Z M 1186.722656 1189.246094 C 1194.292969 1196.335938 1191.230469 1205.03125 1176.414062 1218.5625 C 1163.046875 1230.644531 1146.9375 1238.214844 1127.449219 1241.433594 C 1119.398438 1242.886719 1107.480469 1237.730469 1106.191406 1232.253906 C 1103.933594 1223.71875 1118.109375 1205.515625 1133.730469 1196.335938 C 1154.347656 1184.253906 1178.023438 1181.03125 1186.722656 1189.246094 Z M 431.820312 1216.789062 C 463.390625 1220.171875 496.890625 1233.382812 513.15625 1248.523438 C 516.703125 1251.90625 517.507812 1254 517.507812 1260.28125 C 517.507812 1271.71875 515.25 1276.226562 509.777344 1276.226562 C 507.039062 1276.226562 503.816406 1274.777344 502.042969 1272.84375 C 494.152344 1263.984375 472.246094 1251.261719 456.785156 1246.265625 C 452.597656 1244.980469 440.839844 1242.886719 430.855469 1241.597656 C 415.875 1239.984375 409.273438 1239.984375 393.003906 1241.597656 C 382.214844 1242.882812 371.101562 1244.65625 368.203125 1245.621094 C 365.464844 1246.589844 360.792969 1247.234375 357.734375 1246.910156 C 353.0625 1246.429688 352.417969 1245.785156 351.933594 1240.953125 C 351.289062 1234.347656 353.867188 1227.742188 359.183594 1222.910156 C 365.785156 1216.628906 402.347656 1213.410156 431.820312 1216.789062 Z M 457.109375 1261.730469 C 470.476562 1267.046875 478.851562 1273.972656 478.851562 1279.449219 C 478.851562 1284.28125 472.246094 1290.242188 463.710938 1292.980469 C 452.277344 1296.683594 416.519531 1296.523438 405.566406 1292.816406 C 394.9375 1289.113281 381.730469 1280.574219 378.992188 1275.421875 C 374.964844 1267.851562 382.214844 1259.476562 394.777344 1256.738281 C 398.160156 1255.933594 410.5625 1255.769531 422.480469 1255.933594 C 442.453125 1256.578125 445.1875 1257.058594 457.109375 1261.730469 Z M 457.109375 1261.730469 " fill-opacity="1" fill-rule="nonzero"/></g></svg>