<svg xmlns="http://www.w3.org/2000/svg" xmlns:xlink="http://www.w3.org/1999/xlink" width="1910" zoomAndPan="magnify" viewBox="0 0 1432.5 749.999995" height="1000" preserveAspectRatio="xMidYMid meet" version="1.0"><defs><clipPath id="43ac28f9af"><path d="M 1202 213.453125 L 1247 213.453125 L 1247 323 L 1202 323 Z M 1202 213.453125 " clip-rule="nonzero"/></clipPath><clipPath id="7a49f8a0e4"><path d="M 1202 427 L 1247 427 L 1247 536.589844 L 1202 536.589844 Z M 1202 427 " clip-rule="nonzero"/></clipPath></defs><path fill="#007dc3" d="M 824.34375 384.746094 C 824.34375 352.84375 810.703125 324.726562 764.636719 324.726562 C 740.976562 324.726562 722.191406 331.371094 711.929688 337.296875 L 719.429688 362.960938 C 728.785156 357.058594 743.710938 352.152344 757.851562 352.152344 C 781.230469 352.105469 785.0625 365.390625 785.0625 373.914062 L 785.0625 375.9375 C 734.09375 375.839844 701.910156 393.480469 701.910156 429.429688 C 701.910156 451.382812 718.3125 471.972656 746.832031 471.972656 C 764.351562 471.972656 779.039062 464.976562 787.800781 453.761719 L 788.683594 453.761719 C 788.683594 453.761719 794.492188 478.117188 826.582031 468.808594 C 824.890625 458.664062 824.34375 447.859375 824.34375 434.859375 M 786.277344 418.480469 C 786.277344 421.074219 786.0625 423.742188 785.324219 426.121094 C 782.375 435.859375 772.257812 444.121094 759.640625 444.121094 C 749.09375 444.121094 740.738281 438.144531 740.738281 425.480469 C 740.738281 406.148438 762.042969 400.789062 786.277344 400.910156 Z M 786.277344 418.480469 " fill-opacity="1" fill-rule="nonzero"/><path fill="#007dc3" d="M 30.453125 281.277344 C 30.453125 281.277344 63.734375 417.71875 69.066406 439.882812 C 75.253906 465.738281 86.445312 475.234375 118.652344 468.832031 L 139.4375 384.246094 C 144.722656 363.222656 148.246094 348.25 151.625 326.894531 L 152.21875 326.894531 C 154.625 348.460938 158.003906 363.292969 162.339844 384.316406 C 162.339844 384.316406 170.789062 422.71875 175.121094 442.882812 C 179.453125 463.046875 191.574219 475.757812 223.117188 468.832031 L 272.65625 281.300781 L 232.660156 281.300781 L 215.757812 362.390625 C 211.210938 385.984375 207.09375 404.457031 203.902344 426.027344 L 203.332031 426.027344 C 200.453125 404.671875 196.761719 386.933594 192.144531 363.960938 L 174.527344 281.328125 L 132.867188 281.328125 L 114.035156 361.890625 C 108.703125 386.386719 103.703125 406.125 100.535156 427.003906 L 99.964844 427.003906 C 96.703125 407.363281 92.371094 382.53125 87.679688 358.820312 C 87.679688 358.820312 76.492188 301.230469 72.566406 281.351562 " fill-opacity="1" fill-rule="nonzero"/><path fill="#007dc3" d="M 386.332031 384.746094 C 386.332031 352.84375 372.691406 324.726562 326.625 324.726562 C 302.960938 324.726562 284.179688 331.371094 273.941406 337.296875 L 281.441406 362.960938 C 290.796875 357.058594 305.722656 352.152344 319.863281 352.152344 C 343.265625 352.105469 347.074219 365.390625 347.074219 373.914062 L 347.074219 375.9375 C 296.105469 375.839844 263.917969 393.480469 263.917969 429.429688 C 263.917969 451.382812 280.324219 471.972656 308.820312 471.972656 C 326.363281 471.972656 341.027344 464.976562 349.8125 453.761719 L 350.671875 453.761719 C 350.671875 453.761719 356.503906 478.117188 388.570312 468.808594 C 386.878906 458.664062 386.332031 447.859375 386.332031 434.859375 M 348.289062 418.480469 C 348.289062 421.074219 348.050781 423.742188 347.335938 426.121094 C 344.386719 435.859375 334.292969 444.121094 321.648438 444.121094 C 311.105469 444.121094 302.746094 438.144531 302.746094 425.480469 C 302.746094 406.148438 324.054688 400.789062 348.289062 400.910156 Z M 348.289062 418.480469 " fill-opacity="1" fill-rule="nonzero"/><path fill="#007dc3" d="M 449.824219 428.976562 L 449.824219 281.277344 L 411.734375 281.277344 L 411.734375 468.808594 L 449.824219 468.808594 " fill-opacity="1" fill-rule="nonzero"/><path fill="#007dc3" d="M 948.042969 281.277344 L 948.042969 419.621094 C 948.042969 438.691406 951.636719 452.070312 959.300781 460.214844 C 965.992188 467.355469 977.039062 471.972656 990.296875 471.972656 C 1001.558594 471.972656 1012.628906 469.832031 1017.867188 467.902344 L 1017.367188 438.167969 C 1013.484375 439.121094 1009.011719 439.859375 1002.890625 439.859375 C 989.917969 439.859375 985.585938 431.550781 985.585938 414.433594 L 985.585938 361.484375 L 1018.722656 361.484375 L 1018.722656 325.632812 L 985.585938 325.632812 L 985.585938 281.277344 " fill-opacity="1" fill-rule="nonzero"/><path fill="#007dc3" d="M 849.722656 327.964844 L 849.722656 468.832031 L 889.003906 468.832031 L 889.003906 396.695312 C 889.003906 392.816406 889.242188 389.433594 889.859375 386.316406 C 892.765625 371.199219 904.332031 361.53125 920.902344 361.53125 C 925.472656 361.53125 928.734375 362.03125 932.257812 362.53125 L 932.257812 325.632812 C 929.28125 325.035156 927.257812 324.75 923.570312 324.75 C 908.90625 324.75 892.265625 334.226562 885.242188 354.507812 L 884.144531 354.507812 L 884.144531 327.964844 " fill-opacity="1" fill-rule="nonzero"/><path fill="#007dc3" d="M 476.488281 327.964844 L 476.488281 468.832031 L 514.765625 468.832031 L 514.765625 386.222656 C 514.765625 382.339844 515.21875 378.246094 516.578125 374.675781 C 519.742188 366.339844 527.480469 356.628906 539.835938 356.628906 C 555.261719 356.628906 562.5 369.699219 562.5 388.53125 L 562.5 468.832031 L 600.730469 468.832031 L 600.730469 385.222656 C 600.730469 381.53125 601.253906 377.078125 602.328125 373.792969 C 605.46875 364.34375 613.800781 356.628906 625.300781 356.628906 C 640.964844 356.628906 648.488281 369.460938 648.488281 391.625 L 648.488281 468.832031 L 686.742188 468.832031 L 686.742188 385.863281 C 686.742188 342.105469 664.53125 324.773438 639.441406 324.773438 C 628.324219 324.773438 619.5625 327.558594 611.636719 332.417969 C 604.96875 336.511719 598.992188 342.34375 593.804688 349.984375 L 593.234375 349.984375 C 587.1875 334.796875 572.949219 324.773438 554.40625 324.773438 C 530.574219 324.773438 519.863281 336.867188 513.363281 347.105469 L 512.792969 347.105469 L 512.792969 327.964844 " fill-opacity="1" fill-rule="nonzero"/><g clip-path="url(#43ac28f9af)"><path fill="#fdbb30" d="M 1224.625 322.273438 C 1232.195312 322.273438 1238.40625 318.324219 1239.242188 313.226562 L 1246.714844 228.664062 C 1246.714844 220.308594 1236.957031 213.453125 1224.625 213.453125 C 1212.316406 213.453125 1202.554688 220.308594 1202.554688 228.664062 L 1210.03125 313.226562 C 1210.839844 318.324219 1217.078125 322.273438 1224.625 322.273438 " fill-opacity="1" fill-rule="nonzero"/></g><path fill="#fdbb30" d="M 1178.914062 348.675781 C 1182.699219 342.152344 1182.414062 334.75 1178.414062 331.488281 L 1108.925781 282.753906 C 1101.710938 278.566406 1090.855469 283.613281 1084.714844 294.253906 C 1078.570312 304.917969 1079.644531 316.800781 1086.855469 320.964844 L 1163.773438 356.769531 C 1168.609375 358.558594 1175.128906 355.152344 1178.9375 348.582031 " fill-opacity="1" fill-rule="nonzero"/><path fill="#fdbb30" d="M 1270.332031 348.605469 C 1274.117188 355.175781 1280.664062 358.582031 1285.449219 356.796875 L 1362.414062 320.988281 C 1369.652344 316.800781 1370.722656 304.917969 1364.558594 294.277344 C 1358.414062 283.613281 1347.535156 278.589844 1340.347656 282.777344 L 1270.855469 331.511719 C 1266.878906 334.773438 1266.59375 342.175781 1270.355469 348.699219 " fill-opacity="1" fill-rule="nonzero"/><g clip-path="url(#7a49f8a0e4)"><path fill="#fdbb30" d="M 1224.625 427.882812 C 1232.195312 427.882812 1238.40625 431.789062 1239.242188 436.859375 L 1246.714844 521.398438 C 1246.714844 529.777344 1236.957031 536.632812 1224.625 536.632812 C 1212.316406 536.632812 1202.554688 529.777344 1202.554688 521.398438 L 1210.03125 436.859375 C 1210.839844 431.789062 1217.078125 427.882812 1224.625 427.882812 " fill-opacity="1" fill-rule="nonzero"/></g><path fill="#fdbb30" d="M 1270.332031 401.480469 C 1274.117188 394.910156 1280.664062 391.507812 1285.449219 393.292969 L 1362.414062 429.074219 C 1369.652344 433.289062 1370.722656 445.167969 1364.558594 455.832031 C 1358.414062 466.476562 1347.535156 471.523438 1340.347656 467.332031 L 1270.855469 418.644531 C 1266.878906 415.359375 1266.59375 407.980469 1270.355469 401.433594 " fill-opacity="1" fill-rule="nonzero"/><path fill="#fdbb30" d="M 1178.914062 401.433594 C 1182.699219 408.003906 1182.414062 415.359375 1178.414062 418.644531 L 1108.925781 467.355469 C 1101.710938 471.523438 1090.855469 466.476562 1084.714844 455.855469 C 1078.570312 445.191406 1079.644531 433.289062 1086.855469 429.074219 L 1163.773438 393.316406 C 1168.609375 391.480469 1175.128906 394.910156 1178.9375 401.457031 " fill-opacity="1" fill-rule="nonzero"/><path fill="#fdbb30" d="M 1389.507812 450.117188 C 1396.316406 450.117188 1401.695312 455.40625 1401.695312 462.140625 C 1401.695312 469.046875 1396.316406 474.332031 1389.410156 474.332031 C 1382.53125 474.332031 1377.078125 469.023438 1377.078125 462.140625 C 1377.078125 455.40625 1382.53125 450.117188 1389.410156 450.117188 M 1389.363281 452.238281 C 1383.886719 452.238281 1379.746094 456.691406 1379.746094 462.140625 C 1379.746094 467.761719 1383.886719 472.140625 1389.507812 472.140625 C 1394.957031 472.234375 1398.957031 467.785156 1398.957031 462.238281 C 1398.957031 456.714844 1394.957031 452.238281 1389.410156 452.238281 Z M 1387.222656 468.808594 L 1384.886719 468.808594 L 1384.886719 456.167969 C 1386.148438 455.929688 1387.507812 455.785156 1389.269531 455.785156 C 1391.386719 455.785156 1392.457031 456.167969 1393.269531 456.785156 C 1394.03125 457.308594 1394.554688 458.308594 1394.554688 459.453125 C 1394.554688 461.046875 1393.410156 462.023438 1392.054688 462.476562 L 1392.054688 462.617188 C 1393.195312 463.070312 1393.792969 464.046875 1394.171875 465.640625 C 1394.554688 467.59375 1394.792969 468.355469 1395.078125 468.808594 L 1392.625 468.808594 C 1392.269531 468.355469 1391.980469 467.210938 1391.648438 465.476562 C 1391.363281 464.117188 1390.53125 463.5 1388.695312 463.5 L 1387.171875 463.5 L 1387.171875 468.808594 Z M 1387.222656 461.6875 L 1388.816406 461.6875 C 1390.578125 461.6875 1392.078125 461.164062 1392.078125 459.640625 C 1392.078125 458.429688 1391.316406 457.59375 1389.054688 457.59375 C 1388.171875 457.59375 1387.648438 457.667969 1387.222656 457.761719 Z M 1387.222656 461.6875 " fill-opacity="1" fill-rule="nonzero"/></svg>