<?xml version="1.0" encoding="UTF-8"?>
<svg id="Capa_2" data-name="Capa 2" xmlns="http://www.w3.org/2000/svg" viewBox="0 0 577.38 105.43">
  <defs>
    <style>
      .cls-1 {
        fill: #0f1c14;
      }
    </style>
  </defs>
  <g id="Camada_1" data-name="Camada 1">
    <g>
      <path class="cls-1" d="m65.18,30.45c0-9.71-6.39-15.21-20.47-15.21h-25.99L0,90.56h25.11c22.06,0,32.52-10.43,32.52-25.05,0-6.81-4.06-12.17-14.23-13.03l.15-.73c14.08-1.45,21.63-10.57,21.63-21.29h0Zm-38.62,42.43h-1.31l3.48-13.61h3.19c4.79,0,6.53,1.74,6.53,4.35,0,4.93-5.08,9.27-11.9,9.27Zm6.39-26.94h-1.02l3.34-13.18h3.19c4.64,0,6.09,1.45,6.09,4.35,0,5.07-5.37,8.83-11.61,8.83Z"/>
      <path class="cls-1" d="m122.23,31.02c0-8.69-5.52-16.8-19.02-16.8-24.39,0-42.68,27.66-42.68,53.73,0,14.49,8.42,23.61,21.63,23.61,18.44,0,28.31-13.03,32.08-29.26h-21.05c-1.16,5.65-3.48,10.43-7.12,10.43-2.91,0-4.5-2.46-4.5-7.82,0-1.74.15-3.62.43-5.51,25.4-.87,40.21-11.59,40.21-28.39h0Zm-23.08,1.31c2.18,0,3.48,1.31,3.48,3.33-.15,4.2-5.23,8.4-16.26,8.98,3.19-6.95,7.69-12.31,12.78-12.31Z"/>
      <path class="cls-1" d="m168.83,15.24h-39.78l-4.79,19.55h10.74l-13.93,55.76h22.06l13.93-55.76h6.97l4.79-19.55Z"/>
      <path class="cls-1" d="m212.09,15.24h-39.63l-4.79,19.55h6.97l-13.94,55.76h22.07l13.93-55.76h10.6l4.79-19.55Z"/>
      <path class="cls-1" d="m233.86,62.31c-1.16,5.65-3.48,10.43-7.12,10.43-2.91,0-4.5-2.46-4.5-7.82,0-1.74.15-3.62.43-5.51,25.4-.87,40.21-11.59,40.21-28.39,0-8.69-5.52-16.8-19.02-16.8-24.39,0-42.68,27.66-42.68,53.73,0,14.49,8.42,23.61,21.63,23.61,18.44,0,28.31-13.03,32.08-29.26h-21.05Zm5.95-29.98c2.18,0,3.48,1.31,3.48,3.33-.15,4.2-5.22,8.4-16.26,8.98,3.19-6.95,7.69-12.31,12.78-12.31Z"/>
      <path class="cls-1" d="m296.43,56.66l.15-.87c12.78-1.01,21.34-10.72,21.63-23.75.29-10.43-5.81-16.8-21.78-16.8h-24.82l-18.87,75.31h20.76l6.54-25.78h3.92c4.06,0,5.52,1.59,4.5,5.94l-4.64,19.84h21.63l3.05-18.97c1.45-8.55-1.74-13.76-12.05-14.92h0Zm-11.03-8.69h-1.02l3.77-15.06h3.19c4.94,0,6.68,1.74,6.54,4.63-.29,6.23-5.81,10.43-12.48,10.43h0Z"/>
      <path class="cls-1" d="m360.6,45.37h-18.58l2.61-10.57h19.02l4.79-19.55h-40.5l-18.73,75.32h21.48l6.39-25.64h18.58l4.94-19.55Z"/>
      <path class="cls-1" d="m379.9,71.01l13.94-55.76h-21.49l-18.72,75.32h38.76l4.79-19.55h-17.27Z"/>
      <path class="cls-1" d="m418.08,47.25h-.73l3.92-32.01h-23.66l4.35,52.86-5.66,22.45h21.48l5.67-22.45,30.48-52.86h-24.68l-11.18,32.01Z"/>
      <path class="cls-1" d="m516.17,0c-31.07,0-52.84,23.61-52.84,52.72s21.78,52.72,52.84,52.72,52.84-23.61,52.84-52.72S547.24,0,516.17,0Zm0,96.17c-25.84,0-43.55-19.55-43.55-43.45s17.71-43.45,43.55-43.45,43.55,19.55,43.55,43.45-17.71,43.45-43.55,43.45Z"/>
      <path class="cls-1" d="m489.17,63.44c0-3.47,2.61-6.52,8.13-6.52h2.76l2.03-8.55h-2.91c-3.48,0-5.23-1.01-5.23-3.91,0-3.47,2.61-6.37,8.13-6.37h2.61l2.32-9.27h-5.95c-12.19,0-17.42,6.66-17.42,14.92,0,4.78,2.18,7.82,7.84,8.69l-.15.58c-8.85.87-12.34,6.66-12.34,13.91,0,6.37,3.63,9.56,10.45,9.56h12.63l2.33-9.13h-10.02c-3.48,0-5.23-1.01-5.23-3.91Z"/>
      <path class="cls-1" d="m526.77,56.92l2.03-8.55h-6.82l2.61-10.28h6.82l2.33-9.27h-23.23l-2.33,9.27h6.97l-2.61,10.28h-6.97l-2.03,8.55h6.97l-4.94,19.55h9.43l4.94-19.55h6.82Z"/>
      <path class="cls-1" d="m553.34,38.67c0-6.37-3.63-9.85-10.45-9.85h-5.66l-2.33,9.27h3.05c3.48,0,5.22,1.16,5.22,4.05,0,3.47-2.61,6.23-8.13,6.23h-2.76l-2.03,8.55h2.91c3.48,0,5.23,1.31,5.23,4.2,0,3.47-2.61,6.23-8.13,6.23h-9.43l-2.32,9.13h12.77c12.2,0,17.42-6.37,17.42-14.63,0-4.78-2.18-7.97-7.84-8.69l.15-.73c8.85-.87,12.34-6.52,12.34-13.76h0Z"/>
      <path class="cls-1" d="m573.35,3.91c-.66,0-1.19,0-1.41,0v-1.35c.38,0,1.09-.03,1.39-.03.86,0,1.17.12,1.17.69,0,.47-.32.7-1.15.7Zm.91.46c.85-.11,1.22-.46,1.22-1.27,0-1.14-.68-1.38-1.78-1.38h-2.76c.01.66.03,1.31.03,2.28s-.02,1.58-.03,2.23h1.05c-.02-.38-.04-.91-.05-1.53.44,0,.99-.02,1.5-.02.79,0,.89.25,1.19,1.34.04.15.09.2.23.2h.96c-.09-.17-.19-.49-.32-.88-.22-.7-.55-.88-1.25-.96h0Zm-1.05,2.82c-2.27,0-3.38-1.04-3.38-3.22s1.11-3.22,3.38-3.22,3.37,1.04,3.37,3.22-1.11,3.22-3.37,3.22Zm-.01-7.19c-2.76,0-4.18,1.36-4.18,3.99s1.39,3.96,4.18,3.96,4.18-1.34,4.18-3.96-1.41-3.99-4.18-3.99Z"/>
    </g>
  </g>
</svg>