<?xml version="1.0" encoding="utf-8"?>
<!-- Generator: Adobe Illustrator 25.2.3, SVG Export Plug-In . SVG Version: 6.00 Build 0)  -->
<svg version="1.1" id="Capa_1" xmlns="http://www.w3.org/2000/svg" xmlns:xlink="http://www.w3.org/1999/xlink" x="0px" y="0px"
	 viewBox="0 0 706.8 324.9" style="enable-background:new 0 0 706.8 324.9;" xml:space="preserve">
<style type="text/css">
	.Sombra_x0020_paralela{fill:none;}
	.Esquinas_x0020_redondeadas_x0020_2_x0020_pt_x002E_{fill:#FFFFFF;stroke:#231F20;stroke-miterlimit:10;}
	.Reflejo_x0020_vivo_x0020_X{fill:none;}
	.Bisel_x0020_suave{fill:url(#SVGID_1_);}
	.Atardecer{fill:#FFFFFF;}
	.Follaje_GS{fill:#FFDD00;}
	.Pompadour_GS{fill-rule:evenodd;clip-rule:evenodd;fill:#44ADE2;}
	.st0{fill:#D21A19;}
	.st1{fill:#FFFFFF;}
	.st2{fill-rule:evenodd;clip-rule:evenodd;fill:#FFFFFF;}
</style>
<linearGradient id="SVGID_1_" gradientUnits="userSpaceOnUse" x1="-56.0541" y1="-129.833" x2="-55.347" y2="-129.1259">
	<stop  offset="0" style="stop-color:#DEDFE3"/>
	<stop  offset="0.1783" style="stop-color:#DADBDF"/>
	<stop  offset="0.3611" style="stop-color:#CECFD3"/>
	<stop  offset="0.546" style="stop-color:#B9BCBF"/>
	<stop  offset="0.7324" style="stop-color:#9CA0A2"/>
	<stop  offset="0.9181" style="stop-color:#787D7E"/>
	<stop  offset="1" style="stop-color:#656B6C"/>
</linearGradient>
<path class="st0" d="M321.4,0.3L321.4,0.3C221.2,2.5,141.9,20,85.8,52.1c-46.1,26.4-75,62-83.4,103.3
	c-11.7,57.3,20.3,116.7,72.4,142.9c86.9,43.6,166.6,25.7,279.3,2.7c141.9-28.8,226.2-16.2,255.4-16.3c36-0.2,59.5-12.4,73.1-26.9
	c22.1-23.7,29.7-66.5,20.2-103.4c-11.8-45.6-52.5-83.1-106.2-108C529.1,14.8,437.4-2.4,321.4,0.3"/>
<path class="st1" d="M630,253.2c0-1.5-0.1-3.4-0.1-5.2h-0.1c-0.4,1.6-1,3.4-1.4,4.9l-1.6,5h-2.2l-1.3-4.9c-0.4-1.5-0.8-3.4-1.2-5
	c-0.1,1.7-0.1,3.7-0.2,5.2l-0.3,4.9H619l0.8-12.7h3.9l1.2,4.3c0.4,1.4,0.8,3.1,1.1,4.5h0.1c0.4-1.5,0.8-3.1,1.3-4.6l1.3-4.2h3.8
	l0.7,12.7h-2.8L630,253.2z"/>
<path class="st1" d="M636.7,258.4c-1,0-1.6-0.8-1.6-1.8c0-1,0.6-1.7,1.7-1.7c0.9,0,1.7,0.6,1.7,1.7
	C638.4,257.6,637.7,258.4,636.7,258.4"/>
<path class="st1" d="M640.2,245.5c0.9-0.2,2.3-0.3,3.8-0.3c1.9,0,3.2,0.3,4.1,1c0.7,0.6,1.2,1.5,1.2,2.7c0,1.6-1.1,2.7-2.2,3.1v0.1
	c0.9,0.3,1.4,1.1,1.6,2.4c0.4,1.4,0.8,3.1,1.1,3.6h-2.9c-0.2-0.3-0.6-1.5-1-3c-0.3-1.6-0.9-2-2.1-2H643v5h-2.8V245.5z M643,251h1.1
	c1.5,0,2.3-0.7,2.3-1.9c0-1.1-0.8-1.7-2.1-1.7c-0.7,0-1.1,0-1.4,0.1V251z"/>
<path class="st1" d="M652.8,258.4c-1,0-1.7-0.8-1.7-1.8c0-1,0.8-1.7,1.7-1.7c1,0,1.6,0.6,1.7,1.7
	C654.5,257.6,653.8,258.4,652.8,258.4"/>
<path class="st2" d="M328.3,89.6c8.5-1.9,17.8,3.8,20.4,10.6c2.4,6.5,0.8,18.1,0.8,24.5v63.4c0,3.5-0.7,11.8,0,12.7
	c1,1.2,9.9,0.4,12.7,0.4c7.8,0,6.4-0.4,12.7-0.4c18.4,0,33.4-1.1,35.5,14.4c1.2,8.5-4.7,17.1-12.2,19c-6.8,1.8-18,0.4-27.1,0.4
	c-21,0-35.8,0.9-46-8.9c-10.8-10.2-9.7-22.9-9.7-44.4v-54c0-8.1-1.8-18.8,0.4-26.6C317,95.6,322.8,90.8,328.3,89.6"/>
<path class="st2" d="M421.3,89.6c7.2-1.6,18.5,2.6,21.1,11.9c1.7,6.1,0.5,13.9,0.5,20.6v42.3c0,7.6-0.8,13.8,1.2,19.5
	c3.6,10.1,16.4,19,30.4,14.8c7.3-2.2,13-8.7,15.2-15.6c3.2-10,1.2-27,1.2-41.4v-21.1c0-7.6-0.9-15.3,0.9-20.3
	c2.7-7.7,10.5-11.5,18.2-11c8.3,0.6,13,7.1,14.3,11c3.1,8.6,0.9,28.6,0.9,40.2c0,11.8,0.9,27.8,0,40.9c-2,28.2-23.9,51.4-52.4,54.1
	c-33.1,3.1-56.8-18.6-62.9-43.5c-4-15.9-1.7-47-1.7-69.3C408.2,105.7,406.7,92.9,421.3,89.6"/>
<path class="st2" d="M587.4,89.6c35.2-4.3,61.1,22.4,65.1,52.4c1.5,11.3,0,26.6,0,40.1v20.3c0,7,0.7,17.4-1.3,22.4
	c-2.6,6.2-8.8,10.9-16.9,10.5c-21.1-1.1-16.5-25.9-16.5-49.5c0-13.6,1.9-32.5-0.4-42.6c-2.3-10.1-11.1-18.5-23.3-18.6
	c-12.2-0.1-20.9,8.4-23.6,18.1c-1.5,5.8-0.4,13.5-0.4,20.3v21.2c0,23.4,4.5,48.7-15.6,51.1c-7.9,0.9-15.4-3.3-18.1-10.1
	c-2.6-6.4-1.3-17.9-1.3-27.9c0-18.1-1.8-41.4,0.4-57.9C539.2,112,561.7,92.7,587.4,89.6"/>
<path class="st2" d="M102.7,90.5c14.8-1.5,28.8,2.2,40.2,8.4c7.1,3.9,18.4,11.4,20.3,19c3.2,12.6-6,22.3-16.1,22.4
	c-10.8,0.1-13.5-8.2-21.6-12.3c-24.8-12.4-55.3,5.5-55.3,33.3c-0.1,22.3,18.6,39.7,41.8,37.6c12.4-1.1,18.5-6.8,24.6-13.9
	c2.1-2.6,6-6,10.9-6.8c13.1-2,22,8.1,19.9,20.7c-1.1,6.6-8.8,13.1-12.7,16.5c-13.7,12.2-38.5,22.8-65.9,15.2
	c-26.5-7.2-55.8-33.9-52.4-75.2c1.6-18.8,10.6-34.3,21.2-44.8C68.6,99.5,83.3,92.2,102.7,90.5"/>
<path class="st2" d="M235.4,91.3c22.6-1.1,40.4,8.1,52,19.4c10.9,10.8,21.3,28.1,21.5,49.8c0.1,16.3-5,30.1-11.4,39.7
	c-10.1,15.1-25.8,26.2-44.8,30c-20.2,4-42.6-1.1-57.9-13.1c-14.7-11.5-29.4-32.4-27.1-61.7c2.2-27.4,19.1-48.1,40.6-57.9
	C216.5,93.8,225.3,91.7,235.4,91.3 M201.9,159.3c-0.8,17.1,11.7,33,26.7,36.7c23.5,5.8,45.3-12.8,45.2-35
	c-0.2-20.9-19.9-37.5-39.8-35.1C216.4,128,203,140.8,201.9,159.3"/>
</svg>
