<svg xmlns="http://www.w3.org/2000/svg" xmlns:xlink="http://www.w3.org/1999/xlink" width="500" zoomAndPan="magnify" viewBox="0 0 375 374.999991" height="500" preserveAspectRatio="xMidYMid meet" version="1.0"><defs><clipPath id="8c697e1fee"><path d="M 8.292969 8.292969 L 366.6875 8.292969 L 366.6875 366.6875 L 8.292969 366.6875 Z M 8.292969 8.292969 " clip-rule="nonzero"/></clipPath><clipPath id="49949c34a9"><path d="M 187.488281 366.6875 C 286.457031 366.6875 366.6875 286.457031 366.6875 187.488281 C 366.6875 88.523438 286.457031 8.292969 187.488281 8.292969 C 88.523438 8.292969 8.292969 88.523438 8.292969 187.488281 C 8.292969 286.457031 88.523438 366.6875 187.488281 366.6875 Z M 187.488281 366.6875 " clip-rule="nonzero"/></clipPath><clipPath id="82b6599dda"><path d="M 0.292969 0.292969 L 358.6875 0.292969 L 358.6875 358.6875 L 0.292969 358.6875 Z M 0.292969 0.292969 " clip-rule="nonzero"/></clipPath><clipPath id="af942fea36"><path d="M 179.488281 358.6875 C 278.457031 358.6875 358.6875 278.457031 358.6875 179.488281 C 358.6875 80.523438 278.457031 0.292969 179.488281 0.292969 C 80.523438 0.292969 0.292969 80.523438 0.292969 179.488281 C 0.292969 278.457031 80.523438 358.6875 179.488281 358.6875 Z M 179.488281 358.6875 " clip-rule="nonzero"/></clipPath><clipPath id="8851fcf364"><rect x="0" width="359" y="0" height="359"/></clipPath></defs><g clip-path="url(#8c697e1fee)"><g clip-path="url(#49949c34a9)"><g transform="matrix(1, 0, 0, 1, 8, 8)"><g clip-path="url(#8851fcf364)"><g clip-path="url(#82b6599dda)"><g clip-path="url(#af942fea36)"><path fill="#00bcd4" d="M 358.6875 358.6875 L 0.292969 358.6875 L 0.292969 0.292969 L 358.6875 0.292969 Z M 358.6875 358.6875 " fill-opacity="1" fill-rule="nonzero"/></g></g></g></g></g></g></svg>