<svg xmlns="http://www.w3.org/2000/svg" xmlns:xlink="http://www.w3.org/1999/xlink" width="1910" zoomAndPan="magnify" viewBox="0 0 1432.5 749.999995" height="1000" preserveAspectRatio="xMidYMid meet" version="1.0"><defs><clipPath id="49df94c91a"><path d="M 515.988281 236.851562 L 740.910156 236.851562 L 740.910156 461.773438 L 515.988281 461.773438 Z M 515.988281 236.851562 " clip-rule="nonzero"/></clipPath><clipPath id="a93bb90c34"><path d="M 628.449219 461.773438 C 690.558594 461.773438 740.910156 411.421875 740.910156 349.3125 C 740.910156 287.203125 690.558594 236.851562 628.449219 236.851562 C 566.339844 236.851562 515.988281 287.203125 515.988281 349.3125 C 515.988281 411.421875 566.339844 461.773438 628.449219 461.773438 Z M 628.449219 461.773438 " clip-rule="nonzero"/></clipPath><clipPath id="b78bd5a11a"><path d="M 0.988281 0.851562 L 225.910156 0.851562 L 225.910156 225.773438 L 0.988281 225.773438 Z M 0.988281 0.851562 " clip-rule="nonzero"/></clipPath><clipPath id="4b88607ea8"><path d="M 113.449219 225.773438 C 175.558594 225.773438 225.910156 175.421875 225.910156 113.3125 C 225.910156 51.203125 175.558594 0.851562 113.449219 0.851562 C 51.339844 0.851562 0.988281 51.203125 0.988281 113.3125 C 0.988281 175.421875 51.339844 225.773438 113.449219 225.773438 Z M 113.449219 225.773438 " clip-rule="nonzero"/></clipPath><clipPath id="14758d8aea"><rect x="0" width="226" y="0" height="226"/></clipPath></defs><g clip-path="url(#49df94c91a)"><g clip-path="url(#a93bb90c34)"><g transform="matrix(1, 0, 0, 1, 515, 236)"><g clip-path="url(#14758d8aea)"><g clip-path="url(#b78bd5a11a)"><g clip-path="url(#4b88607ea8)"><path fill="#00bcd4" d="M 225.910156 225.773438 L 0.988281 225.773438 L 0.988281 0.851562 L 225.910156 0.851562 Z M 225.910156 225.773438 " fill-opacity="1" fill-rule="nonzero"/></g></g></g></g></g></g></svg>