<?xml version="1.0" encoding="UTF-8"?>
<svg version="1.1" xmlns="http://www.w3.org/2000/svg" width="1200" height="242">
<path d="M0 0 C1.09159424 0.00829834 2.18318848 0.01659668 3.30786133 0.02514648 C27.79091889 0.53509676 46.35370956 13.04544351 63.6875 29.4375 C64.71810547 30.40623047 64.71810547 30.40623047 65.76953125 31.39453125 C70.55966766 36.03349965 74.70526445 41.05609692 78.8046875 46.3125 C79.42601562 47.01375 80.04734375 47.715 80.6875 48.4375 C81.3475 48.4375 82.0075 48.4375 82.6875 48.4375 C83.93564331 47.03071977 85.1105839 45.55870296 86.25 44.0625 C98.31981012 28.62790468 111.26410595 15.09679125 128.8125 6.125 C129.46951904 5.78702393 130.12653809 5.44904785 130.8034668 5.10083008 C144.057299 -1.43750638 161.06122898 -1.75253536 175.25 2 C188.52331397 6.58909295 199.16584294 13.33308826 209.6875 22.4375 C210.43644531 23.08332031 211.18539063 23.72914062 211.95703125 24.39453125 C241.24619766 51.77483142 256.82488008 98.59348488 258.80052185 137.67315674 C258.86653534 139.97646531 258.9041714 142.27787914 258.92578125 144.58203125 C258.933853 145.43190109 258.94192474 146.28177094 258.95024109 147.15739441 C258.96398443 148.94988021 258.97474952 150.74239111 258.98266602 152.53491211 C258.99409679 154.32535765 259.01440433 156.11577158 259.04418945 157.90600586 C259.46321412 183.20900946 254.79665431 208.28547146 237.25 227.625 C223.89943385 240.42439599 207.84728525 242.99010787 190.08203125 242.6796875 C170.71366018 242.00268266 155.77466863 232.20852544 142.75 218.375 C126.57207593 199.97005157 114.30028813 178.91056245 101.88383484 157.90254211 C97.05797568 149.73816572 92.2086456 141.5886916 87.30279541 133.47207642 C86.56462735 132.24957266 85.82807048 131.02609447 85.09320068 129.80160522 C84.07680131 128.10866702 83.05417076 126.41947454 82.03125 124.73046875 C81.16790039 123.29997192 81.16790039 123.29997192 80.28710938 121.84057617 C78.89461659 119.74864905 77.54188494 118.11689665 75.6875 116.4375 C75.35105469 117.64019531 75.35105469 117.64019531 75.0078125 118.8671875 C73.32619207 123.41452797 71.00794406 127.38740999 68.5625 131.5625 C67.47481317 133.43984512 66.38759874 135.31746398 65.30078125 137.1953125 C64.7176416 138.19981445 64.13450195 139.20431641 63.53369141 140.23925781 C61.60259133 143.58459119 59.69429597 146.94239057 57.79296875 150.3046875 C14.63915772 226.56161039 14.63915772 226.56161039 -16.3125 239.4375 C-17.11429687 239.7778125 -17.91609375 240.118125 -18.7421875 240.46875 C-34.20712606 245.80489493 -53.51844817 243.28852389 -68.3515625 237.1875 C-83.9057283 229.47613893 -94.70903419 215.23839992 -100.25 199.01953125 C-100.7759375 197.24642578 -100.7759375 197.24642578 -101.3125 195.4375 C-101.50714844 194.8089209 -101.70179687 194.1803418 -101.90234375 193.53271484 C-113.71123294 153.60053154 -103.77809313 104.04582003 -86.3125 67.4375 C-85.93754395 66.64649902 -85.56258789 65.85549805 -85.17626953 65.04052734 C-73.44489076 40.67385265 -56.69670381 19.79586426 -32.4375 7.1875 C-31.81375488 6.85766113 -31.19000977 6.52782227 -30.54736328 6.18798828 C-20.8180291 1.34193124 -10.77370282 -0.10672024 0 0 Z M117.6875 51.4375 C115.36854155 54.22653548 113.17477519 57.09771995 111 60 C110.16758789 61.09344727 110.16758789 61.09344727 109.31835938 62.20898438 C107.75648349 64.27229485 106.21938298 66.35187431 104.6875 68.4375 C104.25228027 69.00581543 103.81706055 69.57413086 103.36865234 70.15966797 C101.2109662 72.95218922 101.2109662 72.95218922 100.91943359 76.32104492 C101.81960083 78.80151211 103.00879969 80.80037057 104.43359375 83.0234375 C105.01447754 83.93891357 105.59536133 84.85438965 106.19384766 85.79760742 C106.83112793 86.79252197 107.4684082 87.78743652 108.125 88.8125 C113.75702806 97.70672463 119.26775201 106.65984643 124.66311646 115.69937134 C135.12224891 133.22216024 145.72583988 150.61073452 157 167.625 C157.37495605 168.19358734 157.74991211 168.76217468 158.13623047 169.34799194 C170.54392888 189.35001346 170.54392888 189.35001346 189.6015625 202.01953125 C197.21532593 203.54513553 204.15225631 202.73764176 210.6875 198.4375 C220.04963879 190.40752326 222.69169142 179.3011454 223.6875 167.4375 C225.89727544 130.18085802 218.10193866 82.81570955 192.7421875 53.63671875 C192.06414062 52.91097656 191.38609375 52.18523438 190.6875 51.4375 C189.51574219 50.14779297 189.51574219 50.14779297 188.3203125 48.83203125 C178.69028622 38.67700354 168.44287426 32.44291365 154.3125 32 C138.90753466 32.38435542 127.86404317 40.38959205 117.6875 51.4375 Z M-34.3515625 58.8515625 C-58.37681 90.5342594 -69.02738872 133.36600636 -65.078125 172.77636719 C-63.65255913 182.2160517 -60.00695694 190.58735802 -53.3125 197.4375 C-46.63571521 202.14433252 -40.32568447 203.22265352 -32.3125 202.4375 C-15.92707892 198.68356452 -4.30205491 181.39886429 4.625 168.3125 C5.32101318 167.301875 6.01702637 166.29125 6.73413086 165.25 C10.93489234 159.11354091 15.00636708 152.91682876 18.89038086 146.57568359 C22.53978847 140.61935338 26.35713951 134.77875236 30.1875 128.9375 C34.93520638 121.69187145 39.61263513 114.41385773 44.16943359 107.046875 C48.50584049 100.06461815 53.08819445 93.24838652 57.6875 86.4375 C46.98288766 67.96827448 30.63354396 47.98533895 9.6875 41.4375 C-8.05268774 37.26168962 -23.01888926 45.29861042 -34.3515625 58.8515625 Z " fill="#0076F0" transform="translate(105.3125,-0.4375)"/>
<path d="M0 0 C15.51 0 31.02 0 47 0 C49.206875 4.145625 51.41375 8.29125 53.6875 12.5625 C59.06873967 22.63655157 64.565392 32.63095931 70.22338867 42.55297852 C74.0743194 49.32051386 77.81066482 56.14316548 81.5 63 C85.74392423 70.88612655 90.07057578 78.71654544 94.5 86.5 C99.57833216 95.42390302 104.50815518 104.41964017 109.37768555 113.45898438 C113.81952335 121.69630119 118.37110916 129.86654839 123 138 C133.96000088 119.0563563 144.44389871 99.83735755 155.00805664 80.67111206 C160.4299623 70.83448364 165.87658531 61.01184609 171.33789062 51.19702148 C174.65446953 45.23322075 177.96015764 39.26373695 181.25 33.28515625 C181.6059021 32.63868134 181.9618042 31.99220642 182.32849121 31.32614136 C184.04060105 28.21588648 185.75118467 25.10481107 187.45898438 21.9921875 C188.08095703 20.86167969 188.70292969 19.73117188 189.34375 18.56640625 C190.15102539 17.09602905 190.15102539 17.09602905 190.97460938 15.59594727 C193.92226469 10.36257996 196.97355057 5.18819902 200 0 C215.18 0 230.36 0 246 0 C246 76.23 246 152.46 246 231 C233.13 231 220.26 231 207 231 C206.67 174.57 206.34 118.14 206 60 C200.72 69.57 195.44 79.14 190 89 C185.62223241 96.88721764 181.24354101 104.77384655 176.85888672 112.65722656 C173.7374165 118.27046142 170.61889715 123.8853352 167.5 129.5 C166.88914551 130.59940918 166.27829102 131.69881836 165.64892578 132.83154297 C162.73346121 138.07876558 159.81857795 143.32630882 156.90567017 148.57495117 C155.53743043 151.04024222 154.16887352 153.50535712 152.80029297 155.97045898 C151.84051181 157.69953582 150.88118654 159.42886569 149.921875 161.15820312 C149.33535156 162.21458984 148.74882813 163.27097656 148.14453125 164.359375 C147.37653198 165.74334473 147.37653198 165.74334473 146.59301758 167.15527344 C144.74877261 170.44862859 142.87656774 173.72496124 141 177 C135.98327623 177.24805039 130.97014499 177.42900266 125.94873047 177.54931641 C124.2430199 177.59947485 122.53773664 177.66762724 120.83349609 177.75439453 C106.77673429 178.45189877 106.77673429 178.45189877 102.7565918 175.16674805 C101.15063883 172.51627282 100.09101178 169.89889255 99 167 C97.91541379 165.00625573 96.80056773 163.02875309 95.66015625 161.06640625 C94.45922209 158.89938727 93.26008369 156.73137238 92.0625 154.5625 C91.40643613 153.3775011 90.75018184 152.19260761 90.09375 151.0078125 C88.73510844 148.55525426 87.37727291 146.10225249 86.02001953 143.64892578 C82.85433028 137.92836989 79.67644357 132.21458876 76.5 126.5 C75.24994466 124.25003075 73.99994479 122.00003067 72.75 119.75 C72.13125 118.63625 71.5125 117.5225 70.875 116.375 C60.25 97.25 49.625 78.125 39 59 C38.67 115.76 38.34 172.52 38 231 C25.46 231 12.92 231 0 231 C0 154.77 0 78.54 0 0 Z " fill="#19272F" transform="translate(440,7)"/>
<path d="M0 0 C4.24718205 3.4348137 8.08556995 7.17989356 12 11 C12.33 5.06 12.66 -0.88 13 -7 C24.88 -7 36.76 -7 49 -7 C49 49.76 49 106.52 49 165 C37.12 165 25.24 165 13 165 C12.67 158.4 12.34 151.8 12 145 C10.576875 146.505625 9.15375 148.01125 7.6875 149.5625 C-5.85742692 163.03133183 -23.16138792 169.41785966 -42.125 169.375 C-62.46497171 169.27433377 -81.26493191 162.3590536 -96 148 C-114.80688553 128.69409263 -121.43487411 102.30068596 -121.29833984 76.02490234 C-120.77713145 50.77575479 -112.85027967 28.20492099 -95 10 C-93.89398437 8.83984375 -93.89398437 8.83984375 -92.765625 7.65625 C-69.27429368 -15.36210149 -26.95798832 -18.51047887 0 0 Z M-71 38 C-82.88529542 54.17353119 -85.28010156 73.88362116 -82.67919922 93.40820312 C-80.1003426 107.13285926 -73.84562381 119.40396969 -62.51171875 127.85546875 C-50.40390344 135.48169768 -37.02197037 137.61626834 -22.94140625 134.78515625 C-8.4502489 130.91699871 2.61689452 122.80240577 10.56274414 110.09277344 C13.63809421 104.48348593 13.74082065 99.42588655 13.69921875 93.1328125 C13.70637405 92.0174411 13.71352936 90.9020697 13.72090149 89.75289917 C13.72864996 87.40477288 13.72372734 85.05657406 13.70678711 82.70849609 C13.68758881 79.14150111 13.72696823 75.57842085 13.77148438 72.01171875 C13.77177484 69.71874771 13.76863217 67.42577314 13.76171875 65.1328125 C13.77700119 64.08038361 13.79228363 63.02795471 13.80802917 61.94363403 C13.63797624 50.98065148 8.52692237 42.83981858 1.12109375 35 C-9.3128896 25.16169526 -22.67796865 21.62806524 -36.78125 21.78515625 C-50.07553925 22.67251779 -62.01307901 28.15061058 -71 38 Z " fill="#18272F" transform="translate(1151,73)"/>
<path d="M0 0 C18.97888705 16.24543032 27.68902827 37.86656266 30.6875 62.1875 C30.6875 71.0975 30.6875 80.0075 30.6875 89.1875 C-10.5625 89.1875 -51.8125 89.1875 -94.3125 89.1875 C-89.28465944 105.27658978 -84.73340871 118.39148547 -69.625 126.4375 C-52.03876477 134.58775028 -33.30018531 133.93115387 -15.1875 127.5625 C-7.77989175 124.36291122 0.2283937 119.14115948 5.6875 113.1875 C9.28877117 114.6582178 11.03194947 116.55496524 13.375 119.625 C17.1149787 124.48697231 21.05581891 129.12870927 25.09765625 133.7421875 C26.6875 136.1875 26.6875 136.1875 26.78125 138.2109375 C25.15224281 141.1547862 22.77096 142.95535509 20.125 144.9375 C19.2592334 145.58948364 19.2592334 145.58948364 18.37597656 146.25463867 C6.66711959 154.78363957 -6.29281736 159.85541986 -20.3125 163.1875 C-21.85550781 163.55681641 -21.85550781 163.55681641 -23.4296875 163.93359375 C-47.98823479 168.65639131 -75.04039238 165.18908816 -96.1484375 151.4765625 C-116.1634373 136.99657499 -127.29348185 117.41080111 -131.84301758 93.38598633 C-135.86233149 66.00323459 -130.94124432 37.63804788 -114.3125 15.1875 C-101.82140111 -0.75858369 -83.93902405 -11.40034495 -63.90039062 -14.51513672 C-40.8637551 -17.16217654 -18.80729434 -14.34454653 0 0 Z M-82.3125 32.1875 C-89.2476642 40.33422903 -94.3125 50.39804315 -94.3125 61.1875 C-64.9425 61.1875 -35.5725 61.1875 -5.3125 61.1875 C-7.79839909 46.27210545 -11.46047251 34.20902993 -23.46484375 24.5 C-42.43636457 11.0234017 -67.10519428 15.71291881 -82.3125 32.1875 Z " fill="#18272F" transform="translate(850.3125,76.8125)"/>
<path d="M0 0 C12.21 0 24.42 0 37 0 C37 16.5 37 33 37 50 C54.16 50 71.32 50 89 50 C89 60.23 89 70.46 89 81 C71.84 81 54.68 81 37 81 C37.09101092 95.99232902 37.09101092 95.99232902 37.20898438 110.984375 C37.26313286 117.10674687 37.3142492 123.22903063 37.34643555 129.3515625 C37.37261018 134.29247701 37.41311092 139.23309247 37.46318626 144.1738205 C37.47975979 146.05063889 37.49133289 147.92750889 37.49761391 149.80438995 C37.27982508 168.98462962 37.27982508 168.98462962 45 186 C51.90188299 190.48037489 58.20087697 192.1440539 66.375 192.125 C67.45523438 192.12757813 68.53546875 192.13015625 69.6484375 192.1328125 C76.10699368 191.93569319 82.55274776 191.42981682 89 191 C89 201.23 89 211.46 89 222 C65.23396014 227.48447074 42.48976346 228.98924345 21 216 C9.91581432 208.8687766 4.80193776 195.76351512 1.8125 183.4375 C0.27206957 175.6062709 -0.14991529 167.75142204 -0.11352539 159.78662109 C-0.11367142 158.92684662 -0.11381744 158.06707214 -0.1139679 157.1812439 C-0.11327895 154.37861483 -0.10553495 151.57605475 -0.09765625 148.7734375 C-0.09578844 146.8147485 -0.09436625 144.85605902 -0.09336853 142.89736938 C-0.0895719 137.77153202 -0.07976634 132.64572352 -0.06866455 127.51989746 C-0.05838871 122.27759186 -0.05385775 117.03528154 -0.04882812 111.79296875 C-0.03814121 101.52863119 -0.02056788 91.26432252 0 81 C-11.22 81 -22.44 81 -34 81 C-34 70.77 -34 60.54 -34 50 C-22.78 50 -11.56 50 0 50 C0 33.5 0 17 0 0 Z " fill="#18282F" transform="translate(925,16)"/>
</svg>
