<?xml version="1.0" encoding="UTF-8"?>
<svg version="1.1" xmlns="http://www.w3.org/2000/svg" width="1200" height="647">
<path d="M0 0 C4.13202536 3.98954172 6.75144589 8.14210983 7.25447559 13.9259758 C7.25652846 15.01281284 7.25858133 16.09964989 7.26069641 17.21942139 C7.26778122 18.47226425 7.27486603 19.72510712 7.28216553 21.01591492 C7.27987176 22.39700354 7.27736207 23.77809181 7.2746582 25.15917969 C7.27900779 26.62000285 7.28419176 28.08082373 7.29014587 29.54164124 C7.30353329 33.50726188 7.30411391 37.47278718 7.30158257 41.43842602 C7.30051083 44.75996609 7.30540241 48.08148704 7.310188 51.403023 C7.32128628 59.25453643 7.32172141 67.10600205 7.31567383 74.95751953 C7.30965856 83.01950655 7.32188168 91.08131796 7.3432439 99.14327502 C7.36096184 106.08881823 7.36684458 113.03430611 7.36360615 119.97987103 C7.36180634 124.11690617 7.36429587 128.25381658 7.37832069 132.39083099 C7.47473837 163.46883741 5.21792293 192.28267016 -16 217 C-16.68964844 217.82242188 -17.37929688 218.64484375 -18.08984375 219.4921875 C-33.09889821 236.84887966 -55.87255919 249.86761418 -79 252 C-98.3980382 253.24463156 -116.38385716 251.63089757 -134 243 C-134.8971875 242.57074219 -135.794375 242.14148438 -136.71875 241.69921875 C-159.49096586 230.08407991 -176.73266363 209.75684958 -184.99902344 185.62597656 C-193.5800494 159.01184803 -191.8704488 130.26559336 -179.1484375 105.27734375 C-166.76116341 82.0660558 -146.91476195 66.57556331 -122 59 C-95.00419051 51.29123021 -64.89462788 54.13479063 -40 67 C-38.65286205 67.98132417 -37.31644397 68.97786838 -36 70 C-35.99413376 69.31841324 -35.98826752 68.63682648 -35.98222351 67.93458557 C-35.91807101 60.8123239 -35.83359516 53.69050496 -35.73754883 46.56860352 C-35.70277337 43.91394197 -35.67632813 41.25957104 -35.65356445 38.60473633 C-35.61986211 34.77916148 -35.56753604 30.9542147 -35.51171875 27.12890625 C-35.50532883 25.95042618 -35.4989389 24.77194611 -35.49235535 23.55775452 C-35.33839243 14.84241925 -34.55081663 6.3688495 -28 0 C-18.8068824 -6.47248136 -9.10831937 -6.48091955 0 0 Z M-135.74804688 117.41845703 C-146.78030999 131.35507959 -149.56142819 146.58989541 -148 164 C-145.29182843 178.99439624 -136.34946 191.79351842 -124.1875 200.8125 C-111.52704961 209.13502863 -97.12316512 212.97745158 -82.1328125 210.3125 C-66.6104809 206.96806243 -53.66312841 199.4502197 -44.375 186.23046875 C-35.38419277 171.64594907 -32.7321755 157.10449488 -35.65234375 140.23046875 C-39.95212962 124.96899702 -49.35351287 112.5367247 -62.75 104.0625 C-87.64513878 90.69943196 -117.33678268 95.97336084 -135.74804688 117.41845703 Z " fill="#8F8F8F" transform="translate(589,200)"/>
<path d="M0 0 C18.63789168 18.50042721 28.71066807 43.90612652 28.96386719 70.01464844 C28.69490491 97.77099526 17.93930722 121.61751765 -1.09863281 141.63964844 C-20.70794842 160.74001997 -45.81965084 169.01864136 -72.77392578 168.94287109 C-101.25320735 168.48643209 -123.9086097 156.07967155 -143.65332031 136.33496094 C-161.41306336 117.46955296 -169.25183143 91.68344385 -168.65722656 66.19042969 C-167.53704824 39.64610447 -156.09652323 15.08085398 -136.65332031 -2.98535156 C-96.15192297 -37.14037611 -38.90952506 -36.19218316 0 0 Z M-114.15917969 33.99560547 C-125.19144281 47.93222803 -127.972561 63.16704384 -126.41113281 80.57714844 C-123.70296125 95.57154468 -114.76059282 108.37066686 -102.59863281 117.38964844 C-89.93818242 125.71217707 -75.53429793 129.55460001 -60.54394531 126.88964844 C-45.02161371 123.54521086 -32.07426122 116.02736814 -22.78613281 102.80761719 C-13.79532558 88.22309751 -11.14330831 73.68164332 -14.06347656 56.80761719 C-18.36326243 41.54614545 -27.76464568 29.11387314 -41.16113281 20.63964844 C-66.05627159 7.2765804 -95.74791549 12.55050928 -114.15917969 33.99560547 Z " fill="#8F8F8F" transform="translate(977.4111328125,283.4228515625)"/>
<path d="M0 0 C19.98303127 21.47476611 29.0819407 47.55540854 28.13183594 76.62744141 C26.68796425 102.6117841 14.17977396 125.60704842 -4.24609375 143.5546875 C-25.81186954 162.70387281 -51.6984176 169.21231622 -79.94580078 168.19091797 C-106.47873807 166.53234427 -128.46101086 152.56054508 -146.25 133.625 C-163.7521936 113.24822574 -170.99828073 86.45805457 -169 60 C-166.95221977 42.03428009 -161.0154755 25.4213204 -150 11 C-149.60329102 10.4745459 -149.20658203 9.9490918 -148.79785156 9.40771484 C-132.4039242 -12.02903036 -108.95466303 -24.68266328 -82.3203125 -28.37109375 C-51.46519486 -31.75763105 -22.54413199 -21.06380595 0 0 Z M-114.74804688 33.41845703 C-125.78030999 47.35507959 -128.56142819 62.58989541 -127 80 C-124.29182843 94.99439624 -115.34946 107.79351842 -103.1875 116.8125 C-90.52704961 125.13502863 -76.12316512 128.97745158 -61.1328125 126.3125 C-45.6104809 122.96806243 -32.66312841 115.4502197 -23.375 102.23046875 C-14.38419277 87.64594907 -11.7321755 73.10449488 -14.65234375 56.23046875 C-18.95212962 40.96899702 -28.35351287 28.5367247 -41.75 20.0625 C-66.64513878 6.69943196 -96.33678268 11.97336084 -114.74804688 33.41845703 Z " fill="#87597A" transform="translate(363,284)"/>
<path d="M0 0 C18.65851321 18.57274009 28.74429441 43.80874518 28.84326172 70.0234375 C28.8029863 97.77319977 17.91794751 121.65339235 -1.09423828 141.6484375 C-20.70355389 160.74880904 -45.8152563 169.02743042 -72.76953125 168.95166016 C-101.24881282 168.49522115 -123.90421517 156.08846061 -143.64892578 136.34375 C-161.40866883 117.47834202 -169.2474369 91.69223291 -168.65283203 66.19921875 C-167.5326537 39.65489353 -156.0921287 15.08964304 -136.64892578 -2.9765625 C-96.1503185 -37.12923417 -38.91299786 -36.18287787 0 0 Z M-114.15478516 34.00439453 C-125.18704828 47.94101709 -127.96816647 63.17583291 -126.40673828 80.5859375 C-123.69856672 95.58033374 -114.75619828 108.37945592 -102.59423828 117.3984375 C-89.93378789 125.72096613 -75.5299034 129.56338908 -60.53955078 126.8984375 C-45.01721918 123.55399993 -32.06986669 116.0361572 -22.78173828 102.81640625 C-13.79093105 88.23188657 -11.13891378 73.69043238 -14.05908203 56.81640625 C-18.3588679 41.55493452 -27.76025115 29.1226622 -41.15673828 20.6484375 C-66.05187706 7.28536946 -95.74352096 12.55929834 -114.15478516 34.00439453 Z " fill="#8F8F8F" transform="translate(772.40673828125,283.4140625)"/>
</svg>
