<svg xmlns="http://www.w3.org/2000/svg" xmlns:xlink="http://www.w3.org/1999/xlink" width="1910" zoomAndPan="magnify" viewBox="0 0 1432.5 749.999995" height="1000" preserveAspectRatio="xMidYMid meet" version="1.0"><defs><clipPath id="efa228bcaf"><path d="M 382.492188 523 L 476 523 L 476 613 L 382.492188 613 Z M 382.492188 523 " clip-rule="nonzero"/></clipPath><clipPath id="aed101bda3"><path d="M 1029 523 L 1049.757812 523 L 1049.757812 613 L 1029 613 Z M 1029 523 " clip-rule="nonzero"/></clipPath><clipPath id="6bd434a8e2"><path d="M 581 641 L 659 641 L 659 732.601562 L 581 732.601562 Z M 581 641 " clip-rule="nonzero"/></clipPath><clipPath id="a4a6d3c11e"><path d="M 732 641 L 810 641 L 810 732.601562 L 732 732.601562 Z M 732 641 " clip-rule="nonzero"/></clipPath><clipPath id="ef6c689e2e"><path d="M 899 641 L 962 641 L 962 732.601562 L 899 732.601562 Z M 899 641 " clip-rule="nonzero"/></clipPath><clipPath id="d120c8e1c5"><path d="M 630 17.347656 L 800 17.347656 L 800 311 L 630 311 Z M 630 17.347656 " clip-rule="nonzero"/></clipPath></defs><g clip-path="url(#efa228bcaf)"><path fill="#231916" d="M 402.265625 549.914062 L 402.265625 612.152344 L 382.492188 612.152344 L 382.492188 523.839844 L 408.15625 523.839844 L 429.191406 560.007812 L 449.386719 523.839844 L 475.46875 523.839844 L 475.46875 612.152344 L 455.695312 612.152344 L 455.695312 549.914062 L 429.191406 594.492188 Z M 402.265625 549.914062 " fill-opacity="1" fill-rule="nonzero"/></g><path fill="#231916" d="M 492.300781 523.839844 L 512.074219 523.839844 L 512.074219 612.152344 L 492.300781 612.152344 Z M 492.300781 523.839844 " fill-opacity="1" fill-rule="nonzero"/><path fill="#231916" d="M 564.664062 542.34375 L 564.664062 612.152344 L 544.46875 612.152344 L 544.46875 542.34375 L 520.90625 542.34375 L 520.90625 523.839844 L 588.644531 523.839844 L 588.644531 542.34375 Z M 564.664062 542.34375 " fill-opacity="1" fill-rule="nonzero"/><path fill="#231916" d="M 595.796875 611.3125 L 595.796875 592.808594 C 600.003906 593.648438 609.679688 595.332031 621.882812 595.332031 C 631.980469 595.332031 637.027344 594.070312 637.027344 588.183594 C 637.027344 581.875 632.820312 581.035156 618.515625 574.304688 C 604.632812 567.996094 594.113281 562.53125 594.113281 547.390625 C 594.113281 528.886719 605.472656 522.578125 627.351562 522.578125 C 638.710938 522.578125 646.703125 523.421875 652.171875 524.261719 L 652.171875 542.765625 C 647.125 542.34375 638.289062 541.082031 628.191406 541.082031 C 616.410156 541.082031 613.886719 542.34375 613.886719 547.390625 C 613.886719 552.4375 620.199219 554.960938 629.875 559.167969 C 644.601562 565.894531 656.378906 571.363281 656.378906 588.183594 C 656.378906 605.84375 645.441406 613.835938 621.882812 613.835938 C 612.625 613.414062 604.210938 612.574219 595.796875 611.3125 " fill-opacity="1" fill-rule="nonzero"/><path fill="#231916" d="M 668.582031 582.296875 L 668.582031 523.839844 L 688.355469 523.839844 L 688.355469 581.453125 C 688.355469 591.546875 694.246094 594.910156 703.921875 594.910156 C 713.179688 594.910156 719.488281 591.546875 719.488281 581.453125 L 719.488281 523.839844 L 739.261719 523.839844 L 739.261719 582.296875 C 739.261719 603.742188 725.378906 613.414062 703.921875 613.414062 C 682.464844 613.414062 668.582031 603.742188 668.582031 582.296875 " fill-opacity="1" fill-rule="nonzero"/><path fill="#231916" d="M 756.089844 523.839844 L 794.796875 523.839844 C 812.890625 523.839844 822.988281 530.570312 822.988281 546.550781 C 822.988281 559.167969 815.835938 563.371094 809.101562 565.894531 C 817.097656 568.417969 825.511719 572.625 825.511719 587.339844 C 825.511719 602.902344 816.253906 612.152344 796.480469 612.152344 L 756.511719 612.152344 L 756.511719 523.839844 Z M 791.851562 559.585938 C 799.847656 559.585938 802.792969 555.382812 802.792969 549.492188 C 802.792969 542.34375 799.425781 540.664062 791.851562 540.664062 L 775.867188 540.664062 L 775.867188 559.585938 Z M 793.117188 595.753906 C 801.109375 595.753906 804.476562 592.808594 804.476562 585.238281 C 804.476562 578.511719 801.53125 575.566406 793.957031 575.566406 L 775.867188 575.566406 L 775.867188 595.753906 Z M 793.117188 595.753906 " fill-opacity="1" fill-rule="nonzero"/><path fill="#231916" d="M 836.871094 523.839844 L 856.644531 523.839844 L 856.644531 612.152344 L 836.871094 612.152344 Z M 836.871094 523.839844 " fill-opacity="1" fill-rule="nonzero"/><path fill="#231916" d="M 870.949219 611.3125 L 870.949219 592.808594 C 875.15625 593.648438 884.832031 595.332031 897.035156 595.332031 C 907.128906 595.332031 912.179688 594.070312 912.179688 588.183594 C 912.179688 581.875 907.972656 581.035156 893.667969 574.304688 C 879.785156 567.996094 869.265625 562.53125 869.265625 547.390625 C 869.265625 528.886719 880.625 522.578125 902.503906 522.578125 C 913.863281 522.578125 921.855469 523.421875 927.324219 524.261719 L 927.324219 542.765625 C 922.277344 542.34375 913.441406 541.082031 903.34375 541.082031 C 891.5625 541.082031 889.039062 542.34375 889.039062 547.390625 C 889.039062 552.4375 895.351562 554.960938 905.027344 559.167969 C 919.753906 565.894531 931.53125 571.363281 931.53125 588.183594 C 931.53125 605.84375 920.59375 613.835938 897.035156 613.835938 C 888.199219 613.414062 879.363281 612.574219 870.949219 611.3125 " fill-opacity="1" fill-rule="nonzero"/><path fill="#231916" d="M 962.246094 612.152344 L 942.472656 612.152344 L 942.472656 523.839844 L 962.246094 523.839844 L 962.246094 558.746094 L 993.800781 558.746094 L 993.800781 523.839844 L 1013.574219 523.839844 L 1013.574219 612.152344 L 993.800781 612.152344 L 993.800781 577.25 L 962.246094 577.25 Z M 962.246094 612.152344 " fill-opacity="1" fill-rule="nonzero"/><g clip-path="url(#aed101bda3)"><path fill="#231916" d="M 1029.980469 523.839844 L 1049.753906 523.839844 L 1049.753906 612.152344 L 1029.980469 612.152344 Z M 1029.980469 523.839844 " fill-opacity="1" fill-rule="nonzero"/></g><path fill="#231916" d="M 495.242188 668.925781 L 495.242188 731.164062 L 475.050781 731.164062 L 475.050781 642.851562 L 500.714844 642.851562 L 521.75 678.597656 L 542.363281 642.851562 L 568.449219 642.851562 L 568.449219 731.164062 L 548.253906 731.164062 L 548.253906 668.925781 L 521.75 713.5 Z M 495.242188 668.925781 " fill-opacity="1" fill-rule="nonzero"/><g clip-path="url(#6bd434a8e2)"><path fill="#231916" d="M 581.914062 687.007812 C 581.914062 655.46875 594.113281 641.589844 620.199219 641.589844 C 646.285156 641.589844 658.484375 655.46875 658.484375 687.007812 C 658.484375 718.546875 646.285156 732.425781 620.199219 732.425781 C 594.113281 732.425781 581.914062 718.546875 581.914062 687.007812 M 637.449219 687.007812 C 637.449219 668.925781 634.503906 659.671875 619.777344 659.671875 C 605.472656 659.671875 602.109375 668.925781 602.109375 687.007812 C 602.109375 705.089844 605.050781 714.34375 619.777344 714.34375 C 634.503906 714.34375 637.449219 705.089844 637.449219 687.007812 " fill-opacity="1" fill-rule="nonzero"/></g><path fill="#231916" d="M 705.183594 661.355469 L 705.183594 731.164062 L 685.410156 731.164062 L 685.410156 661.355469 L 661.429688 661.355469 L 661.429688 642.851562 L 729.164062 642.851562 L 729.164062 661.355469 Z M 705.183594 661.355469 " fill-opacity="1" fill-rule="nonzero"/><g clip-path="url(#a4a6d3c11e)"><path fill="#231916" d="M 732.53125 687.007812 C 732.53125 655.46875 744.730469 641.589844 770.816406 641.589844 C 796.902344 641.589844 809.101562 655.46875 809.101562 687.007812 C 809.101562 718.546875 796.902344 732.425781 770.816406 732.425781 C 744.730469 732.425781 732.53125 718.546875 732.53125 687.007812 M 788.066406 687.007812 C 788.066406 668.925781 785.121094 659.671875 770.394531 659.671875 C 755.671875 659.671875 752.726562 668.925781 752.726562 687.007812 C 752.726562 705.089844 755.671875 714.34375 770.394531 714.34375 C 785.121094 714.34375 788.066406 705.089844 788.066406 687.007812 " fill-opacity="1" fill-rule="nonzero"/></g><path fill="#231916" d="M 822.144531 642.851562 L 857.90625 642.851562 C 876.839844 642.851562 889.039062 650 889.039062 671.027344 C 889.039062 684.90625 882.308594 693.734375 870.949219 696.257812 L 892.828125 731.164062 L 869.6875 731.164062 L 851.175781 699.625 L 842.339844 699.625 L 842.339844 731.164062 L 822.566406 731.164062 L 822.566406 642.851562 Z M 857.066406 682.382812 C 865.898438 682.382812 868.84375 677.757812 868.84375 671.027344 C 868.84375 664.300781 865.898438 659.671875 857.066406 659.671875 L 842.339844 659.671875 L 842.339844 682.382812 Z M 857.066406 682.382812 " fill-opacity="1" fill-rule="nonzero"/><g clip-path="url(#ef6c689e2e)"><path fill="#231916" d="M 900.820312 729.902344 L 900.820312 711.398438 C 905.027344 712.238281 914.703125 713.921875 926.90625 713.921875 C 937.003906 713.921875 942.050781 712.660156 942.050781 706.773438 C 942.050781 700.464844 937.84375 699.625 923.539062 692.894531 C 909.65625 686.585938 899.136719 681.121094 899.136719 665.980469 C 899.136719 647.476562 910.496094 641.167969 932.375 641.167969 C 943.734375 641.167969 951.726562 642.011719 957.195312 642.851562 L 957.195312 661.355469 C 952.148438 660.933594 943.3125 659.671875 933.214844 659.671875 C 921.433594 659.671875 918.910156 660.933594 918.910156 665.5625 C 918.910156 670.605469 925.222656 673.128906 934.898438 677.335938 C 949.625 684.0625 961.402344 689.53125 961.402344 706.351562 C 961.402344 724.015625 950.464844 732.003906 926.90625 732.003906 C 918.070312 732.425781 909.234375 731.585938 900.820312 729.902344 " fill-opacity="1" fill-rule="nonzero"/></g><g clip-path="url(#d120c8e1c5)"><path fill="#e60013" d="M 714.859375 310.632812 L 799.847656 163.867188 L 714.859375 17.519531 L 630.296875 163.867188 Z M 714.859375 310.632812 " fill-opacity="1" fill-rule="nonzero"/></g><path fill="#e60013" d="M 714.859375 310.632812 L 799.847656 456.976562 L 968.976562 456.976562 L 884.410156 310.632812 Z M 714.859375 310.632812 " fill-opacity="1" fill-rule="nonzero"/><path fill="#e60013" d="M 714.859375 310.632812 L 630.296875 456.976562 L 461.164062 456.976562 L 545.730469 310.632812 Z M 714.859375 310.632812 " fill-opacity="1" fill-rule="nonzero"/></svg>