<svg xmlns="http://www.w3.org/2000/svg" xmlns:xlink="http://www.w3.org/1999/xlink" width="1910" zoomAndPan="magnify" viewBox="0 0 1432.5 749.999995" height="1000" preserveAspectRatio="xMidYMid meet" version="1.0"><defs><clipPath id="0522386447"><path d="M 327 30.007812 L 1105 30.007812 L 1105 274 L 327 274 Z M 327 30.007812 " clip-rule="nonzero"/></clipPath><clipPath id="af05cea987"><path d="M 328 476 L 1105 476 L 1105 719.765625 L 328 719.765625 Z M 328 476 " clip-rule="nonzero"/></clipPath></defs><path fill="#000000" d="M 784.441406 402.445312 C 783.785156 402.609375 781.167969 402.609375 780.019531 402.609375 L 695.558594 402.609375 L 695.558594 422.238281 L 781.496094 422.238281 C 782.148438 422.238281 787.222656 422.238281 788.207031 422.074219 C 805.71875 420.4375 813.742188 405.882812 813.742188 393.125 C 813.742188 380.039062 805.394531 365.972656 789.515625 364.5 C 786.40625 364.171875 783.785156 364.171875 782.640625 364.171875 L 726.496094 364.171875 C 724.039062 364.171875 721.257812 364.007812 720.273438 363.679688 C 715.855469 362.535156 714.21875 358.609375 714.21875 355.339844 C 714.21875 352.394531 715.855469 348.46875 720.4375 347.160156 C 721.75 346.835938 723.222656 346.671875 726.332031 346.671875 L 807.355469 346.671875 L 807.355469 327.371094 L 725.023438 327.371094 C 721.585938 327.371094 718.964844 327.53125 716.835938 327.859375 C 702.761719 329.824219 692.9375 341.109375 692.9375 355.503906 C 692.9375 367.28125 700.304688 381.019531 716.511719 383.308594 C 719.457031 383.636719 723.550781 383.636719 725.347656 383.636719 L 780.019531 383.636719 C 781.003906 383.636719 783.457031 383.636719 783.949219 383.800781 C 790.171875 384.617188 792.296875 389.199219 792.296875 393.285156 C 792.296875 397.210938 789.84375 401.464844 784.441406 402.445312 Z M 784.441406 402.445312 " fill-opacity="1" fill-rule="nonzero"/><path fill="#000000" d="M 624.355469 402.445312 C 623.699219 402.609375 621.078125 402.609375 620.097656 402.609375 L 535.472656 402.609375 L 535.472656 422.238281 L 621.40625 422.238281 C 622.0625 422.238281 627.136719 422.238281 628.117188 422.074219 C 645.632812 420.4375 653.652344 405.882812 653.652344 393.125 C 653.652344 380.039062 645.304688 365.972656 629.429688 364.5 C 626.316406 364.171875 623.699219 364.171875 622.554688 364.171875 L 566.40625 364.171875 C 563.953125 364.171875 561.167969 364.007812 560.1875 363.679688 C 555.769531 362.535156 554.132812 358.609375 554.132812 355.339844 C 554.132812 352.394531 555.769531 348.46875 560.351562 347.160156 C 561.660156 346.835938 563.132812 346.671875 566.246094 346.671875 L 647.269531 346.671875 L 647.269531 327.371094 L 564.933594 327.371094 C 561.496094 327.371094 558.878906 327.53125 556.75 327.859375 C 542.671875 329.824219 532.851562 341.109375 532.851562 355.503906 C 532.851562 367.28125 540.21875 381.019531 556.421875 383.308594 C 559.371094 383.636719 563.460938 383.636719 565.261719 383.636719 L 619.933594 383.636719 C 620.917969 383.636719 623.371094 383.636719 623.863281 383.800781 C 630.082031 384.617188 632.210938 389.199219 632.210938 393.285156 C 632.210938 397.210938 629.917969 401.464844 624.355469 402.445312 Z M 624.355469 402.445312 " fill-opacity="1" fill-rule="nonzero"/><path fill="#000000" d="M 470.160156 326.714844 L 491.4375 326.714844 L 491.4375 422.730469 L 470.160156 422.730469 Z M 470.160156 326.714844 " fill-opacity="1" fill-rule="nonzero"/><path fill="#000000" d="M 423.179688 422.730469 L 423.179688 326.714844 L 401.902344 326.714844 L 401.902344 398.355469 L 331.023438 326.714844 L 303.6875 326.714844 L 303.6875 422.730469 L 324.96875 422.730469 L 324.96875 350.757812 L 396.335938 422.730469 Z M 423.179688 422.730469 " fill-opacity="1" fill-rule="nonzero"/><path fill="#000000" d="M 1107.5625 326.714844 L 1107.5625 398.355469 L 1036.683594 326.714844 L 1009.347656 326.714844 L 1009.347656 422.730469 L 1030.628906 422.730469 L 1030.628906 350.757812 L 1101.832031 422.730469 L 1128.679688 422.730469 L 1128.679688 326.714844 Z M 1107.5625 326.714844 " fill-opacity="1" fill-rule="nonzero"/><path fill="#000000" d="M 898.53125 326.714844 L 838.621094 422.730469 L 864.484375 422.730469 L 875.125 405.554688 L 945.019531 405.554688 L 955.660156 422.730469 L 981.359375 422.730469 L 921.449219 326.714844 Z M 934.050781 387.398438 L 886.089844 387.398438 L 910.152344 348.796875 Z M 934.050781 387.398438 " fill-opacity="1" fill-rule="nonzero"/><g clip-path="url(#0522386447)"><path fill="#000000" d="M 422.035156 272.246094 C 464.921875 147.121094 583.105469 63.046875 716.347656 63.046875 C 849.589844 63.046875 967.9375 147.121094 1010.660156 272.246094 L 1010.984375 273.230469 L 1104.78125 273.230469 L 1104.78125 261.941406 L 1065.820312 257.363281 C 1041.757812 254.582031 1036.683594 243.949219 1030.136719 230.539062 L 1028.5 227.265625 C 972.191406 107.535156 849.589844 30.007812 716.347656 30.007812 C 582.941406 30.007812 460.5 107.535156 404.191406 227.59375 L 402.554688 230.867188 C 396.007812 244.277344 390.933594 254.910156 366.871094 257.691406 L 327.914062 262.269531 L 327.914062 273.554688 L 421.542969 273.554688 Z M 422.035156 272.246094 " fill-opacity="1" fill-rule="nonzero"/></g><g clip-path="url(#af05cea987)"><path fill="#000000" d="M 1010.984375 476.378906 L 1010.660156 477.359375 C 967.773438 602.488281 849.589844 686.398438 716.347656 686.398438 C 583.105469 686.398438 464.757812 602.324219 422.035156 477.195312 L 421.707031 476.214844 L 328.078125 476.214844 L 328.078125 487.5 L 367.035156 492.082031 C 391.097656 494.863281 396.171875 505.492188 402.71875 518.90625 L 404.355469 522.175781 C 460.664062 642.234375 583.269531 719.765625 716.511719 719.765625 C 849.753906 719.765625 972.355469 642.234375 1028.664062 522.339844 L 1030.300781 519.070312 C 1036.847656 505.65625 1041.921875 495.023438 1065.984375 492.246094 L 1104.941406 487.664062 L 1104.941406 476.378906 Z M 1010.984375 476.378906 " fill-opacity="1" fill-rule="nonzero"/></g></svg>