<svg xmlns="http://www.w3.org/2000/svg" xmlns:xlink="http://www.w3.org/1999/xlink" width="1910" zoomAndPan="magnify" viewBox="0 0 1432.5 749.999995" height="1000" preserveAspectRatio="xMidYMid meet" version="1.0"><defs><clipPath id="95b477910b"><path d="M 36.886719 175 L 1395.414062 175 L 1395.414062 653.621094 L 36.886719 653.621094 Z M 36.886719 175 " clip-rule="nonzero"/></clipPath><clipPath id="dfa3e91b0b"><path d="M 463 96.5625 L 883 96.5625 L 883 318 L 463 318 Z M 463 96.5625 " clip-rule="nonzero"/></clipPath></defs><g clip-path="url(#95b477910b)"><path fill="#000000" d="M 1395.371094 183.996094 L 1395.371094 298.832031 L 1265.949219 298.832031 L 1265.949219 642.277344 L 1130.746094 642.277344 L 1130.746094 298.832031 L 1029.515625 298.832031 L 941.089844 424.527344 L 1114.324219 642.273438 L 946.207031 642.273438 L 851.980469 514.496094 L 752.917969 642.273438 L 463.503906 642.277344 L 463.503906 355.398438 L 595.957031 355.398438 L 595.957031 631.644531 L 766.449219 424.527344 L 696.257812 337.578125 C 706.613281 334.121094 718.078125 329.664062 727.886719 325.523438 C 760.128906 311.914062 788.4375 291.160156 813.773438 270.386719 L 851.980469 324.976562 L 955.078125 183.996094 Z M 219.421875 653.613281 C 352.015625 653.011719 438.472656 612.492188 438.472656 503.472656 C 438.472656 308.425781 166.824219 391.605469 166.824219 314.949219 C 166.824219 288.617188 195.503906 278.015625 238.25 278.015625 C 290.617188 278.015625 358.167969 295.628906 410.546875 312.597656 L 410.546875 201.9375 C 367.046875 189.453125 305.066406 175.25 237.859375 175.25 C 86.480469 175.25 37.058594 246.46875 36.886719 323.558594 C 36.453125 519.242188 304.023438 435.910156 304.023438 511.925781 C 304.023438 537.523438 275.652344 549.019531 218.875 549.0625 C 162.992188 549.0625 103.25 535.5 41.871094 515.25 L 41.871094 625.886719 C 75.539062 639.558594 128.738281 653.613281 219.421875 653.613281 " fill-opacity="1" fill-rule="nonzero"/></g><g clip-path="url(#dfa3e91b0b)"><path fill="#ff5f00" d="M 569.695312 202.894531 C 538.773438 206.917969 497.171875 206.898438 463.511719 206.613281 L 463.511719 317.789062 L 526.367188 317.789062 C 612.273438 317.789062 820.292969 299.285156 882.492188 96.570312 L 749.78125 96.570312 C 710.652344 173.722656 643.839844 193.40625 569.695312 202.894531 " fill-opacity="1" fill-rule="nonzero"/></g></svg>