<svg xmlns="http://www.w3.org/2000/svg" xmlns:xlink="http://www.w3.org/1999/xlink" width="1910" zoomAndPan="magnify" viewBox="0 0 1432.5 749.999995" height="1000" preserveAspectRatio="xMidYMid meet" version="1.0"><defs><clipPath id="f7a0ee8772"><path d="M 754 262.585938 L 1392 262.585938 L 1392 481 L 754 481 Z M 754 262.585938 " clip-rule="nonzero"/></clipPath><clipPath id="620bd28437"><path d="M 40 262.585938 L 678 262.585938 L 678 481 L 40 481 Z M 40 262.585938 " clip-rule="nonzero"/></clipPath></defs><g clip-path="url(#f7a0ee8772)"><path fill="#05c167" d="M 754.144531 262.585938 L 904.332031 262.585938 L 904.332031 299.351562 L 794.714844 299.351562 L 794.714844 351.558594 L 901.28125 351.558594 L 901.28125 387.078125 L 794.714844 387.078125 L 794.714844 440.167969 L 904.332031 440.167969 L 904.332031 476.933594 L 754.144531 476.933594 Z M 1319.105469 480.796875 C 1365.148438 480.796875 1391.09375 458.734375 1391.09375 428.441406 C 1391.09375 406.859375 1375.730469 390.753906 1343.578125 383.769531 L 1309.585938 376.820312 C 1289.851562 373.140625 1283.640625 369.464844 1283.640625 362.113281 C 1283.640625 352.589844 1293.160156 346.742188 1310.6875 346.742188 C 1329.6875 346.742188 1343.761719 351.855469 1347.4375 369.429688 L 1387.269531 369.429688 C 1385.101562 336.339844 1361.328125 314.5 1313.113281 314.5 C 1271.441406 314.5 1242.191406 331.707031 1242.191406 365.054688 C 1242.191406 388.105469 1258.285156 403.105469 1293.011719 410.421875 L 1331.011719 419.210938 C 1346.003906 422.152344 1350.007812 426.195312 1350.007812 432.410156 C 1350.007812 442.300781 1338.691406 448.515625 1320.390625 448.515625 C 1297.386719 448.515625 1284.230469 443.402344 1279.121094 425.828125 L 1239.066406 425.828125 C 1244.910156 458.847656 1269.382812 480.796875 1319.105469 480.796875 Z M 1227.492188 476.789062 L 1184.386719 476.789062 C 1157.339844 476.789062 1142.347656 459.949219 1142.347656 438.699219 L 1142.347656 354.5 L 1112.03125 354.5 L 1112.03125 318.617188 L 1142.492188 318.617188 L 1142.492188 273.578125 L 1182.550781 273.578125 L 1182.550781 318.617188 L 1227.492188 318.617188 L 1227.492188 354.5 L 1182.550781 354.5 L 1182.550781 428.441406 C 1182.550781 436.859375 1188.390625 440.902344 1197.542969 440.902344 L 1227.492188 440.902344 Z M 1054.777344 318.691406 L 1054.777344 332.957031 C 1051.277344 329.996094 1047.546875 327.367188 1043.585938 325.070312 C 1039.625 322.769531 1035.488281 320.835938 1031.1875 319.269531 C 1026.882812 317.699219 1022.472656 316.523438 1017.960938 315.734375 C 1013.449219 314.945312 1008.902344 314.558594 1004.320312 314.574219 C 1002.945312 314.542969 1001.566406 314.546875 1000.191406 314.589844 C 998.8125 314.628906 997.4375 314.703125 996.0625 314.808594 C 994.6875 314.917969 993.320312 315.058594 991.953125 315.238281 C 990.585938 315.414062 989.222656 315.621094 987.867188 315.867188 C 986.511719 316.109375 985.164062 316.386719 983.820312 316.699219 C 982.476562 317.011719 981.144531 317.355469 979.816406 317.734375 C 978.492188 318.109375 977.179688 318.519531 975.871094 318.964844 C 974.566406 319.40625 973.273438 319.882812 971.992188 320.390625 C 970.710938 320.898438 969.445312 321.4375 968.191406 322.007812 C 966.9375 322.578125 965.695312 323.179688 964.472656 323.8125 C 963.246094 324.441406 962.039062 325.105469 960.847656 325.796875 C 959.65625 326.492188 958.480469 327.210938 957.328125 327.964844 C 956.171875 328.714844 955.035156 329.492188 953.917969 330.300781 C 952.800781 331.109375 951.703125 331.941406 950.628906 332.804688 C 949.554688 333.667969 948.5 334.554688 947.46875 335.46875 C 946.4375 336.382812 945.429688 337.324219 944.445312 338.289062 C 943.460938 339.253906 942.5 340.242188 941.566406 341.253906 C 940.628906 342.265625 939.71875 343.300781 938.835938 344.359375 C 937.953125 345.414062 937.09375 346.496094 936.265625 347.59375 C 935.433594 348.695312 934.632812 349.816406 933.855469 350.957031 C 933.082031 352.097656 932.335938 353.253906 931.621094 354.433594 C 930.902344 355.609375 930.214844 356.804688 929.558594 358.015625 C 928.898438 359.226562 928.273438 360.453125 927.675781 361.699219 C 927.082031 362.941406 926.515625 364.195312 925.980469 365.46875 C 925.445312 366.738281 924.945312 368.023438 924.476562 369.320312 C 924.003906 370.613281 923.566406 371.921875 923.160156 373.238281 C 922.757812 374.558594 922.382812 375.882812 922.042969 377.21875 C 921.707031 378.554688 921.398438 379.902344 921.128906 381.25 C 920.855469 382.601562 920.617188 383.960938 920.410156 385.324219 C 920.207031 386.6875 920.035156 388.054688 919.898438 389.425781 C 919.761719 390.800781 919.660156 392.171875 919.589844 393.550781 C 919.523438 394.925781 919.488281 396.304688 919.488281 397.683594 C 919.488281 399.0625 919.523438 400.441406 919.589844 401.816406 C 919.660156 403.195312 919.761719 404.570312 919.898438 405.941406 C 920.035156 407.3125 920.207031 408.679688 920.410156 410.042969 C 920.617188 411.40625 920.855469 412.765625 921.128906 414.117188 C 921.398438 415.46875 921.707031 416.8125 922.042969 418.148438 C 922.382812 419.484375 922.757812 420.8125 923.160156 422.128906 C 923.566406 423.445312 924.003906 424.753906 924.476562 426.050781 C 924.945312 427.34375 925.445312 428.628906 925.980469 429.898438 C 926.515625 431.171875 927.082031 432.429688 927.675781 433.671875 C 928.273438 434.914062 928.898438 436.140625 929.558594 437.351562 C 930.214844 438.5625 930.902344 439.757812 931.621094 440.9375 C 932.335938 442.113281 933.082031 443.273438 933.855469 444.414062 C 934.632812 445.550781 935.433594 446.671875 936.265625 447.773438 C 937.09375 448.875 937.953125 449.953125 938.835938 451.011719 C 939.71875 452.066406 940.628906 453.101562 941.566406 454.117188 C 942.5 455.128906 943.460938 456.117188 944.445312 457.082031 C 945.429688 458.046875 946.4375 458.984375 947.46875 459.898438 C 948.5 460.8125 949.554688 461.703125 950.628906 462.5625 C 951.703125 463.425781 952.800781 464.261719 953.917969 465.066406 C 955.035156 465.875 956.171875 466.65625 957.328125 467.40625 C 958.480469 468.15625 959.65625 468.878906 960.847656 469.570312 C 962.039062 470.261719 963.246094 470.925781 964.472656 471.558594 C 965.695312 472.1875 966.9375 472.789062 968.191406 473.363281 C 969.445312 473.933594 970.710938 474.472656 971.992188 474.976562 C 973.273438 475.484375 974.566406 475.960938 975.871094 476.402344 C 977.179688 476.847656 978.492188 477.257812 979.816406 477.636719 C 981.144531 478.011719 982.476562 478.355469 983.820312 478.667969 C 985.164062 478.980469 986.511719 479.257812 987.867188 479.5 C 989.222656 479.746094 990.585938 479.957031 991.953125 480.132812 C 993.320312 480.308594 994.6875 480.449219 996.0625 480.558594 C 997.4375 480.667969 998.8125 480.738281 1000.191406 480.78125 C 1001.566406 480.820312 1002.945312 480.824219 1004.320312 480.796875 C 1008.902344 480.816406 1013.449219 480.433594 1017.964844 479.644531 C 1022.476562 478.859375 1026.886719 477.683594 1031.191406 476.113281 C 1035.496094 474.542969 1039.628906 472.609375 1043.589844 470.308594 C 1047.550781 468.007812 1051.28125 465.375 1054.777344 462.414062 L 1054.777344 476.714844 L 1094.722656 476.714844 L 1094.722656 318.617188 Z M 1007.628906 446.085938 C 1006.042969 446.105469 1004.460938 446.046875 1002.878906 445.90625 C 1001.296875 445.769531 999.726562 445.554688 998.167969 445.261719 C 996.609375 444.96875 995.066406 444.601562 993.542969 444.15625 C 992.019531 443.710938 990.523438 443.191406 989.050781 442.601562 C 987.578125 442.007812 986.140625 441.34375 984.734375 440.609375 C 983.324219 439.875 981.957031 439.074219 980.628906 438.207031 C 979.300781 437.335938 978.019531 436.40625 976.785156 435.410156 C 975.546875 434.414062 974.363281 433.363281 973.230469 432.25 C 972.097656 431.136719 971.023438 429.972656 970.003906 428.753906 C 968.988281 427.535156 968.03125 426.273438 967.140625 424.960938 C 966.246094 423.648438 965.417969 422.292969 964.660156 420.902344 C 963.898438 419.507812 963.210938 418.078125 962.589844 416.617188 C 961.96875 415.15625 961.425781 413.667969 960.953125 412.152344 C 960.476562 410.636719 960.082031 409.101562 959.757812 407.546875 C 959.4375 405.992188 959.191406 404.425781 959.023438 402.847656 C 958.859375 401.269531 958.769531 399.6875 958.757812 398.097656 C 958.746094 396.511719 958.8125 394.925781 958.957031 393.347656 C 959.097656 391.765625 959.320312 390.195312 959.621094 388.636719 C 959.917969 387.078125 960.292969 385.535156 960.742188 384.015625 C 961.195312 382.492188 961.71875 380.996094 962.316406 379.523438 C 962.914062 378.054688 963.582031 376.617188 964.324219 375.210938 C 965.0625 373.808594 965.867188 372.441406 966.742188 371.117188 C 967.617188 369.792969 968.554688 368.511719 969.550781 367.28125 C 970.550781 366.046875 971.609375 364.867188 972.726562 363.738281 C 973.84375 362.609375 975.011719 361.539062 976.230469 360.527344 C 977.453125 359.511719 978.722656 358.5625 980.035156 357.671875 C 981.351562 356.785156 982.707031 355.964844 984.101562 355.207031 C 985.5 354.453125 986.929688 353.769531 988.390625 353.15625 C 989.855469 352.542969 991.34375 352 992.863281 351.535156 C 994.378906 351.066406 995.914062 350.675781 997.46875 350.359375 C 999.023438 350.042969 1000.589844 349.804688 1002.167969 349.644531 C 1003.746094 349.484375 1005.332031 349.398438 1006.917969 349.394531 C 1008.503906 349.390625 1010.085938 349.460938 1011.667969 349.613281 C 1013.246094 349.761719 1014.8125 349.992188 1016.371094 350.296875 C 1017.929688 350.601562 1019.46875 350.984375 1020.988281 351.441406 C 1022.507812 351.898438 1024 352.425781 1025.464844 353.03125 C 1026.933594 353.636719 1028.367188 354.308594 1029.769531 355.054688 C 1031.171875 355.800781 1032.53125 356.613281 1033.851562 357.492188 C 1035.171875 358.371094 1036.449219 359.316406 1037.675781 360.320312 C 1038.902344 361.324219 1040.078125 362.386719 1041.203125 363.507812 C 1042.328125 364.628906 1043.390625 365.804688 1044.398438 367.03125 C 1045.40625 368.257812 1046.351562 369.53125 1047.234375 370.847656 C 1048.117188 372.167969 1048.933594 373.527344 1049.683594 374.925781 C 1050.433594 376.328125 1051.109375 377.757812 1051.71875 379.226562 C 1052.324219 380.691406 1052.859375 382.1875 1053.320312 383.703125 C 1053.78125 385.222656 1054.164062 386.761719 1054.476562 388.320312 C 1054.785156 389.875 1055.015625 391.445312 1055.171875 393.023438 C 1055.324219 394.605469 1055.402344 396.1875 1055.402344 397.777344 C 1055.417969 399.351562 1055.351562 400.925781 1055.210938 402.496094 C 1055.070312 404.066406 1054.851562 405.625 1054.558594 407.171875 C 1054.261719 408.71875 1053.890625 410.25 1053.445312 411.761719 C 1053 413.273438 1052.480469 414.757812 1051.886719 416.21875 C 1051.292969 417.679688 1050.628906 419.105469 1049.894531 420.5 C 1049.160156 421.894531 1048.359375 423.25 1047.488281 424.566406 C 1046.621094 425.878906 1045.691406 427.148438 1044.695312 428.371094 C 1043.703125 429.59375 1042.648438 430.765625 1041.539062 431.886719 C 1040.429688 433.003906 1039.269531 434.066406 1038.054688 435.070312 C 1036.839844 436.074219 1035.578125 437.015625 1034.269531 437.894531 C 1032.964844 438.773438 1031.613281 439.585938 1030.226562 440.328125 C 1028.839844 441.074219 1027.417969 441.75 1025.960938 442.355469 C 1024.507812 442.960938 1023.027344 443.492188 1021.519531 443.949219 C 1020.011719 444.40625 1018.484375 444.789062 1016.941406 445.097656 C 1015.394531 445.40625 1013.839844 445.636719 1012.269531 445.789062 C 1010.703125 445.941406 1009.132812 446.015625 1007.554688 446.015625 Z M 1007.628906 446.085938 " fill-opacity="1" fill-rule="nonzero"/></g><g clip-path="url(#620bd28437)"><path fill="#000000" d="M 664.992188 348.289062 C 644.890625 348.289062 630.632812 364.023438 630.632812 388.179688 L 630.632812 476.789062 L 599.949219 476.789062 L 599.949219 320.824219 L 630.265625 320.824219 L 630.265625 339.867188 C 631.199219 338.296875 632.226562 336.792969 633.359375 335.359375 C 634.488281 333.925781 635.710938 332.574219 637.019531 331.304688 C 638.332031 330.03125 639.722656 328.855469 641.1875 327.769531 C 642.65625 326.683594 644.1875 325.699219 645.789062 324.816406 C 647.386719 323.933594 649.035156 323.164062 650.738281 322.5 C 652.4375 321.839844 654.175781 321.292969 655.949219 320.863281 C 657.722656 320.433594 659.519531 320.121094 661.335938 319.929688 C 663.148438 319.738281 664.96875 319.667969 666.792969 319.71875 L 677.820312 319.71875 L 677.820312 348.289062 Z M 578.746094 398.804688 C 578.746094 352.296875 545.671875 317.515625 500.914062 317.515625 C 499.597656 317.523438 498.28125 317.5625 496.964844 317.636719 C 495.648438 317.710938 494.335938 317.816406 493.023438 317.957031 C 491.714844 318.09375 490.40625 318.265625 489.105469 318.46875 C 487.804688 318.671875 486.507812 318.90625 485.214844 319.175781 C 483.925781 319.441406 482.640625 319.742188 481.367188 320.070312 C 480.089844 320.402344 478.824219 320.761719 477.566406 321.15625 C 476.308594 321.546875 475.058594 321.972656 473.820312 322.425781 C 472.585938 322.878906 471.359375 323.363281 470.144531 323.878906 C 468.933594 324.394531 467.734375 324.9375 466.546875 325.511719 C 465.359375 326.085938 464.1875 326.6875 463.03125 327.320312 C 461.875 327.953125 460.734375 328.613281 459.609375 329.300781 C 458.484375 329.988281 457.378906 330.703125 456.289062 331.445312 C 455.199219 332.1875 454.128906 332.957031 453.078125 333.753906 C 452.027344 334.546875 450.996094 335.367188 449.984375 336.214844 C 448.972656 337.058594 447.984375 337.929688 447.015625 338.824219 C 446.046875 339.71875 445.101562 340.640625 444.179688 341.582031 C 443.257812 342.523438 442.359375 343.484375 441.484375 344.472656 C 440.609375 345.457031 439.757812 346.464844 438.933594 347.492188 C 438.105469 348.519531 437.308594 349.566406 436.53125 350.632812 C 435.757812 351.703125 435.011719 352.789062 434.289062 353.890625 C 433.570312 354.996094 432.878906 356.117188 432.210938 357.253906 C 431.546875 358.394531 430.910156 359.546875 430.300781 360.714844 C 429.691406 361.886719 429.113281 363.070312 428.5625 364.269531 C 428.011719 365.464844 427.492188 366.679688 427.003906 367.902344 C 426.511719 369.125 426.050781 370.359375 425.621094 371.605469 C 425.191406 372.855469 424.792969 374.109375 424.425781 375.375 C 424.058594 376.644531 423.722656 377.917969 423.417969 379.199219 C 423.113281 380.484375 422.839844 381.773438 422.597656 383.070312 C 422.355469 384.363281 422.144531 385.667969 421.96875 386.972656 C 421.792969 388.28125 421.644531 389.589844 421.535156 390.902344 C 421.421875 392.21875 421.339844 393.535156 421.292969 394.851562 C 421.246094 396.167969 421.230469 397.488281 421.246094 398.804688 C 421.246094 445.277344 457.074219 480.429688 503.816406 480.429688 C 507.070312 480.488281 510.316406 480.355469 513.550781 480.027344 C 516.789062 479.703125 519.992188 479.183594 523.167969 478.46875 C 526.34375 477.757812 529.464844 476.859375 532.53125 475.773438 C 535.597656 474.6875 538.589844 473.425781 541.503906 471.980469 C 544.417969 470.535156 547.238281 468.921875 549.960938 467.140625 C 552.683594 465.359375 555.289062 463.421875 557.777344 461.328125 C 560.269531 459.230469 562.625 456.996094 564.847656 454.621094 C 567.070312 452.242188 569.144531 449.742188 571.066406 447.117188 L 548.796875 430.792969 C 547.523438 432.570312 546.148438 434.265625 544.671875 435.875 C 543.195312 437.484375 541.628906 439.003906 539.96875 440.425781 C 538.308594 441.847656 536.566406 443.164062 534.75 444.375 C 532.929688 445.585938 531.046875 446.683594 529.09375 447.667969 C 527.144531 448.652344 525.140625 449.515625 523.085938 450.257812 C 521.03125 451 518.9375 451.613281 516.808594 452.105469 C 514.679688 452.59375 512.527344 452.953125 510.355469 453.183594 C 508.179688 453.414062 506.003906 453.511719 503.816406 453.476562 C 502.273438 453.46875 500.730469 453.394531 499.191406 453.25 C 497.648438 453.105469 496.121094 452.894531 494.601562 452.613281 C 493.078125 452.332031 491.574219 451.988281 490.085938 451.574219 C 488.59375 451.160156 487.125 450.679688 485.679688 450.136719 C 484.230469 449.589844 482.8125 448.984375 481.417969 448.3125 C 480.023438 447.644531 478.664062 446.910156 477.335938 446.121094 C 476.007812 445.328125 474.714844 444.480469 473.460938 443.574219 C 472.207031 442.667969 471 441.710938 469.828125 440.695312 C 468.660156 439.683594 467.539062 438.621094 466.46875 437.507812 C 465.394531 436.394531 464.371094 435.234375 463.398438 434.03125 C 462.429688 432.828125 461.511719 431.582031 460.652344 430.296875 C 459.792969 429.011719 458.988281 427.691406 458.246094 426.335938 C 457.503906 424.980469 456.820312 423.59375 456.199219 422.175781 C 455.582031 420.757812 455.023438 419.316406 454.53125 417.851562 C 454.039062 416.382812 453.613281 414.898438 453.25 413.394531 C 452.890625 411.890625 452.597656 410.375 452.371094 408.84375 L 578.820312 408.84375 Z M 453.03125 384.503906 C 458.507812 360.714844 477.507812 344.609375 500.546875 344.609375 C 523.589844 344.609375 542.550781 360.714844 547.695312 384.503906 Z M 324.046875 317.515625 C 321.492188 317.515625 318.941406 317.644531 316.394531 317.898438 C 313.851562 318.152344 311.324219 318.53125 308.816406 319.035156 C 306.308594 319.542969 303.832031 320.167969 301.386719 320.917969 C 298.941406 321.667969 296.539062 322.535156 294.179688 323.519531 C 291.820312 324.507812 289.515625 325.609375 287.265625 326.824219 C 285.015625 328.039062 282.828125 329.359375 280.710938 330.792969 C 278.589844 332.222656 276.546875 333.753906 274.578125 335.386719 C 272.609375 337.019531 270.722656 338.746094 268.925781 340.566406 L 268.925781 262.585938 L 238.242188 262.585938 L 238.242188 476.789062 L 268.558594 476.789062 L 268.558594 457.007812 C 270.371094 458.84375 272.273438 460.585938 274.257812 462.234375 C 276.242188 463.882812 278.300781 465.433594 280.4375 466.878906 C 282.574219 468.324219 284.777344 469.664062 287.046875 470.894531 C 289.3125 472.125 291.636719 473.242188 294.011719 474.242188 C 296.390625 475.246094 298.8125 476.128906 301.277344 476.894531 C 303.742188 477.65625 306.234375 478.300781 308.761719 478.816406 C 311.289062 479.335938 313.835938 479.730469 316.402344 480 C 318.96875 480.269531 321.542969 480.410156 324.121094 480.429688 C 325.472656 480.457031 326.820312 480.453125 328.171875 480.414062 C 329.523438 480.375 330.871094 480.300781 332.21875 480.195312 C 333.5625 480.089844 334.90625 479.953125 336.246094 479.78125 C 337.585938 479.605469 338.921875 479.402344 340.25 479.164062 C 341.578125 478.921875 342.902344 478.652344 344.21875 478.347656 C 345.535156 478.042969 346.84375 477.703125 348.140625 477.335938 C 349.441406 476.964844 350.730469 476.5625 352.007812 476.128906 C 353.289062 475.695312 354.554688 475.230469 355.8125 474.730469 C 357.066406 474.234375 358.308594 473.707031 359.539062 473.148438 C 360.769531 472.585938 361.984375 472 363.183594 471.378906 C 364.386719 470.757812 365.570312 470.109375 366.738281 469.433594 C 367.90625 468.753906 369.058594 468.046875 370.191406 467.308594 C 371.324219 466.574219 372.4375 465.8125 373.53125 465.019531 C 374.625 464.226562 375.703125 463.410156 376.753906 462.566406 C 377.808594 461.71875 378.84375 460.851562 379.851562 459.953125 C 380.863281 459.058594 381.851562 458.136719 382.816406 457.191406 C 383.78125 456.246094 384.722656 455.277344 385.640625 454.285156 C 386.558594 453.292969 387.449219 452.277344 388.316406 451.242188 C 389.183594 450.203125 390.023438 449.148438 390.835938 448.070312 C 391.652344 446.988281 392.4375 445.890625 393.199219 444.773438 C 393.957031 443.65625 394.6875 442.519531 395.390625 441.367188 C 396.09375 440.210938 396.765625 439.042969 397.410156 437.855469 C 398.054688 436.667969 398.671875 435.464844 399.257812 434.246094 C 399.839844 433.027344 400.394531 431.796875 400.917969 430.550781 C 401.441406 429.304688 401.933594 428.046875 402.394531 426.773438 C 402.855469 425.503906 403.285156 424.222656 403.683594 422.933594 C 404.078125 421.640625 404.445312 420.339844 404.777344 419.03125 C 405.109375 417.71875 405.410156 416.402344 405.675781 415.078125 C 405.945312 413.753906 406.175781 412.421875 406.378906 411.085938 C 406.578125 409.75 406.746094 408.410156 406.882812 407.066406 C 407.015625 405.71875 407.117188 404.371094 407.183594 403.023438 C 407.25 401.671875 407.285156 400.324219 407.285156 398.972656 C 407.285156 397.621094 407.25 396.269531 407.183594 394.917969 C 407.117188 393.570312 407.015625 392.222656 406.882812 390.878906 C 406.746094 389.53125 406.578125 388.191406 406.378906 386.855469 C 406.175781 385.519531 405.945312 384.1875 405.675781 382.863281 C 405.410156 381.539062 405.109375 380.222656 404.777344 378.910156 C 404.445312 377.601562 404.078125 376.300781 403.683594 375.007812 C 403.285156 373.71875 402.855469 372.4375 402.394531 371.167969 C 401.933594 369.894531 401.441406 368.636719 400.917969 367.390625 C 400.394531 366.148438 399.839844 364.914062 399.257812 363.695312 C 398.671875 362.476562 398.054688 361.273438 397.410156 360.085938 C 396.765625 358.898438 396.09375 357.730469 395.390625 356.574219 C 394.6875 355.421875 393.957031 354.285156 393.199219 353.167969 C 392.4375 352.050781 391.652344 350.953125 390.835938 349.875 C 390.023438 348.792969 389.183594 347.738281 388.316406 346.699219 C 387.449219 345.664062 386.558594 344.648438 385.640625 343.65625 C 384.722656 342.664062 383.78125 341.695312 382.816406 340.75 C 381.851562 339.804688 380.863281 338.882812 379.851562 337.988281 C 378.84375 337.09375 377.808594 336.222656 376.753906 335.375 C 375.703125 334.53125 374.625 333.714844 373.53125 332.921875 C 372.4375 332.132812 371.324219 331.367188 370.191406 330.632812 C 369.058594 329.894531 367.90625 329.1875 366.738281 328.511719 C 365.570312 327.832031 364.386719 327.183594 363.183594 326.5625 C 361.984375 325.941406 360.769531 325.355469 359.539062 324.792969 C 358.308594 324.234375 357.066406 323.707031 355.8125 323.210938 C 354.554688 322.714844 353.289062 322.246094 352.007812 321.8125 C 350.730469 321.378906 349.441406 320.976562 348.140625 320.605469 C 346.84375 320.238281 345.535156 319.898438 344.21875 319.59375 C 342.902344 319.289062 341.578125 319.019531 340.25 318.78125 C 338.921875 318.539062 337.585938 318.335938 336.246094 318.164062 C 334.90625 317.988281 333.5625 317.851562 332.21875 317.746094 C 330.871094 317.640625 329.523438 317.566406 328.171875 317.527344 C 326.820312 317.488281 325.472656 317.484375 324.121094 317.515625 Z M 321.84375 453 C 320.070312 453.007812 318.304688 452.929688 316.542969 452.765625 C 314.777344 452.597656 313.027344 452.347656 311.289062 452.007812 C 309.550781 451.671875 307.832031 451.25 306.136719 450.742188 C 304.4375 450.234375 302.769531 449.644531 301.132812 448.972656 C 299.492188 448.300781 297.890625 447.550781 296.324219 446.722656 C 294.761719 445.894531 293.238281 444.988281 291.761719 444.011719 C 290.285156 443.03125 288.863281 441.980469 287.488281 440.863281 C 286.117188 439.742188 284.800781 438.558594 283.542969 437.3125 C 282.289062 436.0625 281.097656 434.753906 279.96875 433.386719 C 278.839844 432.023438 277.78125 430.605469 276.792969 429.132812 C 275.804688 427.664062 274.890625 426.148438 274.050781 424.589844 C 273.210938 423.027344 272.453125 421.429688 271.769531 419.792969 C 271.085938 418.160156 270.488281 416.496094 269.96875 414.800781 C 269.449219 413.105469 269.015625 411.390625 268.667969 409.652344 C 268.316406 407.914062 268.054688 406.164062 267.875 404.402344 C 267.699219 402.640625 267.605469 400.871094 267.605469 399.101562 C 267.601562 397.328125 267.683594 395.558594 267.855469 393.796875 C 268.023438 392.03125 268.28125 390.28125 268.621094 388.542969 C 268.964844 386.804688 269.394531 385.085938 269.902344 383.390625 C 270.414062 381.695312 271.007812 380.027344 271.683594 378.390625 C 272.359375 376.75 273.113281 375.148438 273.949219 373.585938 C 274.78125 372.023438 275.6875 370.503906 276.671875 369.027344 C 277.652344 367.554688 278.707031 366.132812 279.828125 364.761719 C 280.949219 363.390625 282.136719 362.078125 283.386719 360.824219 C 284.640625 359.570312 285.949219 358.382812 287.320312 357.257812 C 288.6875 356.132812 290.105469 355.078125 291.578125 354.09375 C 293.050781 353.105469 294.570312 352.195312 296.128906 351.359375 C 297.691406 350.527344 299.292969 349.769531 300.925781 349.089844 C 302.5625 348.414062 304.230469 347.816406 305.925781 347.300781 C 307.621094 346.789062 309.335938 346.359375 311.074219 346.011719 C 312.808594 345.667969 314.558594 345.410156 316.320312 345.238281 C 318.085938 345.0625 319.851562 344.976562 321.621094 344.980469 C 323.394531 344.980469 325.160156 345.070312 326.921875 345.242188 C 328.683594 345.417969 330.433594 345.679688 332.171875 346.027344 C 333.90625 346.375 335.625 346.808594 337.316406 347.324219 C 339.011719 347.839844 340.675781 348.4375 342.3125 349.117188 C 343.945312 349.800781 345.546875 350.558594 347.105469 351.394531 C 348.667969 352.234375 350.183594 353.144531 351.652344 354.132812 C 353.125 355.121094 354.542969 356.175781 355.910156 357.304688 C 357.277344 358.429688 358.585938 359.621094 359.835938 360.875 C 361.085938 362.132812 362.269531 363.445312 363.390625 364.816406 C 364.511719 366.191406 365.5625 367.613281 366.542969 369.089844 C 367.523438 370.566406 368.429688 372.085938 369.257812 373.652344 C 370.089844 375.214844 370.84375 376.816406 371.515625 378.457031 C 372.1875 380.09375 372.78125 381.761719 373.289062 383.460938 C 373.796875 385.15625 374.222656 386.875 374.5625 388.613281 C 374.902344 390.355469 375.15625 392.105469 375.324219 393.871094 C 375.492188 395.632812 375.574219 397.402344 375.566406 399.171875 C 375.570312 400.933594 375.488281 402.691406 375.316406 404.441406 C 375.144531 406.195312 374.890625 407.933594 374.546875 409.660156 C 374.207031 411.386719 373.78125 413.09375 373.269531 414.777344 C 372.761719 416.460938 372.167969 418.117188 371.496094 419.742188 C 370.824219 421.371094 370.074219 422.960938 369.242188 424.511719 C 368.414062 426.066406 367.511719 427.574219 366.535156 429.035156 C 365.554688 430.5 364.507812 431.910156 363.390625 433.273438 C 362.273438 434.632812 361.09375 435.933594 359.847656 437.179688 C 358.605469 438.421875 357.300781 439.601562 355.941406 440.71875 C 354.578125 441.832031 353.167969 442.878906 351.703125 443.855469 C 350.238281 444.832031 348.730469 445.734375 347.175781 446.558594 C 345.625 447.386719 344.035156 448.136719 342.410156 448.808594 C 340.78125 449.476562 339.125 450.066406 337.441406 450.574219 C 335.757812 451.082031 334.050781 451.507812 332.324219 451.847656 C 330.597656 452.1875 328.859375 452.441406 327.109375 452.609375 C 325.359375 452.777344 323.601562 452.859375 321.84375 452.851562 Z M 125.242188 451.527344 C 154.859375 451.527344 177.867188 428.808594 177.867188 394.761719 L 177.867188 262.585938 L 209.652344 262.585938 L 209.652344 476.789062 L 178.234375 476.789062 L 178.234375 456.53125 C 176.402344 458.421875 174.480469 460.21875 172.46875 461.917969 C 170.457031 463.613281 168.363281 465.207031 166.191406 466.691406 C 164.019531 468.179688 161.777344 469.550781 159.464844 470.8125 C 157.152344 472.070312 154.78125 473.210938 152.355469 474.230469 C 149.929688 475.25 147.457031 476.144531 144.9375 476.914062 C 142.421875 477.683594 139.871094 478.324219 137.289062 478.835938 C 134.707031 479.347656 132.105469 479.726562 129.484375 479.972656 C 126.863281 480.222656 124.238281 480.335938 121.605469 480.316406 C 75.925781 480.316406 40.757812 447.007812 40.757812 396.488281 L 40.757812 262.585938 L 73.132812 262.585938 L 73.132812 394.945312 C 73.132812 429.175781 95.183594 451.527344 125.242188 451.527344 Z M 125.242188 451.527344 " fill-opacity="1" fill-rule="nonzero"/></g></svg>