<?xml version="1.0" standalone="no"?>
<!DOCTYPE svg PUBLIC "-//W3C//DTD SVG 20010904//EN"
 "http://www.w3.org/TR/2001/REC-SVG-20010904/DTD/svg10.dtd">
<svg version="1.0" xmlns="http://www.w3.org/2000/svg"
 width="809.000000pt" height="579.000000pt" viewBox="0 0 809.000000 579.000000"
 preserveAspectRatio="xMidYMid meet">

<g transform="translate(0.000000,579.000000) scale(0.100000,-0.100000)"
fill="#000000" stroke="none">
<path d="M6257 5079 c-88 -21 -185 -89 -236 -166 -188 -284 31 -658 368 -630
88 7 130 21 188 61 106 72 163 189 163 333 l0 83 -192 -2 -193 -3 0 -75 0 -75
108 -3 c117 -3 120 -5 88 -58 -37 -61 -118 -104 -195 -104 -81 0 -182 67 -217
145 -38 82 -18 201 43 267 73 77 207 98 287 45 l43 -29 54 53 c30 29 54 57 54
63 0 21 -91 73 -165 92 -56 15 -141 17 -198 3z"/>
<path d="M884 4865 c-10 -24 6 -35 51 -35 38 0 45 -3 50 -22 3 -13 18 -88 34
-168 38 -187 29 -180 211 -180 183 0 180 -2 211 161 19 103 20 122 8 130 -8 5
-102 9 -210 9 l-197 0 -7 48 c-4 26 -12 53 -17 60 -15 18 -127 16 -134 -3z
m512 -202 c-3 -27 -12 -70 -19 -98 l-12 -50 -135 0 -135 0 -12 50 c-7 28 -16
71 -19 98 l-7 47 173 0 173 0 -7 -47z"/>
<path d="M1060 4396 c-18 -22 -8 -59 19 -73 44 -21 78 16 60 65 -10 26 -59 31
-79 8z"/>
<path d="M1326 4389 c-30 -43 20 -93 63 -63 23 17 28 53 9 72 -19 19 -55 14
-72 -9z"/>
<path d="M6664 4090 c-220 -9 -228 -20 -229 -295 0 -196 7 -226 60 -261 58
-38 652 -38 711 0 50 33 59 73 59 271 0 268 -4 272 -242 285 -87 5 -171 9
-188 8 -16 -1 -93 -4 -171 -8z m214 -230 c50 -29 92 -56 92 -60 0 -6 -112 -74
-192 -117 -5 -2 -8 50 -8 117 0 67 3 119 8 117 4 -2 49 -28 100 -57z"/>
<path d="M3575 4069 c-72 -9 -118 -31 -176 -86 -59 -55 -87 -104 -95 -167 l-7
-45 -69 0 c-38 0 -91 -7 -118 -16 -59 -20 -152 -100 -180 -156 -35 -68 -42
-192 -15 -260 3 -9 -7 -31 -26 -55 -142 -176 -118 -460 54 -627 34 -34 61 -66
59 -71 -12 -36 -1 -169 18 -219 52 -138 185 -235 330 -239 54 -1 59 -3 63 -27
12 -60 113 -150 187 -166 85 -19 192 6 245 55 20 19 21 18 70 -14 56 -38 97
-49 167 -47 96 2 206 76 242 162 14 35 17 36 71 38 91 3 160 35 236 110 84 83
110 147 110 263 0 43 -3 82 -6 87 -3 5 17 28 44 50 60 51 124 149 146 225 39
132 11 302 -65 409 -35 48 -39 60 -30 77 6 12 11 54 11 94 0 91 -27 167 -78
220 -76 78 -148 109 -253 108 l-68 -1 -6 49 c-7 54 -57 137 -109 182 -47 40
-130 69 -201 69 -101 1 -156 -19 -218 -78 l-36 -36 -33 31 c-68 64 -166 94
-264 81z m120 -163 c18 -8 48 -33 64 -57 l31 -42 0 -377 0 -377 78 3 77 3 3
66 3 65 31 -16 c94 -49 205 -61 239 -27 25 25 28 77 4 103 -10 11 -37 22 -64
26 -96 14 -158 56 -192 129 -16 34 -19 66 -19 221 0 171 1 183 23 214 37 55
70 74 140 78 53 3 67 0 97 -20 19 -13 45 -39 58 -58 20 -30 23 -44 19 -95 -3
-33 -8 -74 -12 -90 -5 -23 -1 -37 15 -58 28 -35 71 -36 134 -2 88 47 182 28
235 -46 38 -51 41 -113 10 -185 -25 -60 -19 -87 31 -139 68 -71 85 -116 85
-225 0 -83 -4 -101 -27 -145 -14 -27 -42 -65 -62 -84 -32 -31 -37 -33 -48 -19
-26 32 -108 87 -155 102 -73 24 -150 23 -175 -2 -25 -25 -26 -76 -2 -103 9
-10 33 -21 53 -24 74 -12 112 -27 148 -58 98 -86 98 -248 0 -334 -52 -45 -96
-57 -192 -49 -105 9 -125 -4 -133 -83 -4 -43 -11 -59 -39 -87 -29 -29 -40 -34
-83 -34 -43 0 -54 4 -84 35 l-35 35 -3 110 -3 111 -77 3 -78 3 0 -113 0 -113
-35 -36 c-31 -31 -42 -35 -85 -35 -43 0 -54 5 -83 34 -27 27 -35 44 -40 87 -9
80 -28 92 -132 83 -96 -8 -140 4 -192 49 -48 42 -73 99 -73 167 0 123 77 205
211 224 56 8 82 34 81 78 -1 50 -31 71 -97 69 -78 -2 -155 -34 -215 -88 l-51
-46 -35 34 c-19 19 -49 62 -66 96 -28 57 -30 69 -27 145 5 95 25 145 90 215
50 55 55 77 28 137 -16 37 -20 62 -17 103 11 130 135 191 263 128 65 -32 99
-32 132 1 22 22 24 30 17 62 -16 74 -11 158 12 189 51 69 138 92 219 59z"/>
<path d="M1083 3899 c-71 -9 -129 -33 -144 -60 -5 -11 -8 -98 -7 -211 l3 -193
42 -23 c85 -47 302 -46 388 1 l40 22 3 193 c1 121 -1 200 -8 212 -15 28 -69
48 -163 60 -45 5 -84 9 -87 9 -3 -1 -33 -5 -67 -10z m217 -60 c87 -23 78 -42
-31 -65 -81 -17 -178 -14 -244 9 -49 17 -54 31 -16 47 69 28 202 33 291 9z
m-200 -120 c69 -10 198 -1 247 18 11 5 14 -5 11 -53 l-3 -58 -45 -14 c-61 -19
-233 -19 -285 0 -40 15 -40 15 -43 73 -3 56 -2 57 20 51 13 -3 57 -11 98 -17z
m1 -169 c69 -10 168 -3 237 16 22 6 23 5 20 -52 l-3 -58 -45 -14 c-25 -7 -88
-14 -140 -14 -52 0 -115 7 -140 14 l-45 14 -3 58 c-3 57 -3 58 21 52 13 -3 57
-10 98 -16z"/>
<path d="M1912 3378 c-15 -15 -16 -225 -2 -248 7 -11 32 -16 93 -18 79 -4 86
-2 101 19 9 13 16 40 16 61 l0 38 49 0 c77 0 81 -9 81 -159 0 -85 -4 -131 -12
-139 -7 -7 -36 -12 -65 -12 l-53 0 0 36 c0 67 -10 74 -108 74 -55 0 -92 -4
-100 -12 -8 -8 -12 -51 -12 -130 0 -139 -1 -138 114 -138 66 0 77 3 90 22 9
12 16 39 16 60 l0 38 64 0 c59 0 66 2 90 31 22 25 26 41 26 90 l0 59 50 0 50
0 0 -44 c0 -65 16 -76 110 -76 104 0 110 8 110 143 0 136 -1 137 -108 137 -55
0 -92 -4 -100 -12 -7 -7 -12 -31 -12 -55 l0 -43 -50 0 -50 0 0 49 c0 27 -4 61
-10 75 -13 34 -59 56 -120 56 l-50 0 0 36 c0 67 -10 74 -108 74 -55 0 -92 -4
-100 -12z m156 -125 l-3 -88 -57 -3 -58 -3 0 91 0 90 60 0 61 0 -3 -87z m500
-180 l-3 -88 -57 -3 -58 -3 0 91 0 90 60 0 61 0 -3 -87z m-498 -183 l0 -90
-60 0 -60 0 0 90 0 90 60 0 60 0 0 -90z"/>
<path d="M5640 3364 c-6 -14 -10 -39 -10 -55 0 -28 -1 -29 -51 -29 -92 0 -128
-35 -129 -122 l0 -58 -50 0 -50 0 0 43 c0 24 -5 48 -12 55 -8 8 -45 12 -100
12 -86 0 -89 -1 -98 -26 -6 -14 -10 -68 -10 -120 0 -124 9 -134 114 -134 90 0
106 11 106 76 l0 44 50 0 50 0 0 -56 c0 -96 26 -123 118 -124 l62 0 0 -38 c0
-21 7 -48 16 -60 14 -20 24 -22 98 -22 50 0 87 5 94 12 8 8 12 51 12 128 0 77
-4 120 -12 128 -14 14 -166 16 -187 3 -7 -5 -16 -29 -18 -55 l-6 -46 -51 0
c-29 0 -57 5 -64 12 -8 8 -12 54 -12 139 0 150 4 159 81 159 l49 0 0 -40 c0
-63 24 -80 114 -80 103 0 106 3 106 144 0 74 -4 116 -12 124 -8 8 -45 12 -100
12 -86 0 -89 -1 -98 -26z m160 -114 l0 -91 -57 3 -58 3 -3 88 -3 87 61 0 60 0
0 -90z m-500 -180 l0 -91 -57 3 -58 3 -3 88 -3 87 61 0 60 0 0 -90z m500 -180
l0 -91 -57 3 -58 3 -3 88 -3 87 61 0 60 0 0 -90z"/>
<path d="M6964 3290 c-106 -21 -223 -112 -273 -212 -79 -157 -62 -318 47 -453
38 -47 63 -68 122 -97 41 -20 87 -39 103 -43 l27 -5 0 145 0 145 -50 0 -50 0
0 60 0 60 50 0 50 0 0 63 c0 77 27 140 68 161 40 21 103 30 147 22 34 -7 35
-8 35 -56 l0 -50 -40 0 c-57 0 -80 -26 -80 -90 l0 -50 56 0 57 0 -7 -46 c-3
-26 -6 -53 -6 -60 0 -10 -15 -14 -50 -14 l-50 0 0 -146 0 -146 33 8 c60 13
136 56 190 108 163 156 166 415 8 579 -96 100 -245 145 -387 117z"/>
<path d="M852 2908 c-9 -9 -12 -85 -12 -279 0 -265 0 -268 22 -283 19 -14 67
-16 318 -16 251 0 299 2 318 16 22 15 22 18 22 283 0 194 -3 270 -12 279 -17
17 -639 17 -656 0z m636 -20 c17 -17 15 -68 -5 -90 -14 -16 -33 -18 -155 -18
-125 0 -143 2 -165 20 -23 18 -41 20 -164 20 l-139 0 0 28 c0 15 5 33 12 40
17 17 599 17 616 0z m-334 -113 c31 -24 39 -25 171 -25 115 0 142 3 157 17 18
16 18 10 16 -193 l-3 -209 -315 0 -315 0 -3 218 -2 217 130 0 c125 0 133 -1
164 -25z"/>
<path d="M910 2860 c0 -5 14 -10 30 -10 17 0 30 5 30 10 0 6 -13 10 -30 10
-16 0 -30 -4 -30 -10z"/>
<path d="M1000 2860 c0 -5 14 -10 31 -10 17 0 28 4 24 10 -3 6 -17 10 -31 10
-13 0 -24 -4 -24 -10z"/>
<path d="M1090 2860 c0 -5 11 -10 25 -10 14 0 25 5 25 10 0 6 -11 10 -25 10
-14 0 -25 -4 -25 -10z"/>
<path d="M1210 2860 c0 -6 45 -10 115 -10 70 0 115 4 115 10 0 6 -45 10 -115
10 -70 0 -115 -4 -115 -10z"/>
<path d="M1215 2820 c-3 -5 0 -13 8 -15 24 -10 212 -1 212 10 0 14 -211 19
-220 5z"/>
<path d="M895 2760 c-10 -17 17 -21 110 -18 60 2 90 7 93 16 5 15 -193 18
-203 2z"/>
<path d="M890 2710 c0 -6 42 -10 105 -10 63 0 105 4 105 10 0 6 -42 10 -105
10 -63 0 -105 -4 -105 -10z"/>
<path d="M1264 2691 c-59 -27 -88 -73 -88 -138 0 -88 60 -148 147 -148 89 0
149 61 149 151 0 60 -28 104 -82 132 -53 27 -73 27 -126 3z m62 -26 c14 -37
-41 -62 -75 -34 l-22 18 28 15 c36 20 62 20 69 1z m79 -16 c35 -31 44 -68 19
-76 -21 -7 -72 50 -72 80 1 35 9 34 53 -4z m-154 -49 c5 -60 1 -82 -18 -95
-19 -13 -22 -13 -27 1 -8 21 -8 89 1 97 10 11 43 8 44 -3z m107 -12 c16 -16
15 -53 -2 -67 -22 -19 -68 -9 -77 15 -16 45 46 85 79 52z m77 -95 c-18 -33
-40 -47 -56 -37 -25 15 9 91 43 96 30 4 35 -18 13 -59z m-88 -40 c10 -22 9
-23 -22 -23 -41 0 -85 19 -85 36 0 39 88 29 107 -13z"/>
<path d="M890 2650 c0 -6 47 -10 120 -10 73 0 120 4 120 10 0 6 -47 10 -120
10 -73 0 -120 -4 -120 -10z"/>
<path d="M890 2600 c0 -6 47 -10 120 -10 73 0 120 4 120 10 0 6 -47 10 -120
10 -73 0 -120 -4 -120 -10z"/>
<path d="M890 2550 c0 -6 47 -10 120 -10 73 0 120 4 120 10 0 6 -47 10 -120
10 -73 0 -120 -4 -120 -10z"/>
<path d="M902 2488 c-22 -22 -15 -67 12 -80 26 -11 56 -5 56 11 0 5 -12 11
-27 13 -20 2 -28 9 -28 23 0 16 6 20 28 18 18 -1 27 3 27 13 0 17 -51 19 -68
2z"/>
<path d="M990 2451 c0 -28 5 -51 10 -51 6 0 10 10 10 23 l1 22 18 -22 c11 -13
21 -23 24 -23 3 0 4 21 3 48 -1 45 -2 47 -33 50 l-33 3 0 -50z m47 23 c-3 -3
-12 -4 -19 -1 -8 3 -5 6 6 6 11 1 17 -2 13 -5z"/>
<path d="M1080 2450 c0 -27 5 -50 10 -50 6 0 10 6 10 13 0 8 3 9 8 1 4 -6 18
-10 32 -9 22 1 25 7 28 48 2 36 0 47 -12 47 -8 0 -19 -12 -24 -27 l-9 -28 -13
28 c-20 41 -30 33 -30 -23z"/>
<path d="M6624 2346 c-59 -19 -98 -52 -131 -110 l-28 -51 0 -240 0 -240 30
-54 c34 -61 79 -95 145 -110 72 -17 417 -14 476 4 58 17 103 56 136 116 22 43
23 51 23 284 l0 240 -28 52 c-31 60 -80 97 -147 112 -66 15 -425 13 -476 -3z
m513 -92 c15 -11 37 -38 48 -60 18 -35 20 -60 20 -244 -1 -233 -7 -265 -63
-308 l-35 -27 -226 -3 c-206 -2 -229 -1 -261 16 -63 34 -73 58 -84 198 -12
167 2 353 30 392 44 58 66 63 316 60 211 -3 229 -4 255 -24z"/>
<path d="M7059 2201 c-20 -16 -22 -23 -14 -47 18 -51 95 -40 95 13 0 15 -35
53 -49 53 -5 0 -19 -9 -32 -19z"/>
<path d="M6796 2146 c-148 -55 -183 -258 -63 -363 97 -85 248 -59 314 55 79
134 -8 302 -164 318 -29 2 -64 -2 -87 -10z m141 -86 c45 -27 66 -64 66 -115 0
-104 -113 -169 -200 -115 -45 27 -65 62 -65 114 -2 104 111 170 199 116z"/>
<path d="M1004 1850 c-50 -20 -54 -40 -54 -262 0 -136 4 -216 12 -233 17 -38
64 -47 231 -43 l149 3 24 28 c23 27 24 34 24 175 l0 148 -92 97 -93 97 -90 -1
c-49 0 -100 -4 -111 -9z m166 -124 c0 -98 -2 -96 101 -96 l69 0 0 -125 c0
-113 -2 -125 -19 -135 -28 -15 -294 -13 -309 2 -9 9 -12 70 -12 215 0 234 -5
222 103 223 l67 0 0 -84z m95 -6 l39 -40 -42 0 -42 0 0 40 c0 22 1 40 3 40 2
0 21 -18 42 -40z"/>
<path d="M5939 1401 c-55 -56 -50 -61 176 -173 l205 -103 187 93 c249 124 237
116 218 152 -31 61 -26 60 -408 60 l-349 0 -29 -29z"/>
<path d="M5900 1060 c0 -123 4 -168 15 -190 31 -61 27 -60 405 -60 383 0 378
-1 406 66 17 40 20 334 4 334 -6 0 -100 -45 -210 -100 l-200 -100 -210 105
-210 105 0 -160z"/>
</g>
</svg>
