<svg xmlns="http://www.w3.org/2000/svg" xmlns:xlink="http://www.w3.org/1999/xlink" xmlns:serif="http://www.serif.com/" viewBox="0 0 64 80" version="1.1" xml:space="preserve" style="" x="0px" y="0px" fill-rule="evenodd" clip-rule="evenodd" stroke-linejoin="round" stroke-miterlimit="2"><g><path d="M31,15.838c-3.06,0.124 -6.001,0.804 -8.749,1.814l-0.463,-1.462c-0.166,-0.526 -0.728,-0.818 -1.255,-0.652c-0.526,0.167 -0.818,0.729 -0.652,1.255l0.508,1.605c-2.628,1.139 -5.049,2.55 -7.194,4.014l-0.9,-1.196c-0.332,-0.44 -0.96,-0.529 -1.401,-0.197c-0.441,0.332 -0.529,0.96 -0.197,1.401l0.868,1.153c-5.149,3.814 -8.332,7.604 -8.332,7.604c-0.311,0.371 -0.311,0.911 -0,1.283c-0,-0 3.22,3.833 8.42,7.669l-0.956,1.269c-0.332,0.441 -0.244,1.069 0.197,1.401c0.441,0.332 1.069,0.244 1.401,-0.197l0.991,-1.316c2.136,1.451 4.543,2.848 7.153,3.974l-0.558,1.765c-0.166,0.526 0.126,1.089 0.652,1.255c0.527,0.166 1.089,-0.126 1.255,-0.652l0.514,-1.625c2.732,1 5.656,1.672 8.698,1.795l0,2.202c-0,0.552 0.448,1 1,1c0.552,0 1,-0.448 1,-1l-0,-2.202l0.018,-0.001c0.551,-0.023 1.1,-0.063 1.647,-0.121c0.992,-0.105 1.977,-0.267 2.95,-0.479c1.062,-0.231 2.111,-0.523 3.142,-0.865c0.516,-0.172 1.029,-0.357 1.536,-0.553l0.018,-0.007l0.471,1.488c0.167,0.526 0.729,0.819 1.255,0.652c0.526,-0.166 0.819,-0.729 0.652,-1.255l-0.526,-1.663c2.378,-1.077 4.58,-2.369 6.551,-3.708l0.991,1.316c0.332,0.441 0.96,0.529 1.401,0.197c0.441,-0.332 0.529,-0.96 0.197,-1.401l-0.956,-1.269c5.2,-3.836 8.42,-7.669 8.42,-7.669c0.311,-0.372 0.311,-0.912 0,-1.283c0,-0 -3.183,-3.79 -8.332,-7.604l0.868,-1.153c0.332,-0.441 0.244,-1.069 -0.197,-1.401c-0.441,-0.332 -1.069,-0.243 -1.401,0.197l-0.9,1.196c-1.98,-1.352 -4.196,-2.658 -6.592,-3.747l0.476,-1.504c0.167,-0.526 -0.126,-1.089 -0.652,-1.255c-0.526,-0.166 -1.088,0.126 -1.255,0.652l-0.419,1.327c-2.921,-1.138 -6.073,-1.914 -9.363,-2.047l-0,-2.02c-0,-0.552 -0.448,-1 -1,-1c-0.552,0 -1,0.448 -1,1l-0,2.02Zm0.977,1.98l0.046,0c7.716,0.013 13.977,6.281 13.977,14c-0,7.719 -6.261,13.988 -13.977,14l-0.046,0c-7.716,-0.012 -13.977,-6.281 -13.977,-14c-0,-7.719 6.261,-13.987 13.977,-14Zm-11.118,2.521c-7.858,3.468 -13.74,9.509 -15.527,11.479c1.787,1.971 7.669,8.011 15.527,11.479c-2.996,-2.909 -4.859,-6.978 -4.859,-11.479c0,-4.501 1.863,-8.57 4.859,-11.479Zm22.282,-0c2.996,2.909 4.859,6.978 4.859,11.479c-0,4.501 -1.863,8.57 -4.859,11.479c7.858,-3.468 13.74,-9.508 15.527,-11.479c-1.787,-1.971 -7.669,-8.011 -15.527,-11.479Zm-11.141,0.025c-6.322,-0 -11.455,5.132 -11.455,11.454c0,6.322 5.133,11.455 11.455,11.455c6.322,-0 11.455,-5.133 11.455,-11.455c-0,-6.322 -5.133,-11.454 -11.455,-11.454Zm-0,2c5.218,-0 9.455,4.236 9.455,9.454c-0,5.218 -4.237,9.455 -9.455,9.455c-5.218,-0 -9.455,-4.237 -9.455,-9.455c0,-5.218 4.237,-9.454 9.455,-9.454Zm5.405,7.697c0.18,0.554 0.277,1.144 0.277,1.757c-0,3.136 -2.546,5.682 -5.682,5.682c-3.136,0 -5.682,-2.546 -5.682,-5.682c0,-3.136 2.546,-5.682 5.682,-5.682c0.416,0 0.822,0.045 1.213,0.13c-0.467,0.505 -0.753,1.18 -0.753,1.921c0,1.561 1.267,2.828 2.828,2.828c0.842,-0 1.598,-0.369 2.117,-0.954Z"/></g><text x="0" y="79" fill="#000000" font-size="5px" font-weight="bold" font-family="'Helvetica Neue', Helvetica, Arial-Unicode, Arial, Sans-serif">Created by Rifqi Real</text><text x="0" y="84" fill="#000000" font-size="5px" font-weight="bold" font-family="'Helvetica Neue', Helvetica, Arial-Unicode, Arial, Sans-serif">from the Noun Project</text></svg>